<svg width="157" height="97" viewBox="0 0 157 97" fill="none" xmlns="http://www.w3.org/2000/svg">
<rect width="157" height="96.0471" fill="#32499F"/>
<path d="M47.9922 68.7383V74.0117H33.6172V68.7383H47.9922ZM36.0586 45.5742V74.0117H29.2031V45.5742H36.0586ZM73.6953 59.2266V60.3789C73.6953 62.5534 73.3893 64.5065 72.7773 66.2383C72.1784 67.957 71.3255 69.4284 70.2188 70.6523C69.112 71.8633 67.8034 72.7943 66.293 73.4453C64.7826 74.0833 63.1159 74.4023 61.293 74.4023C59.457 74.4023 57.7773 74.0833 56.2539 73.4453C54.7435 72.7943 53.4284 71.8633 52.3086 70.6523C51.2018 69.4284 50.3424 67.957 49.7305 66.2383C49.1315 64.5065 48.832 62.5534 48.832 60.3789V59.2266C48.832 57.0521 49.1315 55.099 49.7305 53.3672C50.3424 51.6354 51.1953 50.1641 52.2891 48.9531C53.3958 47.7292 54.7044 46.7982 56.2148 46.1602C57.7383 45.5091 59.418 45.1836 61.2539 45.1836C63.0768 45.1836 64.7435 45.5091 66.2539 46.1602C67.7773 46.7982 69.0924 47.7292 70.1992 48.9531C71.306 50.1641 72.1654 51.6354 72.7773 53.3672C73.3893 55.099 73.6953 57.0521 73.6953 59.2266ZM66.7422 60.3789V59.1875C66.7422 57.7812 66.6185 56.5443 66.3711 55.4766C66.1367 54.3958 65.7852 53.4909 65.3164 52.7617C64.8477 52.0326 64.2682 51.4857 63.5781 51.1211C62.901 50.7435 62.1263 50.5547 61.2539 50.5547C60.3424 50.5547 59.5482 50.7435 58.8711 51.1211C58.194 51.4857 57.6276 52.0326 57.1719 52.7617C56.7161 53.4909 56.3711 54.3958 56.1367 55.4766C55.9154 56.5443 55.8047 57.7812 55.8047 59.1875V60.3789C55.8047 61.7721 55.9154 63.0091 56.1367 64.0898C56.3711 65.1576 56.7161 66.0625 57.1719 66.8047C57.6406 67.5469 58.2135 68.1068 58.8906 68.4844C59.5807 68.862 60.3815 69.0508 61.293 69.0508C62.1654 69.0508 62.9401 68.862 63.6172 68.4844C64.2943 68.1068 64.8607 67.5469 65.3164 66.8047C65.7852 66.0625 66.1367 65.1576 66.3711 64.0898C66.6185 63.0091 66.7422 61.7721 66.7422 60.3789ZM100.512 58.8164V70.4961C100.03 71.0299 99.2878 71.6029 98.2852 72.2148C97.2956 72.8138 96.0456 73.3281 94.5352 73.7578C93.0247 74.1875 91.2474 74.4023 89.2031 74.4023C87.3151 74.4023 85.6029 74.1029 84.0664 73.5039C82.5299 72.8919 81.2083 72 80.1016 70.8281C79.0078 69.6432 78.1615 68.1979 77.5625 66.4922C76.9766 64.7734 76.6836 62.8073 76.6836 60.5938V59.0117C76.6836 56.7982 76.9831 54.832 77.582 53.1133C78.181 51.3945 79.0208 49.9492 80.1016 48.7773C81.1953 47.5924 82.4779 46.694 83.9492 46.082C85.4336 45.4701 87.0612 45.1641 88.832 45.1641C91.4492 45.1641 93.5781 45.5807 95.2188 46.4141C96.8594 47.2344 98.1029 48.3737 98.9492 49.832C99.7956 51.2773 100.31 52.9505 100.492 54.8516H93.9102C93.7799 53.9141 93.5326 53.1198 93.168 52.4688C92.8164 51.8047 92.3086 51.3034 91.6445 50.9648C90.9805 50.6133 90.1211 50.4375 89.0664 50.4375C88.2461 50.4375 87.4974 50.6133 86.8203 50.9648C86.1562 51.3164 85.5898 51.8503 85.1211 52.5664C84.6523 53.2695 84.2878 54.1549 84.0273 55.2227C83.7799 56.2904 83.6562 57.5404 83.6562 58.9727V60.5938C83.6562 62.013 83.7734 63.2565 84.0078 64.3242C84.2552 65.3919 84.6198 66.2839 85.1016 67C85.5964 67.7031 86.2214 68.237 86.9766 68.6016C87.7448 68.9531 88.6497 69.1289 89.6914 69.1289C90.4206 69.1289 91.0456 69.0703 91.5664 68.9531C92.0872 68.8229 92.5169 68.6667 92.8555 68.4844C93.207 68.2891 93.474 68.1068 93.6562 67.9375V63.5234H88.8906V58.8164H100.512ZM128.578 59.2266V60.3789C128.578 62.5534 128.272 64.5065 127.66 66.2383C127.061 67.957 126.208 69.4284 125.102 70.6523C123.995 71.8633 122.686 72.7943 121.176 73.4453C119.665 74.0833 117.999 74.4023 116.176 74.4023C114.34 74.4023 112.66 74.0833 111.137 73.4453C109.626 72.7943 108.311 71.8633 107.191 70.6523C106.085 69.4284 105.225 67.957 104.613 66.2383C104.014 64.5065 103.715 62.5534 103.715 60.3789V59.2266C103.715 57.0521 104.014 55.099 104.613 53.3672C105.225 51.6354 106.078 50.1641 107.172 48.9531C108.279 47.7292 109.587 46.7982 111.098 46.1602C112.621 45.5091 114.301 45.1836 116.137 45.1836C117.96 45.1836 119.626 45.5091 121.137 46.1602C122.66 46.7982 123.975 47.7292 125.082 48.9531C126.189 50.1641 127.048 51.6354 127.66 53.3672C128.272 55.099 128.578 57.0521 128.578 59.2266ZM121.625 60.3789V59.1875C121.625 57.7812 121.501 56.5443 121.254 55.4766C121.02 54.3958 120.668 53.4909 120.199 52.7617C119.73 52.0326 119.151 51.4857 118.461 51.1211C117.784 50.7435 117.009 50.5547 116.137 50.5547C115.225 50.5547 114.431 50.7435 113.754 51.1211C113.077 51.4857 112.51 52.0326 112.055 52.7617C111.599 53.4909 111.254 54.3958 111.02 55.4766C110.798 56.5443 110.688 57.7812 110.688 59.1875V60.3789C110.688 61.7721 110.798 63.0091 111.02 64.0898C111.254 65.1576 111.599 66.0625 112.055 66.8047C112.523 67.5469 113.096 68.1068 113.773 68.4844C114.464 68.862 115.264 69.0508 116.176 69.0508C117.048 69.0508 117.823 68.862 118.5 68.4844C119.177 68.1068 119.743 67.5469 120.199 66.8047C120.668 66.0625 121.02 65.1576 121.254 64.0898C121.501 63.0091 121.625 61.7721 121.625 60.3789Z" fill="white"/>
<path d="M17.4262 13.3892H19.9897C19.9555 14.1313 19.7553 14.7856 19.3891 15.3521C19.0229 15.9185 18.5151 16.3604 17.8657 16.6777C17.2211 16.9902 16.4594 17.1465 15.5805 17.1465C14.8676 17.1465 14.2304 17.0269 13.6689 16.7876C13.1122 16.5483 12.6386 16.2041 12.248 15.7549C11.8622 15.3057 11.5668 14.7612 11.3617 14.1216C11.1616 13.4819 11.0615 12.7617 11.0615 11.9609V11.3823C11.0615 10.5815 11.1664 9.86133 11.3764 9.22168C11.5912 8.57715 11.894 8.03027 12.2846 7.58105C12.6801 7.12695 13.1537 6.78027 13.7055 6.54102C14.2573 6.30176 14.87 6.18213 15.5439 6.18213C16.4716 6.18213 17.2553 6.34814 17.895 6.68018C18.5346 7.01221 19.0302 7.46875 19.3818 8.0498C19.7333 8.62598 19.9408 9.28271 20.0043 10.02H17.4408C17.4311 9.61963 17.3627 9.28516 17.2358 9.0166C17.1088 8.74316 16.9086 8.53809 16.6352 8.40137C16.3617 8.26465 15.998 8.19629 15.5439 8.19629C15.2265 8.19629 14.9506 8.25488 14.7162 8.37207C14.4819 8.48926 14.2866 8.6748 14.1303 8.92871C13.9741 9.18262 13.8569 9.51221 13.7787 9.91748C13.7055 10.3179 13.6689 10.8013 13.6689 11.3677V11.9609C13.6689 12.5273 13.7031 13.0107 13.7714 13.4111C13.8398 13.8115 13.9496 14.1387 14.101 14.3926C14.2524 14.6465 14.4477 14.8345 14.6869 14.9565C14.9311 15.0737 15.2289 15.1323 15.5805 15.1323C15.9711 15.1323 16.3007 15.0713 16.5693 14.9492C16.8378 14.8223 17.0453 14.6318 17.1918 14.3779C17.3383 14.1191 17.4164 13.7896 17.4262 13.3892ZM20.7807 13.1182V12.9644C20.7807 12.3833 20.8637 11.8486 21.0297 11.3604C21.1957 10.8672 21.4399 10.4399 21.7621 10.0786C22.0844 9.71729 22.4824 9.43652 22.956 9.23633C23.4296 9.03125 23.9765 8.92871 24.5966 8.92871C25.2216 8.92871 25.7709 9.03125 26.2446 9.23633C26.7231 9.43652 27.1235 9.71729 27.4457 10.0786C27.768 10.4399 28.0121 10.8672 28.1782 11.3604C28.3442 11.8486 28.4272 12.3833 28.4272 12.9644V13.1182C28.4272 13.6943 28.3442 14.229 28.1782 14.7222C28.0121 15.2104 27.768 15.6377 27.4457 16.0039C27.1235 16.3652 26.7255 16.646 26.2519 16.8462C25.7783 17.0464 25.2314 17.1465 24.6113 17.1465C23.9911 17.1465 23.4418 17.0464 22.9633 16.8462C22.4848 16.646 22.0844 16.3652 21.7621 16.0039C21.4399 15.6377 21.1957 15.2104 21.0297 14.7222C20.8637 14.229 20.7807 13.6943 20.7807 13.1182ZM23.249 12.9644V13.1182C23.249 13.416 23.2709 13.6943 23.3149 13.9531C23.3588 14.2119 23.4321 14.439 23.5346 14.6343C23.6371 14.8247 23.7763 14.9736 23.9521 15.0811C24.1279 15.1885 24.3476 15.2422 24.6113 15.2422C24.87 15.2422 25.0849 15.1885 25.2558 15.0811C25.4316 14.9736 25.5707 14.8247 25.6733 14.6343C25.7758 14.439 25.8491 14.2119 25.893 13.9531C25.9369 13.6943 25.9589 13.416 25.9589 13.1182V12.9644C25.9589 12.6763 25.9369 12.4053 25.893 12.1514C25.8491 11.8926 25.7758 11.6655 25.6733 11.4702C25.5707 11.27 25.4316 11.1138 25.2558 11.0015C25.08 10.8892 24.8603 10.833 24.5966 10.833C24.3378 10.833 24.1205 10.8892 23.9448 11.0015C23.7739 11.1138 23.6371 11.27 23.5346 11.4702C23.4321 11.6655 23.3588 11.8926 23.3149 12.1514C23.2709 12.4053 23.249 12.6763 23.249 12.9644ZM32.016 10.7524V17H29.5478V9.0752H31.8622L32.016 10.7524ZM31.7158 12.7666L31.1518 12.7812C31.1518 12.2246 31.2177 11.7119 31.3495 11.2432C31.4814 10.7744 31.6767 10.3667 31.9355 10.02C32.1943 9.67334 32.5117 9.40479 32.8876 9.21436C33.2685 9.02393 33.7079 8.92871 34.206 8.92871C34.5527 8.92871 34.8676 8.98242 35.1508 9.08984C35.434 9.19238 35.6782 9.35596 35.8832 9.58057C36.0883 9.80029 36.2446 10.0884 36.352 10.4448C36.4643 10.7964 36.5204 11.2188 36.5204 11.7119V17H34.0522V12.0269C34.0522 11.6899 34.0131 11.436 33.935 11.2651C33.8617 11.0942 33.7543 10.9795 33.6127 10.9209C33.4711 10.8623 33.2978 10.833 33.0927 10.833C32.8779 10.833 32.685 10.8818 32.5141 10.9795C32.3432 11.0771 32.1967 11.2139 32.0746 11.3896C31.9575 11.5605 31.8671 11.7632 31.8036 11.9976C31.745 12.2319 31.7158 12.4883 31.7158 12.7666ZM36.2421 12.7666L35.5536 12.7812C35.5536 12.2246 35.6147 11.7119 35.7367 11.2432C35.8637 10.7744 36.0517 10.3667 36.3007 10.02C36.5546 9.67334 36.8696 9.40479 37.2455 9.21436C37.6215 9.02393 38.0585 8.92871 38.5566 8.92871C38.9179 8.92871 39.2499 8.98242 39.5527 9.08984C39.8554 9.19727 40.1166 9.37061 40.3364 9.60986C40.5561 9.84912 40.727 10.1665 40.8491 10.562C40.9711 10.9526 41.0322 11.436 41.0322 12.0122V17H38.5566V12.0122C38.5566 11.6851 38.5175 11.4385 38.4394 11.2725C38.3661 11.1016 38.2587 10.9868 38.1171 10.9282C37.9755 10.8647 37.8071 10.833 37.6117 10.833C37.3774 10.833 37.1747 10.8818 37.0038 10.9795C36.8329 11.0771 36.6889 11.2139 36.5717 11.3896C36.4594 11.5605 36.3764 11.7632 36.3227 11.9976C36.269 12.2319 36.2421 12.4883 36.2421 12.7666ZM44.936 10.5986V20.0469H42.4677V9.0752H44.7675L44.936 10.5986ZM49.7992 12.9424V13.0962C49.7992 13.6724 49.7333 14.207 49.6015 14.7002C49.4697 15.1934 49.2743 15.623 49.0156 15.9893C48.7568 16.3555 48.4345 16.6411 48.0488 16.8462C47.6679 17.0464 47.226 17.1465 46.7231 17.1465C46.2494 17.1465 45.8417 17.0415 45.4999 16.8315C45.1581 16.6216 44.8725 16.3311 44.643 15.96C44.4135 15.5889 44.228 15.1641 44.0864 14.6855C43.9448 14.207 43.8325 13.7017 43.7494 13.1694V12.9717C43.8325 12.4004 43.9448 11.8706 44.0864 11.3823C44.228 10.8892 44.4135 10.4595 44.643 10.0933C44.8725 9.72705 45.1557 9.44141 45.4926 9.23633C45.8344 9.03125 46.2421 8.92871 46.7158 8.92871C47.2187 8.92871 47.6606 9.02393 48.0414 9.21436C48.4272 9.40479 48.7494 9.67822 49.0082 10.0347C49.2719 10.3862 49.4697 10.8086 49.6015 11.3018C49.7333 11.7949 49.7992 12.3418 49.7992 12.9424ZM47.331 13.0962V12.9424C47.331 12.6348 47.309 12.354 47.2651 12.1001C47.2211 11.8413 47.1503 11.6167 47.0527 11.4263C46.9599 11.2358 46.8354 11.0894 46.6791 10.9868C46.5229 10.8843 46.33 10.833 46.1005 10.833C45.8368 10.833 45.6147 10.8745 45.434 10.9575C45.2582 11.0356 45.1166 11.1577 45.0092 11.3237C44.9067 11.4849 44.8334 11.6875 44.7895 11.9316C44.7504 12.1709 44.7333 12.4517 44.7382 12.7739V13.3745C44.7284 13.7456 44.7651 14.0728 44.8481 14.356C44.9311 14.6343 45.0751 14.8516 45.2802 15.0078C45.4853 15.1641 45.7636 15.2422 46.1152 15.2422C46.3495 15.2422 46.5449 15.1885 46.7011 15.0811C46.8574 14.9688 46.9819 14.8149 47.0746 14.6196C47.1674 14.4194 47.2333 14.1899 47.2724 13.9312C47.3115 13.6724 47.331 13.394 47.331 13.0962ZM55.0141 15.0078V11.7412C55.0141 11.5166 54.9824 11.3237 54.9189 11.1626C54.8554 11.0015 54.7553 10.877 54.6186 10.7891C54.4819 10.6963 54.2988 10.6499 54.0693 10.6499C53.8837 10.6499 53.725 10.6816 53.5932 10.7451C53.4614 10.8086 53.3613 10.9038 53.2929 11.0308C53.2245 11.1577 53.1904 11.3188 53.1904 11.5142H50.7221C50.7221 11.1479 50.8027 10.8086 50.9638 10.4961C51.1298 10.1787 51.3642 9.90283 51.6669 9.66846C51.9745 9.43408 52.3408 9.25342 52.7656 9.12646C53.1952 8.99463 53.6738 8.92871 54.2011 8.92871C54.831 8.92871 55.3925 9.03369 55.8857 9.24365C56.3837 9.45361 56.7768 9.76855 57.0649 10.1885C57.353 10.6035 57.497 11.126 57.497 11.7559V15.0005C57.497 15.5181 57.5263 15.9111 57.5849 16.1797C57.6435 16.4434 57.7265 16.6753 57.8339 16.8755V17H55.3583C55.2411 16.7559 55.1533 16.458 55.0947 16.1064C55.0409 15.75 55.0141 15.3838 55.0141 15.0078ZM55.3144 12.1587L55.329 13.4771H54.2377C54.0082 13.4771 53.8129 13.5088 53.6518 13.5723C53.4955 13.6357 53.3686 13.7236 53.2709 13.8359C53.1782 13.9434 53.1098 14.0654 53.0658 14.2021C53.0268 14.3389 53.0073 14.4829 53.0073 14.6343C53.0073 14.7808 53.0414 14.9126 53.1098 15.0298C53.183 15.1421 53.2807 15.23 53.4028 15.2935C53.5248 15.3569 53.6616 15.3887 53.8129 15.3887C54.0864 15.3887 54.3183 15.3374 54.5087 15.2349C54.704 15.1274 54.853 14.998 54.9555 14.8467C55.058 14.6953 55.1093 14.5537 55.1093 14.4219L55.6513 15.4326C55.5536 15.6279 55.4413 15.8257 55.3144 16.0259C55.1923 16.2261 55.0385 16.4116 54.853 16.5825C54.6723 16.7485 54.4501 16.8853 54.1865 16.9927C53.9228 17.0952 53.603 17.1465 53.227 17.1465C52.7387 17.1465 52.2895 17.0464 51.8793 16.8462C51.4741 16.646 51.1493 16.3677 50.9052 16.0112C50.6611 15.6499 50.539 15.2349 50.539 14.7661C50.539 14.356 50.6122 13.9897 50.7587 13.6675C50.9101 13.3452 51.1371 13.0718 51.4399 12.8472C51.7426 12.6226 52.1283 12.4517 52.5971 12.3345C53.0658 12.2173 53.6176 12.1587 54.2524 12.1587H55.3144ZM61.2909 10.7671V17H58.8227V9.0752H61.1371L61.2909 10.7671ZM60.998 12.7666L60.4194 12.7812C60.4194 12.1758 60.4926 11.6362 60.6391 11.1626C60.7856 10.6841 60.9931 10.2788 61.2617 9.94678C61.5302 9.61475 61.85 9.36328 62.2211 9.19238C62.5971 9.0166 63.0146 8.92871 63.4736 8.92871C63.8398 8.92871 64.1742 8.98242 64.477 9.08984C64.7846 9.19727 65.0483 9.37061 65.268 9.60986C65.4926 9.84912 65.6635 10.1665 65.7807 10.562C65.9028 10.9526 65.9638 11.436 65.9638 12.0122V17H63.4809V12.0049C63.4809 11.6875 63.4369 11.4458 63.3491 11.2798C63.2612 11.1089 63.1342 10.9917 62.9682 10.9282C62.8022 10.8647 62.5995 10.833 62.3603 10.833C62.1064 10.833 61.8915 10.8818 61.7158 10.9795C61.54 11.0771 61.3984 11.2139 61.2909 11.3896C61.1884 11.5605 61.1127 11.7632 61.0639 11.9976C61.02 12.2319 60.998 12.4883 60.998 12.7666ZM69.7651 16.0698L71.8158 9.0752H74.4672L71.2812 18.1792C71.2128 18.3794 71.1225 18.5942 71.0102 18.8237C70.8979 19.0581 70.7441 19.2803 70.5488 19.4902C70.3534 19.7002 70.102 19.8711 69.7944 20.0029C69.4916 20.1348 69.1157 20.2007 68.6664 20.2007C68.4272 20.2007 68.2514 20.1885 68.1391 20.1641C68.0317 20.1445 67.8657 20.1079 67.641 20.0542V18.2891C67.7045 18.2891 67.7582 18.2891 67.8022 18.2891C67.851 18.2891 67.9047 18.2891 67.9633 18.2891C68.227 18.2891 68.4369 18.2622 68.5932 18.2085C68.7543 18.1548 68.8764 18.0767 68.9594 17.9741C69.0473 17.8716 69.1157 17.7471 69.1645 17.6006L69.7651 16.0698ZM69.245 9.0752L70.8051 14.6196L71.0761 17.2344H69.4208L66.601 9.0752H69.245Z" fill="white"/>
</svg>
