<svg width="504" height="336" viewBox="0 0 504 336" fill="none" xmlns="http://www.w3.org/2000/svg">
<mask id="mask0_728_11174" style="mask-type:luminance" maskUnits="userSpaceOnUse" x="360" y="137" width="144" height="145">
<path d="M408.954 232.139C396.5 219.451 396.69 199.068 409.379 186.614C422.068 174.159 442.45 174.35 454.904 187.039C467.359 199.727 467.169 220.11 454.48 232.563C441.791 245.017 421.409 244.827 408.954 232.139ZM484.941 241.453C487.943 236.468 490.177 231.145 491.648 225.661L503.517 223.386L503.64 210.258L503.762 197.128L491.937 194.633C490.568 189.122 488.435 183.759 485.527 178.718L492.306 168.725L483.108 159.355L473.912 149.984L463.794 156.577C458.808 153.575 453.486 151.342 448.002 149.871L445.727 138.001L432.598 137.878L419.469 137.756L416.974 149.581C411.462 150.95 406.101 153.084 401.059 155.992L391.065 149.212L381.695 158.409L372.326 167.607L378.918 177.725C375.915 182.711 373.682 188.031 372.212 193.517L360.341 195.792L360.219 208.921L360.097 222.049L371.923 224.544C373.29 230.055 375.425 235.418 378.333 240.46L371.553 250.452L380.749 259.823L389.947 269.194L400.065 262.601C405.052 265.602 410.373 267.836 415.858 269.307L418.132 281.177L431.262 281.299L444.39 281.422L446.885 269.595C452.397 268.228 457.759 266.094 462.8 263.186L472.793 269.966L482.164 260.769L491.534 251.572L484.941 241.453Z" fill="white"/>
</mask>
<g mask="url(#mask0_728_11174)">
<path d="M408.954 232.139C396.5 219.451 396.69 199.068 409.379 186.614C422.068 174.159 442.45 174.35 454.904 187.039C467.359 199.727 467.169 220.11 454.48 232.563C441.791 245.017 421.409 244.827 408.954 232.139ZM484.941 241.453C487.943 236.468 490.177 231.145 491.648 225.661L503.517 223.386L503.64 210.258L503.762 197.128L491.937 194.633C490.568 189.122 488.435 183.759 485.527 178.718L492.306 168.725L483.108 159.355L473.912 149.984L463.794 156.577C458.808 153.575 453.486 151.342 448.002 149.871L445.727 138.001L432.598 137.878L419.469 137.756L416.974 149.581C411.462 150.95 406.101 153.084 401.059 155.992L391.065 149.212L381.695 158.409L372.326 167.607L378.918 177.725C375.915 182.711 373.682 188.031 372.212 193.517L360.341 195.792L360.219 208.921L360.097 222.049L371.923 224.544C373.29 230.055 375.425 235.418 378.333 240.46L371.553 250.452L380.749 259.823L389.947 269.194L400.065 262.601C405.052 265.602 410.373 267.836 415.858 269.307L418.132 281.177L431.262 281.299L444.39 281.422L446.885 269.595C452.397 268.228 457.759 266.094 462.8 263.186L472.793 269.966L482.164 260.769L491.534 251.572L484.941 241.453Z" fill="url(#paint0_linear_728_11174)"/>
</g>
<mask id="mask1_728_11174" style="mask-type:luminance" maskUnits="userSpaceOnUse" x="77" y="61" width="109" height="110">
<path d="M115.997 134.325C105.777 125.851 104.363 110.696 112.838 100.477C121.313 90.257 136.467 88.8426 146.686 97.3178C156.907 105.792 158.32 120.947 149.846 131.166C141.371 141.385 126.217 142.8 115.997 134.325ZM173.152 135.445C175.001 131.512 176.253 127.388 176.927 123.202L185.571 120.607L184.66 110.846L183.749 101.084L174.775 100.133C173.337 96.1426 171.343 92.3228 168.798 88.7999L173.072 80.8597L165.525 74.6011L157.978 68.3424L150.966 74.0121C147.032 72.1622 142.909 70.9097 138.723 70.236L136.128 61.5924L126.366 62.5034L116.604 63.4144L115.653 72.3892C111.663 73.826 107.843 75.8201 104.321 78.365L96.3806 74.0921L90.121 81.6386L83.8633 89.1851L89.532 96.1975C87.683 100.131 86.4306 104.254 85.7569 108.441L77.1133 111.036L78.0233 120.798L78.9352 130.56L87.9091 131.511C89.3468 135.5 91.3409 139.32 93.8859 142.842L89.612 150.783L97.1594 157.042L104.706 163.3L111.718 157.631C115.652 159.48 119.775 160.733 123.961 161.407L126.557 170.051L136.318 169.14L146.08 168.229L147.031 159.254C151.021 157.817 154.84 155.823 158.363 153.277L166.303 157.551L172.562 150.005L178.821 142.457L173.152 135.445Z" fill="white"/>
</mask>
<g mask="url(#mask1_728_11174)">
<path d="M115.997 134.325C105.777 125.851 104.363 110.696 112.838 100.477C121.313 90.257 136.467 88.8426 146.686 97.3178C156.907 105.792 158.32 120.947 149.846 131.166C141.371 141.385 126.217 142.8 115.997 134.325ZM173.152 135.445C175.001 131.512 176.253 127.388 176.927 123.202L185.571 120.607L184.66 110.846L183.749 101.084L174.775 100.133C173.337 96.1426 171.343 92.3228 168.798 88.7999L173.072 80.8597L165.525 74.6011L157.978 68.3424L150.966 74.0121C147.032 72.1622 142.909 70.9097 138.723 70.236L136.128 61.5924L126.366 62.5034L116.604 63.4144L115.653 72.3892C111.663 73.826 107.843 75.8201 104.321 78.365L96.3806 74.0921L90.121 81.6386L83.8633 89.1851L89.532 96.1975C87.683 100.131 86.4306 104.254 85.7569 108.441L77.1133 111.036L78.0233 120.798L78.9352 130.56L87.9091 131.511C89.3468 135.5 91.3409 139.32 93.8859 142.842L89.612 150.783L97.1594 157.042L104.706 163.3L111.718 157.631C115.652 159.48 119.775 160.733 123.961 161.407L126.557 170.051L136.318 169.14L146.08 168.229L147.031 159.254C151.021 157.817 154.84 155.823 158.363 153.277L166.303 157.551L172.562 150.005L178.821 142.457L173.152 135.445Z" fill="url(#paint1_linear_728_11174)"/>
</g>
<path d="M462.832 332.887H462.01V274.389C462.01 261.372 451.421 250.783 438.404 250.783H378.218C364.747 250.783 353.789 239.825 353.789 226.355V117.01C353.789 103.994 343.199 93.4059 330.184 93.4059H176.718V92.5824H330.184C343.654 92.5824 354.612 103.541 354.612 117.01V226.355C354.612 239.371 365.201 249.961 378.218 249.961H438.404C451.875 249.961 462.832 260.919 462.832 274.389V332.887Z" fill="#64A4FF"/>
<path d="M216.054 55.531C216.054 55.531 225.342 92.5172 203.041 102.628C180.74 112.738 185.012 94.2257 185.012 94.2257C185.012 94.2257 175.865 91.6844 200.759 77.5713C212.491 70.9199 216.054 55.531 216.054 55.531Z" fill="#BBD070"/>
<path d="M274.457 58.7575C274.457 58.7575 279.029 90.9971 236.824 104.933C194.618 118.869 188.608 136.547 188.608 136.547C188.608 136.547 187.346 65.0906 274.457 58.7575Z" fill="#97A43C"/>
<path d="M188.419 123.417C175.905 118.641 205.651 93.0281 228.512 93.7195C251.373 94.4118 266.865 102.872 282.178 99.2971C282.178 99.2971 250.045 146.939 188.419 123.417Z" fill="#48753A"/>
<path d="M128.941 185.903C129.073 176.806 141.187 159.883 141.187 159.883C141.187 159.883 141.748 159.645 141.756 159.669C141.763 159.678 142.38 159.583 142.38 159.591C142.393 159.591 144.263 157.808 144.275 157.808C144.72 159.426 148.733 182.281 149.717 195.585C138.339 193.35 128.875 190.242 128.941 185.903ZM230.466 144.817C231.186 135.094 231.688 126 231.972 117.521C229.626 116.277 226.806 114.825 224.55 113.754C217.564 110.428 207.833 105.95 201.588 103.085C197.933 101.405 194.352 100.178 194.352 100.178C194.352 100.178 169.394 97.7862 167.368 97.9137C166.729 97.9509 163.61 99.0378 159.518 100.598C150.668 103.956 133.605 110.795 130.888 112.746C126.904 115.598 112.647 185.48 112.269 190.226C111.899 194.835 131.658 201.143 149.956 205.976C149.943 213.06 149.799 222.985 149.638 232.045C149.614 233.593 149.585 235.112 149.556 236.586H229.621C229.514 235.03 229.42 233.494 229.342 232.045C229.333 231.851 229.321 231.663 229.313 231.473C229.008 225.336 227.815 214.345 228.119 203.641C228.119 203.641 227.926 192.358 229.045 187.501C229.169 166.054 230.466 144.817 230.466 144.817Z" fill="#DBD8E3"/>
<path d="M231.946 232.045C231.42 228.254 230.922 224.466 230.472 220.758C230.472 220.737 230.465 220.725 230.465 220.704C230.32 219.469 230.172 218.251 230.032 217.037C230.024 216.978 230.02 216.913 230.012 216.843C229.426 211.736 228.942 206.835 228.592 202.349C228.328 198.911 228.567 195.553 229.039 192.268C230.431 169.326 231.124 145.138 231.124 145.138C231.856 135.239 232.276 125.985 232.556 117.361C232.556 117.361 201.217 102.55 198.376 101.701C198.376 101.701 204.321 115.661 208.779 146.859C210.491 158.842 213.665 179.013 215.97 199.6V199.603C217.217 210.714 219.555 222.03 221.334 232.045C221.605 233.593 221.865 235.108 222.103 236.586H232.593C232.37 235.076 232.157 233.561 231.946 232.045Z" fill="#323657"/>
<path d="M142.068 177.639C141.793 167.2 141.841 159.916 141.841 159.916C142.875 163.493 144.303 173.713 145.562 183.873C141.328 181.741 142.122 179.748 142.068 177.639ZM179.771 195.193C181.006 183.593 182.118 172.017 181.582 165.675C177.259 114.68 165.03 101.181 163.255 99.205C161.885 99.728 156.665 101.688 155.137 102.292C146.773 105.59 129.723 111.633 127.426 113.284C123.441 116.137 107.732 189.398 107.259 194.135C106.941 197.338 127.442 204.031 148.358 210.005C148.164 215.738 148.707 223.827 146.801 232.274C146.468 233.772 145.975 234.718 145.897 236.699L175.053 236.585C175.23 235.078 175.415 233.567 175.601 232.044C176.156 227.487 176.737 222.82 177.313 217.859C186.057 220.122 192.001 221.58 192.001 221.58C192.001 221.58 200.214 207.695 202.597 202.073C203.004 201.113 192.433 198.573 179.771 195.193Z" fill="#323657"/>
<path d="M166.059 98.7139C166.059 98.7139 169.233 92.7157 168.355 75.6863C168.113 70.9686 193.137 86.8749 193.137 86.8749C193.137 86.8749 193.05 88.5005 192.996 90.6946C192.968 91.6084 192.951 92.6087 192.951 93.6379C192.951 93.9217 192.955 94.2055 192.955 94.4902C192.96 94.9555 192.964 95.4161 192.972 95.8776C192.984 96.4499 193.005 97.0091 193.033 97.5488C193.062 98.1621 193.103 98.7418 193.162 99.2731C193.264 100.302 193.869 102.118 194.088 102.616C195.236 105.263 175.427 105.415 166.059 98.7139Z" fill="#EEA987"/>
<path d="M187.039 109.546L191.65 115.742C191.65 115.742 188.948 119.36 184.149 116.688L187.039 109.546Z" fill="#E8734D"/>
<path d="M190.416 115.993C190.416 115.993 207.312 157.261 203.707 209.68L198.378 219.352L192.369 211.115C192.369 211.115 191.399 141.497 186.604 115.828L190.416 115.993Z" fill="#E8734D"/>
<path d="M191.976 103.769L187.039 109.547C187.039 109.547 179.113 108.012 176.787 103.872C174.46 99.7318 191.976 103.769 191.976 103.769Z" fill="#EEA987"/>
<path d="M193.108 98.7113C193.108 98.7113 192.535 103.115 187.038 109.544L193.038 117.605L196.286 100.882L193.108 98.7113Z" fill="#C4C1CC"/>
<path d="M167.567 93.4153C167.567 93.4153 179.025 106.377 187.039 109.545L183.312 118.762L165.023 98.5881L167.567 93.4153Z" fill="#C4C1CC"/>
<path d="M285.367 210.676C285.367 210.676 270.157 195.924 260.181 193.471C255.569 192.336 249.495 185.97 243.723 178.485C241.821 176.021 239.954 173.435 238.179 170.875C238.174 170.87 238.174 170.865 238.174 170.865C231.092 160.639 225.543 150.839 225.543 150.839C225.543 150.839 204.61 126.309 221.408 115.373C221.408 115.373 228.606 115.218 232.556 117.363C236.615 119.567 245.276 137.641 246.744 140.842C248.212 144.039 264.12 173.768 265.184 174.436C266.251 175.103 268.025 177.547 274.39 180.975C282.182 185.17 294.423 197.449 294.423 197.449L285.367 210.676Z" fill="#323657"/>
<path d="M212.356 227.746C212.356 227.746 210.231 227.66 209.321 227.169C209.321 227.169 207.731 226.15 206.558 225.494C206.185 225.286 205.855 225.114 205.63 225.025C204.692 224.653 202.522 224.117 200.522 222.591C198.521 221.067 192.001 214.966 192.001 214.966L196.215 208.488L198.161 202.073C198.161 202.073 213.363 203.585 215.39 204.79C215.588 204.908 215.779 205.033 215.949 205.163C217.567 206.35 218.272 207.914 219.051 208.633C219.335 208.899 221.982 211.734 221.834 212.883C221.631 214.479 220.842 215.502 219.852 215.987C219.852 215.987 219.316 219.093 217.71 220.482C217.71 220.482 217.307 223.365 214.818 224.523C214.818 224.523 214.082 227.401 212.356 227.746Z" fill="#EFAA88"/>
<path d="M188.15 31.75C188.15 31.75 215.627 25.1266 209.84 59.914C204.051 94.7024 197.461 97.5255 180.723 90.5904C163.985 83.6543 165.148 61.4029 164.151 50.5149C163.154 39.6278 179.361 32.2581 188.15 31.75Z" fill="#EEA886"/>
<path d="M173.714 55.8396C173.307 52.7838 167.24 51.7509 166.82 56.3467C166.4 60.9435 169.755 68.9506 172.039 68.1243C174.324 67.298 174.278 60.053 173.714 55.8396Z" fill="#EEA886"/>
<path d="M165.757 68.2969C165.757 68.2969 166.307 57.3549 170.294 56.9548C174.283 56.5547 174.961 60.9486 174.961 60.9486L179.005 61.6511C179.005 61.6511 177.589 52.0882 181.551 50.3556C185.514 48.6229 207.46 55.251 210.619 52.3915C213.778 49.533 211.987 30.1196 206.16 27.5448C200.334 24.9701 184.262 19.2447 172.667 27.3439C172.667 27.3439 163.523 26.4366 162.277 33.824C161.031 41.2104 163.194 62.8552 165.757 68.2969Z" fill="#16202E"/>
<path d="M203.346 202.077L192.001 221.582C192.001 221.582 161.946 213.837 154.934 211.859L170.964 192.78C170.964 192.78 194.599 198.18 203.346 202.077Z" fill="#323657"/>
<path d="M193.034 97.5469H193.03C178.293 96.0441 172.58 84.6992 172.58 84.6992C181.849 93.8871 192.952 93.6359 192.952 93.6359C192.952 93.9197 192.956 94.2035 192.956 94.4883C192.96 94.9535 192.964 95.4141 192.972 95.8757C192.984 96.4479 193.006 97.0072 193.034 97.5469Z" fill="#A77860"/>
<path d="M394.115 276.298L394.113 276.299C393.81 276.409 393.486 276.476 393.149 276.495C393.074 276.499 392.999 276.5 392.923 276.5C392.605 276.495 392.298 276.445 392.007 276.357C391.604 276.237 391.233 276.046 390.909 275.795C390.791 275.705 390.68 275.604 390.575 275.498C389.966 274.881 389.593 274.03 389.606 273.095C389.609 272.851 389.64 272.615 389.693 272.386C389.718 272.275 389.746 272.166 389.782 272.06C390.237 270.716 391.515 269.757 393.01 269.777C394.084 269.79 395.035 270.307 395.639 271.098C396.081 271.677 396.338 272.399 396.329 273.181C396.31 274.619 395.392 275.834 394.115 276.298ZM396.55 270.44C395.743 269.371 394.468 268.672 393.025 268.655C391.032 268.628 389.325 269.908 388.719 271.7C388.572 272.134 388.49 272.597 388.484 273.08C388.476 273.643 388.575 274.182 388.757 274.68C389.049 275.479 389.561 276.171 390.221 276.683C390.878 277.192 391.679 277.523 392.556 277.602C392.672 277.612 392.79 277.62 392.909 277.621C392.984 277.622 393.058 277.619 393.132 277.616C393.157 277.615 393.184 277.616 393.21 277.615C393.659 277.591 394.092 277.5 394.499 277.353C396.201 276.735 397.425 275.114 397.451 273.195C397.464 272.162 397.126 271.207 396.55 270.44Z" fill="#4DA8F2"/>
<path d="M224.672 186.055C241.753 203.638 264.321 225.781 264.321 225.781L273.143 209.034C273.143 209.034 253.098 185.535 239.509 169.854C235.344 171.897 227.697 176.769 224.672 186.055Z" fill="#EEA886"/>
<path d="M214.122 209.695C214.122 209.695 218.72 211.918 219.921 212.907C221.122 213.898 225.987 217.54 227.167 218.397C228.345 219.254 225.387 221.691 216.689 217.923C207.989 214.154 214.122 209.695 214.122 209.695Z" fill="#EEA886"/>
<path d="M214.524 159.371L206.509 233.891H312.006L320.022 159.371H214.524Z" fill="#FFC955"/>
<path d="M212.62 229.629H317.289L325.216 155.933H220.546L212.62 229.629ZM318.028 230.453H211.703L219.806 155.11H326.132L318.028 230.453Z" fill="#FFC955"/>
<path d="M198.113 227.186H215.734V233.891H198.113V227.186Z" fill="#FFC955"/>
<mask id="mask2_728_11174" style="mask-type:luminance" maskUnits="userSpaceOnUse" x="28" y="233" width="288" height="6">
<path d="M28.6035 233.741V238.281H315.316V233.741H28.6035Z" fill="white"/>
</mask>
<g mask="url(#mask2_728_11174)">
<path d="M33.0144 233.741V238.281H28.6035V233.741H33.0144Z" fill="#96CBFF"/>
<path d="M37.4255 233.741V238.281H33.0146V233.741H37.4255Z" fill="#95CAFF"/>
<path d="M41.8357 233.741V238.281H37.4248V233.741H41.8357Z" fill="#94C9FF"/>
<path d="M46.2469 233.741V238.281H41.8359V233.741H46.2469Z" fill="#93C9FF"/>
<path d="M50.6577 233.741V238.281H46.2471V233.741H50.6577Z" fill="#92C8FF"/>
<path d="M55.0689 233.741V238.281H50.6582V233.741H55.0689Z" fill="#91C7FF"/>
<path d="M59.4799 233.741V238.281H55.0684V233.741H59.4799Z" fill="#90C6FF"/>
<path d="M63.8901 233.741V238.281H59.4795V233.741H63.8901Z" fill="#8FC6FF"/>
<path d="M68.3022 233.741V238.281H63.8906V233.741H68.3022Z" fill="#8EC5FF"/>
<path d="M72.7124 233.741V238.281H68.3018V233.741H72.7124Z" fill="#8DC4FF"/>
<path d="M77.1245 233.741V238.281H72.7129V233.741H77.1245Z" fill="#8CC3FF"/>
<path d="M81.5347 233.741V238.281H77.124V233.741H81.5347Z" fill="#8BC2FF"/>
<path d="M85.9458 233.741V238.281H81.5352V233.741H85.9458Z" fill="#8AC2FF"/>
<path d="M90.3569 233.741V238.281H85.9463V233.741H90.3569Z" fill="#89C1FF"/>
<path d="M94.7671 233.741V238.281H90.3564V233.741H94.7671Z" fill="#88C0FF"/>
<path d="M99.1782 233.741V238.281H94.7666V233.741H99.1782Z" fill="#87BFFF"/>
<path d="M103.589 233.741V238.281H99.1787V233.741H103.589Z" fill="#86BFFF"/>
<path d="M108 233.741V238.281H103.59V233.741H108Z" fill="#85BEFF"/>
<path d="M112.411 233.741V238.281H108V233.741H112.411Z" fill="#84BDFF"/>
<path d="M116.824 233.741V238.281H112.411V233.741H116.824Z" fill="#83BCFF"/>
<path d="M121.234 233.741V238.281H116.823V233.741H121.234Z" fill="#82BBFF"/>
<path d="M125.644 233.741V238.281H121.233V233.741H125.644Z" fill="#81BBFF"/>
<path d="M130.055 233.741V238.281H125.645V233.741H130.055Z" fill="#80BAFF"/>
<path d="M134.466 233.741V238.281H130.055V233.741H134.466Z" fill="#7FB9FF"/>
<path d="M138.877 233.741V238.281H134.467V233.741H138.877Z" fill="#7EB8FF"/>
<path d="M143.288 233.741V238.281H138.877V233.741H143.288Z" fill="#7DB7FF"/>
<path d="M147.699 233.741V238.281H143.288V233.741H147.699Z" fill="#7CB7FF"/>
<path d="M152.11 233.741V238.281H147.699V233.741H152.11Z" fill="#7BB6FF"/>
<path d="M156.521 233.741V238.281H152.109V233.741H156.521Z" fill="#7AB5FF"/>
<path d="M160.931 233.741V238.281H156.521V233.741H160.931Z" fill="#79B4FF"/>
<path d="M165.343 233.741V238.281H160.932V233.741H165.343Z" fill="#78B4FF"/>
<path d="M169.753 233.741V238.281H165.343V233.741H169.753Z" fill="#77B3FF"/>
<path d="M174.165 233.741V238.281H169.754V233.741H174.165Z" fill="#76B2FF"/>
<path d="M178.576 233.741V238.281H174.165V233.741H178.576Z" fill="#74B1FF"/>
<path d="M182.987 233.741V238.281H178.576V233.741H182.987Z" fill="#73B0FF"/>
<path d="M187.397 233.741V238.281H182.986V233.741H187.397Z" fill="#72B0FF"/>
<path d="M191.809 233.741V238.281H187.397V233.741H191.809Z" fill="#71AFFF"/>
<path d="M196.219 233.741V238.281H191.809V233.741H196.219Z" fill="#70AEFF"/>
<path d="M200.63 233.741V238.281H196.22V233.741H200.63Z" fill="#6FADFF"/>
<path d="M205.041 233.741V238.281H200.63V233.741H205.041Z" fill="#6EADFF"/>
<path d="M209.453 233.741V238.281H205.041V233.741H209.453Z" fill="#6DACFF"/>
<path d="M213.864 233.741V238.281H209.452V233.741H213.864Z" fill="#6CABFF"/>
<path d="M218.275 233.741V238.281H213.864V233.741H218.275Z" fill="#6BAAFF"/>
<path d="M222.685 233.741V238.281H218.274V233.741H222.685Z" fill="#6AA9FF"/>
<path d="M227.096 233.741V238.281H222.686V233.741H227.096Z" fill="#69A9FF"/>
<path d="M231.507 233.741V238.281H227.096V233.741H231.507Z" fill="#68A8FF"/>
<path d="M235.918 233.741V238.281H231.508V233.741H235.918Z" fill="#67A7FF"/>
<path d="M240.329 233.741V238.281H235.918V233.741H240.329Z" fill="#66A6FF"/>
<path d="M244.74 233.741V238.281H240.329V233.741H244.74Z" fill="#65A6FF"/>
<path d="M249.151 233.741V238.281H244.739V233.741H249.151Z" fill="#64A5FF"/>
<path d="M253.562 233.741V238.281H249.151V233.741H253.562Z" fill="#63A4FF"/>
<path d="M257.973 233.741V238.281H253.562V233.741H257.973Z" fill="#62A3FF"/>
<path d="M262.384 233.741V238.281H257.974V233.741H262.384Z" fill="#61A2FF"/>
<path d="M266.795 233.741V238.281H262.384V233.741H266.795Z" fill="#60A2FF"/>
<path d="M271.207 233.741V238.281H266.796V233.741H271.207Z" fill="#5FA1FF"/>
<path d="M275.617 233.741V238.281H271.206V233.741H275.617Z" fill="#5EA0FF"/>
<path d="M280.028 233.741V238.281H275.617V233.741H280.028Z" fill="#5D9FFF"/>
<path d="M284.438 233.741V238.281H280.027V233.741H284.438Z" fill="#5C9EFF"/>
<path d="M288.85 233.741V238.281H284.438V233.741H288.85Z" fill="#5B9EFF"/>
<path d="M293.26 233.741V238.281H288.85V233.741H293.26Z" fill="#5A9DFF"/>
<path d="M297.671 233.741V238.281H293.261V233.741H297.671Z" fill="#599CFF"/>
<path d="M302.082 233.741V238.281H297.671V233.741H302.082Z" fill="#589BFF"/>
<path d="M306.495 233.741V238.281H302.082V233.741H306.495Z" fill="#579BFF"/>
<path d="M310.905 233.741V238.281H306.494V233.741H310.905Z" fill="#569AFF"/>
<path d="M315.315 233.741V238.281H310.904V233.741H315.315Z" fill="#5599FF"/>
</g>
<path d="M490.523 335.156H242.111V330.615H490.523V335.156Z" fill="#FFC955"/>
<path d="M257.407 195.434C256.56 199.582 258.495 203.482 261.73 204.142C264.966 204.804 268.276 201.976 269.123 197.827C269.972 193.678 268.037 189.778 264.801 189.117C261.565 188.456 258.256 191.283 257.407 195.434Z" fill="#CFA345"/>
<path d="M458.611 165.894C458.611 165.894 461.044 170.02 462.073 170.694C463.466 171.609 462.593 172.534 461.931 172.534C461.269 172.535 457.885 172.777 457.14 171.931C456.394 171.086 456.025 168.55 455.332 167.888C454.639 167.224 453.922 164.589 455.67 163.948C457.213 163.382 458.611 165.894 458.611 165.894Z" fill="#6069A8"/>
<path d="M457.557 164.08C457.557 164.08 460.344 168.911 460.825 169.625C461.305 170.338 459.92 170.337 459.062 169.998C458.204 169.66 456.046 166.195 455.735 165.563C455.365 164.81 455.67 163.947 455.67 163.947L457.557 164.08Z" fill="#202338"/>
<path d="M454.733 166.68L455.377 171.634L455.718 171.648L455.612 168.085L454.733 166.68Z" fill="#6069A8"/>
<path d="M434.479 165.894C434.479 165.894 436.912 170.02 437.939 170.694C439.334 171.609 438.461 172.534 437.798 172.534C437.136 172.535 433.753 172.777 433.009 171.931C432.262 171.086 431.893 168.55 431.2 167.888C430.506 167.224 429.767 164.52 431.537 163.948C433.09 163.446 434.479 165.894 434.479 165.894Z" fill="#6069A8"/>
<path d="M433.571 164.09C433.571 164.09 436.212 168.911 436.692 169.625C437.172 170.338 435.787 170.337 434.93 169.998C434.071 169.66 431.913 166.195 431.603 165.563C431.233 164.81 431.536 163.947 431.536 163.947L433.571 164.09Z" fill="#202338"/>
<path d="M430.603 166.68L431.246 171.634L431.586 171.648L431.48 168.085L430.603 166.68Z" fill="#6069A8"/>
<path d="M423.682 128.351L445.703 138.386C445.703 138.386 448.162 139.185 448.437 141.914C449.296 150.433 455.669 163.948 455.669 163.948C457.713 164.948 457.556 164.08 457.556 164.08C456.268 159.944 454.699 142.898 454.139 136.044C454.022 134.592 453.948 133.597 453.933 133.28C453.922 133.064 453.684 132.78 453.277 132.45C450.255 130 437.821 124.927 437.821 124.927C428.485 124.69 423.682 128.351 423.682 128.351Z" fill="#202338"/>
<path d="M419.531 132.663C420.213 138.616 428.709 137.934 428.709 137.934H439.008C439.008 137.934 436.303 143.953 435.258 149.03C434.15 154.418 431.536 163.951 431.536 163.951C431.536 163.951 431.709 164.275 433.571 164.093C433.571 164.093 441.656 147.982 444.75 143.932C445.415 143.06 447.323 138.329 447.651 135.507C447.762 134.557 447.694 133.823 447.339 133.527C446.982 133.227 446.16 132.663 445.066 131.973C441.84 129.939 436.238 126.807 433.117 126.106C428.937 125.166 422.325 123.405 422.325 123.405C422.325 123.405 418.85 126.711 419.531 132.663Z" fill="#202338"/>
<path d="M426.54 86.8148C426.54 86.8148 424.998 83.8884 425.75 80.7721C426.501 77.6557 429.393 74.5506 433.626 75.9762C437.86 77.4026 441.283 80.692 438.745 84.4941C436.207 88.2971 441.041 90.0149 439.81 91.8247C438.577 93.6346 439.045 95.5236 439.566 95.9451C440.088 96.3657 441.77 97.8666 441.585 99.643C441.4 101.42 433.371 94.4655 433.371 94.4655C433.371 94.4655 428.998 85.6787 426.54 86.8148Z" fill="#464240"/>
<path d="M439.445 124.215C439.445 124.215 438.806 127.313 422.358 123.402C422.358 123.402 427.873 121.57 439.445 124.215Z" fill="#EB4747"/>
<path d="M422.172 124.272C421.918 124.759 421.663 125.245 421.408 125.732C427.421 125.907 433.433 126.082 439.445 126.258C438.494 123.073 438.802 118.761 438.968 115.487C439.172 111.49 441.38 108.709 441.145 104.666C442.334 104.858 442.54 104.895 443.731 105.077C441.91 99.886 441.285 97.315 435.626 95.3172C433.784 94.6667 432.573 94.5374 430.579 94.7021C424.024 95.2427 422.048 95.3199 418.829 101.259C423.868 102.061 423.039 103.87 424.567 108.883C425.312 111.328 426.09 114.056 425.69 116.634C425.297 119.173 422.172 121.957 422.172 124.272Z" fill="#5F8CC9"/>
<path d="M432.631 96.5735C429.948 96.0663 430.52 94.5747 430.52 94.5747C430.52 94.5747 430.643 93.7326 430.692 92.669C430.705 92.3964 430.712 92.1088 430.711 91.8176C430.71 91.3756 430.688 90.9234 430.637 90.4981C430.417 88.6985 435.506 89.7714 435.506 89.7714C435.506 89.7714 435.213 93.4153 435.915 94.5068C436.616 95.5992 435.314 97.0797 432.631 96.5735Z" fill="#EEA886"/>
<path d="M427.515 94.5663C427.515 94.5663 432.926 100.814 434.925 102.262C434.925 102.262 437.224 100.185 435.806 94.7013C435.806 94.7013 433.195 93.393 427.515 94.5663Z" fill="#EEA886"/>
<path d="M427.661 79.5278C427.661 79.5278 424.852 84.9416 427.639 90.0696C430.426 95.1977 435.901 87.8364 436.256 86.9729C436.61 86.1094 438.487 81.2241 434.753 79.74C431.018 78.2549 428.457 78.0585 427.661 79.5278Z" fill="#EEA886"/>
<path d="M428.596 81.4508C428.596 81.4508 426.662 83.9911 426.433 85.8688C426.433 85.8688 425.663 82.3199 427.84 78.9095C430.017 75.4992 435.553 78.7476 436.295 80.1099C437.036 81.4721 439.209 82.6725 435.559 88.5273C435.559 88.5273 428.993 83.9659 428.596 81.4508Z" fill="#464240"/>
<path d="M433.087 90.6106C433.087 90.6106 432.599 91.676 430.692 92.668C430.705 92.3953 430.713 92.1078 430.712 91.8165C430.712 91.8165 432.002 91.6602 433.087 90.6106Z" fill="#A77860"/>
<path d="M404.689 119.401C404.689 119.401 403.353 119.994 402.72 119.725C402.087 119.455 401.107 119.403 400.798 119.402C400.385 119.401 399.091 118.941 399.115 119.445C399.136 119.95 401.214 120.303 401.639 120.461C402.064 120.619 400.367 121.553 400.209 121.968C400.052 122.383 401.967 125.106 403.047 124.33C404.127 123.554 404.713 122.005 404.933 121.907C405.153 121.809 405.744 121.373 405.744 121.373L404.689 119.401Z" fill="#EEA886"/>
<path d="M400.413 121.724C400.413 121.724 397.281 124.321 397.232 124.672C397.184 125.023 397.347 125.186 397.652 124.956C397.956 124.726 400.758 122.535 400.758 122.535C400.758 122.535 397.619 126.242 397.514 126.518C397.453 126.678 397.753 127.013 397.928 126.905C398.104 126.797 401.442 123.307 401.442 123.307C401.442 123.307 398.518 126.774 398.502 127.033C398.488 127.26 398.84 127.505 399.076 127.263C399.313 127.021 402.222 123.963 402.222 123.963C402.222 123.963 400.265 126.624 400.386 126.859C400.46 127.003 400.708 127.302 401.189 126.599C401.671 125.896 402.995 124.362 402.995 124.362L400.413 121.724Z" fill="#EEA886"/>
<path d="M437.934 137.933H428.71C428.71 137.933 420.213 138.615 419.532 132.662C418.85 126.709 422.325 123.404 422.325 123.404C422.325 123.404 426.814 124.6 430.733 125.546C432.696 125.129 435.061 124.858 437.821 124.928C437.821 124.928 454.434 130.418 453.934 133.308C453.934 133.308 446.985 129.592 437.934 137.933Z" fill="#FFC955"/>
<path d="M431.929 127.625L449.515 127.368L440.636 131.875L431.929 127.625Z" fill="#5E5853"/>
<path d="M437.392 125.375C437.392 125.375 433.436 126.907 428.587 125.522L428.359 123.711L438.344 124.267L437.392 125.375Z" fill="#5F8CC9"/>
<path d="M440.636 131.875L431.929 128.503V127.625L441.324 131.015L440.636 131.875Z" fill="#91887F"/>
<path d="M437.332 126.215C437.284 126.865 437.941 127.333 438.54 127.078L439.562 126.642C439.869 126.511 440.047 126.188 439.994 125.858C439.569 123.198 438.657 112.844 439.989 111.067C440.483 110.41 440.79 109.835 440.964 109.332C441.844 111.601 442.938 114.524 443.374 116.097L451.682 127.149L454.467 127.855C450.992 119.48 448.199 115.042 448.199 115.042C447.656 113.582 446.096 109.162 444.716 105.226C443.844 102.741 443.043 100.449 442.612 99.2169C442.395 98.5935 441.965 98.0659 441.397 97.7272C440.11 96.9576 437.966 95.7461 436.022 94.8016C436.013 94.7979 436.006 94.7951 435.997 94.7904C435.936 94.7607 435.875 94.73 435.811 94.7011C435.809 94.7002 435.809 94.7002 435.809 94.7002C435.808 94.6993 435.807 94.6993 435.807 94.6993C439.505 100.294 438.062 116.091 437.333 126.193C437.333 126.2 437.332 126.208 437.332 126.215Z" fill="#EDDAD3"/>
<path d="M423.606 95.1793C422.422 95.3626 419.485 98.2128 417.926 101.091C416.145 104.375 414.334 108.114 412.976 109.345C410.479 111.607 403.491 119.602 403.158 119.408C403.031 119.334 405.075 121.796 405.334 121.911C405.465 121.968 416.822 112.127 417.913 110.628C418.947 109.206 421.713 103.24 422.541 103.372C422.541 103.372 422.541 103.373 422.543 103.375C422.543 103.376 422.543 103.377 422.543 103.377C422.607 103.513 423.613 105.695 424.566 108.883C424.582 108.936 424.598 108.989 424.614 109.042C425.271 111.266 425.21 113.681 424.855 116.393C424.586 118.442 423.057 121.789 422.135 123.42C422.024 123.615 422.052 123.987 422.172 124.271C422.172 124.271 422.172 124.271 422.172 124.272C422.244 124.441 422.348 124.579 422.475 124.625L425.81 125.86L426.593 126.151C427.157 126.36 427.749 126.25 428.191 125.929C428.553 125.667 428.816 125.261 428.879 124.771C429.621 119.068 430.559 113.241 431.306 111.046C434.587 101.415 430.024 94.1771 430.024 94.1771C430.024 94.1771 424.645 94.7913 423.606 95.1793Z" fill="#EDDAD3"/>
<path d="M440.636 131.875L445.866 117.594L462.729 117.87L457.744 131.03L440.636 131.875Z" fill="#6E6760"/>
<path d="M451.263 123.91C450.748 124.939 450.903 126.059 451.61 126.412C452.316 126.766 453.305 126.218 453.82 125.189C454.334 124.161 454.179 123.041 453.473 122.687C452.767 122.334 451.776 122.882 451.263 123.91Z" fill="#807066"/>
<path d="M433.487 84.9217C433.487 84.9217 434.567 86.6022 433.568 88.0529C432.57 89.5036 433.821 90.9282 434.036 92.4617C434.253 93.9952 429.871 98.0745 434.745 100.127C439.618 102.18 441.169 98.7873 439.926 96.9198C438.683 95.0532 437.8 93.5383 437.695 90.8751C437.589 88.2139 436.714 84.0638 433.487 84.9217Z" fill="#464240"/>
<path d="M409.668 77.9415H419.835V86.8633L418.283 85.3103H409.668V77.9415Z" fill="#FFCB55"/>
<path d="M352.597 191.028C352.597 191.028 330.438 212.114 341.217 228.533C351.997 244.952 357.041 230.57 357.041 230.57C357.041 230.57 364.332 232.771 353.511 212.528C348.41 202.986 352.597 191.028 352.597 191.028Z" fill="#BBD070"/>
<path d="M311.624 168.165C311.624 168.165 294.697 188.057 317.328 215.605C339.96 243.153 336.451 257.715 336.451 257.715C336.451 257.715 367.955 209.82 311.624 168.165Z" fill="#97A43C"/>
<path d="M341.555 249.398C352.086 251.527 343.565 220.905 327.772 211.569C311.979 202.232 297.85 201.322 289.004 192.331C289.004 192.331 289.693 238.91 341.555 249.398Z" fill="#48753A"/>
<path d="M272.727 262.832C272.727 262.832 273.21 261.637 273.289 261.455C273.368 261.276 273.833 260.982 274.395 260.69C274.959 260.4 275.85 260.258 275.945 260.312C276.041 260.364 276.162 260.373 276.286 260.626C276.409 260.877 276.373 261.158 276.373 261.158C276.373 261.158 276.672 261.398 276.604 261.741C276.604 261.741 276.874 261.979 276.732 262.355C276.732 262.355 276.989 262.595 276.863 262.859C276.863 262.859 276.397 263.154 276.256 263.314C276.116 263.473 275.106 264.022 274.056 264.398C274.056 264.398 272.944 264.42 272.727 262.832Z" fill="#EEA886"/>
<path d="M274.439 262.18C274.439 262.18 274.451 262.827 274.361 263.01C274.274 263.194 275.675 263.602 275.675 263.602C275.675 263.602 275.227 262.185 274.439 262.18Z" fill="#CF8C6C"/>
<path d="M248.275 325.494L248.888 323.587L251.478 324.006L251.091 325.727L248.275 325.494Z" fill="#3B3F66"/>
<path d="M269.51 325.269L269.655 326.316L272.49 325.844L272.339 324.278L269.51 325.269Z" fill="#555C94"/>
<path d="M263.368 295.897C263.368 295.897 262.951 298.173 262.466 300.699C262.381 301.139 262.296 301.587 262.209 302.032C261.735 304.466 261.256 306.807 261.079 307.292C260.677 308.394 251.993 324.305 251.993 324.305C251.993 324.305 248.443 324.034 248.31 323.578C248.31 323.578 255.59 306.301 255.548 305.671C255.508 305.042 256.438 287.33 256.438 287.33C256.438 287.33 263.176 294.874 263.368 295.897Z" fill="#354C70"/>
<path d="M267.335 286.316C267.335 286.316 270.733 303.715 271.023 305.047C271.314 306.378 272.601 324.202 272.601 324.202C272.601 324.202 271.837 325.776 269.017 325.183C269.017 325.183 265.171 306.034 264.847 305.392C263.589 302.902 257.416 290.838 256.818 289.116C256.219 287.394 256.395 285.385 256.395 285.385C256.395 285.385 260.982 282.807 267.335 286.316Z" fill="#354C70"/>
<path d="M265.907 263.783C265.907 263.783 267.398 267.497 267.772 267.389C268.147 267.278 272.429 262.249 272.429 262.249C272.429 262.249 274.389 264.695 274.126 264.975C273.761 265.366 268.702 273.775 268.006 273.623C267.31 273.471 264.201 268.331 264.201 268.331C264.201 268.331 264.025 264.455 265.907 263.783Z" fill="#DEB135"/>
<path d="M259.534 256.688C259.534 256.688 263.398 259.643 264.465 260.814C265.531 261.986 268.475 266.844 268.263 268.306C267.449 273.909 267.062 278.684 267.037 282.506C267.016 285.837 268.077 286.686 267.416 286.736C266.658 286.793 256.934 290.317 255.494 290.746C255.494 290.746 256.438 279.019 256.915 277.666C257.393 276.313 255.386 262.133 259.534 256.688Z" fill="#F2C344"/>
<path d="M284.423 251.088L285.289 255.455L286.157 259.824C286.157 259.824 281.195 258.271 275.565 259.39L275.182 257.463L274.797 255.524C280.428 254.406 284.423 251.088 284.423 251.088Z" fill="#D9D0C4"/>
<path d="M269.655 326.318C269.655 326.318 271.795 325.904 271.87 325.84C271.945 325.774 272.404 324.929 272.735 325.076C273.066 325.224 273.071 326.252 273.394 326.426C273.717 326.601 276.272 328.326 276.586 328.641C276.9 328.955 278.835 328.77 279.057 329.316C279.279 329.862 279.297 331.153 276.41 330.849C273.524 330.545 270.228 331.014 269.606 330.674C268.985 330.333 269.456 327.149 269.655 326.318Z" fill="#84BDFF"/>
<path d="M248.241 325.449C248.241 325.449 250.421 325.382 250.505 325.33C250.589 325.278 251.178 324.516 251.481 324.716C251.784 324.914 251.624 325.93 251.915 326.154C252.207 326.377 254.453 328.49 254.712 328.851C254.971 329.212 256.911 329.338 257.043 329.913C257.175 330.487 256.986 331.764 254.186 331.002C251.385 330.241 248.057 330.177 247.497 329.741C246.939 329.304 247.912 326.237 248.241 325.449Z" fill="#84BDFF"/>
<path d="M265.168 287.126C265.168 287.126 265.428 288.186 265.846 288.415C266.264 288.645 263.896 290.91 263.896 290.91C263.896 290.91 262.934 288.811 262.96 288.599C262.987 288.388 265.168 287.126 265.168 287.126Z" fill="#EEA987"/>
<path d="M257.818 261.269C257.818 261.269 255.045 274.462 254.817 275.813C254.602 277.091 262.948 289.297 262.948 289.297L265.723 287.651C265.723 287.651 258.989 275.404 258.999 274.846C259.008 274.287 262.231 263.652 262.231 263.652C262.231 263.652 263.578 261.336 261.189 260.211C258.799 259.087 257.818 261.269 257.818 261.269Z" fill="#FFD255"/>
<path d="M266.794 288.035C266.794 288.035 267.695 292.521 267.64 293.896C267.584 295.269 262.462 291.733 262.723 290.366L266.794 288.035Z" fill="#3C5780"/>
<path d="M259.534 256.687C259.534 256.687 266.573 264.376 266.139 263.524C264.593 260.485 263.515 259.972 263.537 259.405C263.554 258.971 263.723 257.707 263.752 257.284C263.807 256.478 263.867 255.823 263.867 255.823C263.867 255.823 260.372 250.914 260.526 252.587C260.68 254.26 259.534 256.687 259.534 256.687Z" fill="#EEA886"/>
<path d="M266.237 247.638C266.237 247.638 267.205 249.91 267.219 250.441C267.232 250.973 267.098 251.381 267.181 251.993C267.266 252.628 267.798 253.959 267.732 254.327C267.653 254.772 266.717 254.541 266.587 255.274C266.458 256.006 265.777 257.383 265.438 257.411C264.566 257.483 261.229 256.123 261.017 255.425C260.805 254.726 259.595 250.834 259.219 250.093C258.843 249.352 265.097 245.296 265.668 246.468C266.237 247.638 266.237 247.638 266.237 247.638Z" fill="#EEA886"/>
<path d="M257.732 249.324C257.291 247.397 259.506 247.159 259.506 247.159C259.506 247.159 260.949 245.479 264.401 245.679C267.853 245.878 267.326 250.384 267.326 250.384C267.326 250.384 264.938 250.026 263.899 250.29C263.899 250.29 263.772 252.214 263.885 252.69L262.583 252.574C262.583 252.574 262.728 250.867 262.103 250.786C261.478 250.705 261.268 254.401 260.104 255.215C260.104 255.215 260.092 254.954 259.947 254.698C259.714 254.292 259.353 253.611 259.042 252.813C258.534 251.697 257.958 250.311 257.732 249.324Z" fill="#16202E"/>
<path d="M262.97 251.196C262.97 251.196 262.486 249.893 261.341 250.738C260.508 251.354 261.365 253.554 262.175 253.543C262.986 253.533 263.314 252.335 262.97 251.196Z" fill="#EEA886"/>
<path d="M260.829 254.813C260.829 254.813 261 255.507 261.186 255.667C261.372 255.829 262.249 256.54 263.771 257.019L263.635 258.383C263.635 258.383 260.677 257.242 260.829 254.813Z" fill="#C48A6F"/>
<mask id="mask3_728_11174" style="mask-type:luminance" maskUnits="userSpaceOnUse" x="273" y="259" width="4" height="6">
<path d="M276.351 264.17L276.848 263.933L274.596 259.157L273.334 259.751L275.242 263.802C275.455 264.252 275.9 264.383 276.351 264.17Z" fill="white"/>
</mask>
<g mask="url(#mask3_728_11174)">
<path d="M273.387 259.161V264.387H273.334V259.161H273.387Z" fill="#96CBFF"/>
<path d="M273.442 259.161V264.387H273.387V259.161H273.442Z" fill="#95CAFF"/>
<path d="M273.496 259.161V264.387H273.442V259.161H273.496Z" fill="#94C9FF"/>
<path d="M273.55 259.161V264.387H273.496V259.161H273.55Z" fill="#93C9FF"/>
<path d="M273.604 259.161V264.387H273.55V259.161H273.604Z" fill="#92C8FF"/>
<path d="M273.658 259.161V264.387H273.604V259.161H273.658Z" fill="#91C7FF"/>
<path d="M273.712 259.161V264.387H273.659V259.161H273.712Z" fill="#90C6FF"/>
<path d="M273.767 259.161V264.387H273.712V259.161H273.767Z" fill="#8FC6FF"/>
<path d="M273.82 259.161V264.387H273.767V259.161H273.82Z" fill="#8EC5FF"/>
<path d="M273.874 259.161V264.387H273.819V259.161H273.874Z" fill="#8DC4FF"/>
<path d="M273.929 259.161V264.387H273.875V259.161H273.929Z" fill="#8CC3FF"/>
<path d="M273.983 259.161V264.387H273.929V259.161H273.983Z" fill="#8BC2FF"/>
<path d="M274.036 259.161V264.387H273.982V259.161H274.036Z" fill="#8AC2FF"/>
<path d="M274.091 259.161V264.387H274.037V259.161H274.091Z" fill="#89C1FF"/>
<path d="M274.145 259.161V264.387H274.091V259.161H274.145Z" fill="#88C0FF"/>
<path d="M274.199 259.161V264.387H274.145V259.161H274.199Z" fill="#87BFFF"/>
<path d="M274.252 259.161V264.387H274.199V259.161H274.252Z" fill="#86BFFF"/>
<path d="M274.306 259.161V264.387H274.252V259.161H274.306Z" fill="#85BEFF"/>
<path d="M274.361 259.161V264.387H274.307V259.161H274.361Z" fill="#84BDFF"/>
<path d="M274.415 259.161V264.387H274.36V259.161H274.415Z" fill="#83BCFF"/>
<path d="M274.469 259.161V264.387H274.415V259.161H274.469Z" fill="#82BBFF"/>
<path d="M274.522 259.161V264.387H274.469V259.161H274.522Z" fill="#81BBFF"/>
<path d="M274.577 259.161V264.387H274.522V259.161H274.577Z" fill="#80BAFF"/>
<path d="M274.631 259.161V264.387H274.577V259.161H274.631Z" fill="#7FB9FF"/>
<path d="M274.685 259.161V264.387H274.631V259.161H274.685Z" fill="#7EB8FF"/>
<path d="M274.74 259.161V264.387H274.686V259.161H274.74Z" fill="#7DB7FF"/>
<path d="M274.793 259.161V264.387H274.739V259.161H274.793Z" fill="#7CB7FF"/>
<path d="M274.848 259.161V264.387H274.793V259.161H274.848Z" fill="#7BB6FF"/>
<path d="M274.901 259.161V264.387H274.848V259.161H274.901Z" fill="#7AB5FF"/>
<path d="M274.955 259.161V264.387H274.901V259.161H274.955Z" fill="#79B4FF"/>
<path d="M275.01 259.161V264.387H274.955V259.161H275.01Z" fill="#78B4FF"/>
<path d="M275.063 259.161V264.387H275.01V259.161H275.063Z" fill="#77B3FF"/>
<path d="M275.118 259.161V264.387H275.063V259.161H275.118Z" fill="#76B2FF"/>
<path d="M275.171 259.161V264.387H275.118V259.161H275.171Z" fill="#74B1FF"/>
<path d="M275.226 259.161V264.387H275.171V259.161H275.226Z" fill="#73B0FF"/>
<path d="M275.28 259.161V264.387H275.226V259.161H275.28Z" fill="#72B0FF"/>
<path d="M275.333 259.161V264.387H275.279V259.161H275.333Z" fill="#71AFFF"/>
<path d="M275.388 259.161V264.387H275.334V259.161H275.388Z" fill="#70AEFF"/>
<path d="M275.443 259.161V264.387H275.388V259.161H275.443Z" fill="#6FADFF"/>
<path d="M275.495 259.161V264.387H275.442V259.161H275.495Z" fill="#6EADFF"/>
<path d="M275.55 259.161V264.387H275.495V259.161H275.55Z" fill="#6DACFF"/>
<path d="M275.604 259.161V264.387H275.551V259.161H275.604Z" fill="#6CABFF"/>
<path d="M275.658 259.161V264.387H275.604V259.161H275.658Z" fill="#6BAAFF"/>
<path d="M275.712 259.161V264.387H275.658V259.161H275.712Z" fill="#6AA9FF"/>
<path d="M275.767 259.161V264.387H275.713V259.161H275.767Z" fill="#69A9FF"/>
<path d="M275.821 259.161V264.387H275.767V259.161H275.821Z" fill="#68A8FF"/>
<path d="M275.874 259.161V264.387H275.82V259.161H275.874Z" fill="#67A7FF"/>
<path d="M275.928 259.161V264.387H275.874V259.161H275.928Z" fill="#66A6FF"/>
<path d="M275.984 259.161V264.387H275.929V259.161H275.984Z" fill="#65A6FF"/>
<path d="M276.036 259.161V264.387H275.983V259.161H276.036Z" fill="#64A5FF"/>
<path d="M276.091 259.161V264.387H276.036V259.161H276.091Z" fill="#63A4FF"/>
<path d="M276.144 259.161V264.387H276.091V259.161H276.144Z" fill="#62A3FF"/>
<path d="M276.199 259.161V264.387H276.145V259.161H276.199Z" fill="#61A2FF"/>
<path d="M276.253 259.161V264.387H276.199V259.161H276.253Z" fill="#60A2FF"/>
<path d="M276.307 259.161V264.387H276.253V259.161H276.307Z" fill="#5FA1FF"/>
<path d="M276.362 259.161V264.387H276.308V259.161H276.362Z" fill="#5EA0FF"/>
<path d="M276.415 259.161V264.387H276.361V259.161H276.415Z" fill="#5D9FFF"/>
<path d="M276.469 259.161V264.387H276.415V259.161H276.469Z" fill="#5C9EFF"/>
<path d="M276.524 259.161V264.387H276.469V259.161H276.524Z" fill="#5B9EFF"/>
<path d="M276.576 259.161V264.387H276.523V259.161H276.576Z" fill="#5A9DFF"/>
<path d="M276.632 259.161V264.387H276.577V259.161H276.632Z" fill="#599CFF"/>
<path d="M276.685 259.161V264.387H276.632V259.161H276.685Z" fill="#589BFF"/>
<path d="M276.739 259.161V264.387H276.685V259.161H276.739Z" fill="#579BFF"/>
<path d="M276.793 259.161V264.387H276.739V259.161H276.793Z" fill="#569AFF"/>
<path d="M276.848 259.161V264.387H276.794V259.161H276.848Z" fill="#5599FF"/>
</g>
<path d="M275.795 260.378C275.795 260.378 274.386 261.151 274.483 261.394C274.58 261.636 274.761 261.667 274.761 261.667L274.326 262.247C274.326 262.247 274.255 262.795 274.872 262.712C274.872 262.712 274.753 263.218 275.339 263.067C275.339 263.067 275.409 263.435 275.693 263.413C275.977 263.391 276.863 262.856 276.863 262.856C276.863 262.856 276.999 262.659 276.732 262.351C276.732 262.351 276.889 261.999 276.605 261.737C276.605 261.737 276.685 261.436 276.374 261.155C276.374 261.155 276.504 260.467 275.946 260.308C275.946 260.308 275.855 260.345 275.795 260.378Z" fill="#DB9C7C"/>
<mask id="mask4_728_11174" style="mask-type:luminance" maskUnits="userSpaceOnUse" x="270" y="255" width="7" height="6">
<path d="M271.672 260.188L276.639 259.261L275.829 255.188L270.902 256.311L271.672 260.188Z" fill="white"/>
</mask>
<g mask="url(#mask4_728_11174)">
<path d="M270.99 255.188V260.188H270.902V255.188H270.99Z" fill="#96CBFF"/>
<path d="M271.079 255.188V260.188H270.99V255.188H271.079Z" fill="#95CAFF"/>
<path d="M271.167 255.188V260.188H271.078V255.188H271.167Z" fill="#94C9FF"/>
<path d="M271.254 255.188V260.188H271.167V255.188H271.254Z" fill="#93C9FF"/>
<path d="M271.343 255.188V260.188H271.255V255.188H271.343Z" fill="#92C8FF"/>
<path d="M271.432 255.188V260.188H271.344V255.188H271.432Z" fill="#91C7FF"/>
<path d="M271.52 255.188V260.188H271.432V255.188H271.52Z" fill="#90C6FF"/>
<path d="M271.608 255.188V260.188H271.521V255.188H271.608Z" fill="#8FC6FF"/>
<path d="M271.696 255.188V260.188H271.607V255.188H271.696Z" fill="#8EC5FF"/>
<path d="M271.785 255.188V260.188H271.696V255.188H271.785Z" fill="#8DC4FF"/>
<path d="M271.874 255.188V260.188H271.784V255.188H271.874Z" fill="#8CC3FF"/>
<path d="M271.961 255.188V260.188H271.874V255.188H271.961Z" fill="#8BC2FF"/>
<path d="M272.049 255.188V260.188H271.961V255.188H272.049Z" fill="#8AC2FF"/>
<path d="M272.138 255.188V260.188H272.05V255.188H272.138Z" fill="#89C1FF"/>
<path d="M272.225 255.188V260.188H272.138V255.188H272.225Z" fill="#88C0FF"/>
<path d="M272.314 255.188V260.188H272.226V255.188H272.314Z" fill="#87BFFF"/>
<path d="M272.402 255.188V260.188H272.313V255.188H272.402Z" fill="#86BFFF"/>
<path d="M272.491 255.188V260.188H272.402V255.188H272.491Z" fill="#85BEFF"/>
<path d="M272.579 255.188V260.188H272.49V255.188H272.579Z" fill="#84BDFF"/>
<path d="M272.667 255.188V260.188H272.579V255.188H272.667Z" fill="#83BCFF"/>
<path d="M272.756 255.188V260.188H272.668V255.188H272.756Z" fill="#82BBFF"/>
<path d="M272.844 255.188V260.188H272.756V255.188H272.844Z" fill="#81BBFF"/>
<path d="M272.932 255.188V260.188H272.845V255.188H272.932Z" fill="#80BAFF"/>
<path d="M273.02 255.188V260.188H272.932V255.188H273.02Z" fill="#7FB9FF"/>
<path d="M273.109 255.188V260.188H273.021V255.188H273.109Z" fill="#7EB8FF"/>
<path d="M273.196 255.188V260.188H273.108V255.188H273.196Z" fill="#7DB7FF"/>
<path d="M273.285 255.188V260.188H273.196V255.188H273.285Z" fill="#7CB7FF"/>
<path d="M273.373 255.188V260.188H273.284V255.188H273.373Z" fill="#7BB6FF"/>
<path d="M273.461 255.188V260.188H273.373V255.188H273.461Z" fill="#7AB5FF"/>
<path d="M273.549 255.188V260.188H273.461V255.188H273.549Z" fill="#79B4FF"/>
<path d="M273.638 255.188V260.188H273.55V255.188H273.638Z" fill="#78B4FF"/>
<path d="M273.726 255.188V260.188H273.638V255.188H273.726Z" fill="#77B3FF"/>
<path d="M273.814 255.188V260.188H273.727V255.188H273.814Z" fill="#76B2FF"/>
<path d="M273.902 255.188V260.188H273.813V255.188H273.902Z" fill="#74B1FF"/>
<path d="M273.991 255.188V260.188H273.902V255.188H273.991Z" fill="#73B0FF"/>
<path d="M274.079 255.188V260.188H273.99V255.188H274.079Z" fill="#72B0FF"/>
<path d="M274.167 255.188V260.188H274.079V255.188H274.167Z" fill="#71AFFF"/>
<path d="M274.256 255.188V260.188H274.167V255.188H274.256Z" fill="#70AEFF"/>
<path d="M274.344 255.188V260.188H274.256V255.188H274.344Z" fill="#6FADFF"/>
<path d="M274.433 255.188V260.188H274.345V255.188H274.433Z" fill="#6EADFF"/>
<path d="M274.52 255.188V260.188H274.433V255.188H274.52Z" fill="#6DACFF"/>
<path d="M274.609 255.188V260.188H274.521V255.188H274.609Z" fill="#6CABFF"/>
<path d="M274.697 255.188V260.188H274.608V255.188H274.697Z" fill="#6BAAFF"/>
<path d="M274.785 255.188V260.188H274.697V255.188H274.785Z" fill="#6AA9FF"/>
<path d="M274.873 255.188V260.188H274.784V255.188H274.873Z" fill="#69A9FF"/>
<path d="M274.961 255.188V260.188H274.873V255.188H274.961Z" fill="#68A8FF"/>
<path d="M275.05 255.188V260.188H274.961V255.188H275.05Z" fill="#67A7FF"/>
<path d="M275.138 255.188V260.188H275.051V255.188H275.138Z" fill="#66A6FF"/>
<path d="M275.226 255.188V260.188H275.138V255.188H275.226Z" fill="#65A6FF"/>
<path d="M275.315 255.188V260.188H275.227V255.188H275.315Z" fill="#64A5FF"/>
<path d="M275.403 255.188V260.188H275.314V255.188H275.403Z" fill="#63A4FF"/>
<path d="M275.491 255.188V260.188H275.403V255.188H275.491Z" fill="#62A3FF"/>
<path d="M275.58 255.188V260.188H275.491V255.188H275.58Z" fill="#61A2FF"/>
<path d="M275.667 255.188V260.188H275.579V255.188H275.667Z" fill="#60A2FF"/>
<path d="M275.756 255.188V260.188H275.668V255.188H275.756Z" fill="#5FA1FF"/>
<path d="M275.844 255.188V260.188H275.756V255.188H275.844Z" fill="#5EA0FF"/>
<path d="M275.933 255.188V260.188H275.845V255.188H275.933Z" fill="#5D9FFF"/>
<path d="M276.021 255.188V260.188H275.933V255.188H276.021Z" fill="#5C9EFF"/>
<path d="M276.108 255.188V260.188H276.021V255.188H276.108Z" fill="#5B9EFF"/>
<path d="M276.197 255.188V260.188H276.108V255.188H276.197Z" fill="#5A9DFF"/>
<path d="M276.286 255.188V260.188H276.197V255.188H276.286Z" fill="#599CFF"/>
<path d="M276.373 255.188V260.188H276.285V255.188H276.373Z" fill="#589BFF"/>
<path d="M276.461 255.188V260.188H276.373V255.188H276.461Z" fill="#579BFF"/>
<path d="M276.55 255.188V260.188H276.461V255.188H276.55Z" fill="#569AFF"/>
<path d="M276.639 255.188V260.188H276.551V255.188H276.639Z" fill="#5599FF"/>
</g>
<path d="M273.331 261.424C273.331 261.424 274.434 261.393 275.043 261.639C275.18 261.695 275.304 261.775 275.304 261.924C275.304 262.072 275.088 262.262 274.612 262.3C274.134 262.338 273.536 262.605 273.536 262.605C273.536 262.605 273.034 262.5 273.331 261.424Z" fill="#EEA886"/>
<path d="M262.465 300.699C262.38 301.139 262.296 301.586 262.208 302.031L259.388 294.566C259.76 295.319 262.465 300.699 262.465 300.699Z" fill="#293B57"/>
<path d="M107.263 211.754H62.762C59.4745 211.754 56.8086 209.09 56.8086 205.802V135.504C56.8086 132.216 59.4745 129.55 62.762 129.55H107.263C110.551 129.55 113.217 132.216 113.217 135.504V205.802C113.217 209.09 110.551 211.754 107.263 211.754Z" fill="#FFC955"/>
<path d="M107.224 182.637H104.301V204.879H107.224V182.637Z" fill="#E3F2FF"/>
<path d="M101.449 185.13H98.5273V204.879H101.449V185.13Z" fill="#E3F2FF"/>
<path d="M95.1757 188.372H92.2529V204.879H95.1757V188.372Z" fill="#E3F2FF"/>
<path d="M88.7323 192.46H85.8096V204.879H88.7323V192.46Z" fill="#E3F2FF"/>
<path d="M68.371 189.828L67.7383 189.602L73.2488 174.141L85.2004 170.98L89.4956 154.01L98.7199 149.94L100.785 136.744L101.449 136.848L99.3266 150.406L90.0679 154.494L85.7559 171.529L73.7634 174.702L68.371 189.828Z" fill="#E3F2FF"/>
<path d="M86.867 170.118C87.4941 170.885 87.3806 172.014 86.6139 172.643C85.8471 173.269 84.7165 173.155 84.0894 172.388C83.4622 171.622 83.5767 170.491 84.3434 169.865C85.1102 169.239 86.2398 169.351 86.867 170.118Z" fill="#FFC955"/>
<path d="M84.5565 170.126C83.934 170.635 83.8409 171.553 84.3499 172.176C84.8589 172.798 85.7783 172.891 86.3999 172.383C87.0224 171.874 87.1154 170.953 86.6064 170.332C86.0984 169.71 85.1781 169.617 84.5565 170.126ZM86.826 172.903C85.9169 173.646 84.5723 173.511 83.8298 172.601C83.0863 171.692 83.2212 170.347 84.1303 169.604C85.0395 168.861 86.3841 168.996 87.1275 169.905C87.8701 170.815 87.7361 172.159 86.826 172.903Z" fill="#E3F2FF"/>
<path d="M91.219 153.22C91.8461 153.987 91.7326 155.117 90.9659 155.743C90.1982 156.37 89.0676 156.257 88.4423 155.49C87.8151 154.723 87.9286 153.593 88.6954 152.967C89.4621 152.339 90.5918 152.453 91.219 153.22Z" fill="#FFC955"/>
<path d="M88.9083 153.227C88.2857 153.735 88.1927 154.656 88.7017 155.277C89.2107 155.9 90.13 155.992 90.7525 155.484C91.3741 154.975 91.4672 154.056 90.9582 153.433C90.4501 152.811 89.5298 152.718 88.9083 153.227ZM91.1778 156.005C90.2687 156.748 88.9241 156.613 88.1806 155.703C87.438 154.793 87.573 153.449 88.4821 152.706C89.3912 151.963 90.7349 152.098 91.4783 153.007C92.2218 153.917 92.0878 155.261 91.1778 156.005Z" fill="#E3F2FF"/>
<path d="M100.3 149.032C100.927 149.799 100.814 150.929 100.046 151.556C99.2794 152.183 98.1498 152.069 97.5226 151.303C96.8963 150.536 97.0099 149.405 97.7766 148.778C98.5434 148.152 99.673 148.265 100.3 149.032Z" fill="#FFC955"/>
<path d="M97.9884 149.039C97.3668 149.548 97.2747 150.468 97.7837 151.09C98.2917 151.713 99.2111 151.805 99.8336 151.296C100.456 150.788 100.547 149.868 100.039 149.246C99.5312 148.624 98.6109 148.531 97.9884 149.039ZM100.259 151.817C99.3497 152.561 98.0051 152.425 97.2616 151.516C96.5191 150.606 96.654 149.262 97.5631 148.519C98.4732 147.776 99.8168 147.911 100.56 148.82C101.304 149.729 101.168 151.074 100.259 151.817Z" fill="#E3F2FF"/>
<path d="M74.9621 173.435C75.5892 174.202 75.4757 175.331 74.709 175.958C73.9413 176.585 72.8117 176.472 72.1845 175.705C71.5573 174.938 71.6708 173.808 72.4376 173.181C73.2053 172.554 74.3349 172.668 74.9621 173.435Z" fill="#FFC955"/>
<path d="M72.6513 173.442C72.0287 173.95 71.9357 174.87 72.4447 175.492C72.9527 176.114 73.873 176.207 74.4946 175.699C75.1171 175.19 75.2102 174.27 74.7012 173.648C74.1931 173.025 73.2728 172.933 72.6513 173.442ZM74.9208 176.22C74.0117 176.962 72.6671 176.828 71.9245 175.917C71.181 175.009 71.316 173.664 72.2251 172.921C73.1342 172.179 74.4788 172.313 75.2223 173.222C75.9648 174.132 75.8299 175.476 74.9208 176.22Z" fill="#E3F2FF"/>
<path d="M79.4701 156.605H64.0887C63.3778 156.605 62.8018 156.029 62.8018 155.318V154.172C62.8018 153.461 63.3778 152.885 64.0887 152.885H79.4701C80.181 152.885 80.758 153.461 80.758 154.172V155.318C80.758 156.029 80.181 156.605 79.4701 156.605Z" fill="#EBEBEB"/>
<path d="M79.4701 150.102H64.0887C63.3778 150.102 62.8018 149.526 62.8018 148.814V147.669C62.8018 146.958 63.3778 146.381 64.0887 146.381H79.4701C80.181 146.381 80.758 146.958 80.758 147.669V148.814C80.758 149.526 80.181 150.102 79.4701 150.102Z" fill="#EBEBEB"/>
<path d="M49.9135 159.597C49.9135 159.597 49.3933 164.732 50.3415 166.02C50.3415 166.02 47.83 165.472 47.2485 164.608C46.6669 163.743 49.9135 159.597 49.9135 159.597Z" fill="#16202E"/>
<path d="M65.5964 175.995C65.5964 175.995 66.5074 175.383 66.6498 175.294C66.7912 175.205 67.2593 175.219 67.7952 175.283C68.3312 175.346 69.0263 175.673 69.0682 175.757C69.1101 175.839 69.1919 175.904 69.1584 176.14C69.124 176.376 68.9658 176.558 68.9658 176.558C68.9658 176.558 69.0607 176.869 68.8495 177.077C68.8495 177.077 68.9258 177.374 68.6457 177.572C68.6457 177.572 68.7127 177.863 68.4978 177.99C68.4978 177.99 68.0288 177.975 67.8539 178.021C67.678 178.065 66.7047 177.969 65.7853 177.734C65.7853 177.734 64.759 177.513 65.5964 175.995Z" fill="#EEA886"/>
<path d="M67.1473 176.419C67.1473 176.419 66.8728 176.898 66.7277 176.994C66.5825 177.089 67.4293 178 67.4293 178C67.4293 178 67.7196 176.769 67.1473 176.419Z" fill="#CF8C6C"/>
<path d="M65.0563 176.083C65.0563 176.083 65.6295 176.02 65.984 175.856C66.3376 175.692 65.918 177.641 65.918 177.641C65.918 177.641 65.0591 177.048 64.4989 177.032C63.9388 177.013 65.0563 176.083 65.0563 176.083Z" fill="#EEA886"/>
<path d="M41.3043 227.976C41.3043 227.976 43.0963 230.595 43.7211 231.152C43.7211 231.152 44.9719 231.801 45.01 232.319C45.0836 233.299 45.1357 233.877 43.4907 233.922C41.8455 233.969 40.818 233.917 40.5163 232.922C40.2157 231.925 39.6959 231.144 39.6959 231.144L39.5705 233.736H39.1998C39.1998 233.736 39.034 231.138 39.0103 230.767C38.9878 230.396 38.7443 228.972 39.5265 228.34C40.3084 227.71 41.3043 227.976 41.3043 227.976Z" fill="#162D40"/>
<path d="M43.9602 231.283C43.9602 231.283 43.0711 231.534 42.0138 231.268C40.9561 231.002 39.9409 228.47 39.6318 228.259L39.3574 227.237H41.4191C41.4191 227.237 41.4366 227.993 41.7691 228.641C42.1025 229.287 43.9602 231.283 43.9602 231.283Z" fill="#162D40"/>
<path d="M52.9369 226.996C52.9369 226.996 53.2058 227.631 53.7129 228.293C54.0861 228.778 55.2427 230.772 55.7526 230.91C56.2616 231.049 57.837 231.327 57.9756 232.208C58.1152 233.088 58.1841 233.713 56.6319 233.783C55.0798 233.852 54.0609 233.945 53.3193 232.856C52.5786 231.767 51.3969 230.979 51.3969 230.979V233.82H50.7948C50.7948 233.82 50.5175 230.864 50.3547 230.656C50.1928 230.447 49.7759 228.177 51.2117 226.996C52.6484 225.814 52.9369 226.996 52.9369 226.996Z" fill="#162D40"/>
<path d="M55.7523 230.912C55.7523 230.912 54.3621 231.259 53.8289 230.912C53.2967 230.565 51.4849 227.504 50.8848 227.32C50.8848 227.32 51.4663 226.14 52.9366 226.997C52.9366 226.997 55.3578 230.402 55.7523 230.912Z" fill="#162D40"/>
<path d="M40.5154 184.457C40.5154 184.457 38.5555 187.005 38.0241 190.029C37.4923 193.051 38.3385 203.197 38.3149 204.691C38.292 206.186 36.9972 210.834 37.2742 213.648C37.5523 216.463 39.008 228.211 39.008 228.211L42.4036 228.149C42.4036 228.149 41.7233 215.473 41.897 214.292C42.0703 213.11 42.6239 208.085 42.693 207.597C42.7628 207.111 46.5614 194.248 46.5614 192.069C46.5614 189.889 45.241 180.902 40.5154 184.457Z" fill="#1D3B54"/>
<path d="M50.3612 185.453C50.3612 185.453 53.5808 197.742 53.9623 199.445C54.3448 201.147 55.1087 203.371 55.0743 203.683C55.0399 203.995 54.6695 209.242 54.6695 209.242L53.7539 227.102H50.3612C50.3612 227.102 49.2725 215.739 49.0976 213.446C48.9245 211.153 50.3491 207.609 50.0011 206.636C49.654 205.663 44.4069 194.441 44.4069 194.441C44.4069 194.441 40.4352 181.887 50.3612 185.453Z" fill="#1D3B54"/>
<path d="M49.3642 167.062C49.3642 167.062 50.6511 167.184 51.6244 168.226C52.5977 169.268 53.5106 170.931 53.7655 171.486C54.0196 172.042 57.5918 177.195 57.7779 177.311C57.9631 177.426 59.5227 177.016 60.7742 176.911C62.8158 176.741 65.8688 175.702 65.8688 175.702L66.3219 178.008C66.3219 178.008 58.8127 180.431 57.08 180.004C54.9603 179.482 50.0826 173.224 50.0826 173.224C50.0826 173.224 46.4461 168.962 49.3642 167.062Z" fill="#EDDAD3"/>
<path d="M47.1175 166.157C47.1175 166.157 48.7849 166.944 49.3647 167.059C49.9444 167.176 52.1906 170.095 52.5842 171.16C52.9778 172.226 52.5842 173.823 51.7738 175.699C50.9624 177.576 51.7282 178.201 51.3569 180.078C50.9865 181.954 50.9865 187.069 51.0563 188.111C51.1252 189.154 40.3328 191.12 38.1787 189.221C38.1787 189.221 39.6363 184.413 41.364 182.607C41.7365 182.217 41.6976 179.614 41.4428 178.966C41.1876 178.318 38.3154 173.476 38.3154 173.476C38.3154 173.476 38.1042 168.566 39.3575 167.593C40.4461 166.747 43.414 166.445 43.9465 166.26C44.4794 166.075 46.0297 165.994 47.1175 166.157Z" fill="#EDDAD3"/>
<path d="M47.6501 169.875L48.6634 168.689L47.7832 165.564C47.7832 165.564 47.4882 167.304 47.6501 169.875Z" fill="#D1C0BA"/>
<path d="M41.2978 167.058C41.2978 167.058 39.1957 166.456 37.9908 168.773C36.7865 171.089 37.0875 172.34 36.8094 173.382C36.5325 174.425 35.4202 181.397 35.3508 181.698C35.281 182 34.216 185.544 34.3542 186.632C34.4934 187.721 35.49 195.967 35.4439 196.245C35.3974 196.523 37.3656 195.979 37.3656 195.979C37.3656 195.979 37.2849 187.559 37.3547 186.864C37.4237 186.169 37.4928 182.521 38.0144 181.582C38.536 180.644 39.8209 174.911 40.099 174.321C40.377 173.73 43.0698 167.811 41.2978 167.058Z" fill="#EEA886"/>
<path d="M47.9137 164.232C47.9137 164.232 47.5815 167.291 47.6504 168.288C47.6504 168.288 45.9168 170.024 43.9463 166.26C43.9463 166.26 44.776 164.709 44.1517 162.596C43.5276 160.482 47.9137 164.232 47.9137 164.232Z" fill="#EEA886"/>
<path d="M47.651 168.288V169.875L45.7881 168.224L47.651 168.288Z" fill="#EEA886"/>
<path d="M47.6509 169.875L46.8228 168.85L44.0329 166.07L42.9883 166.534L47.6509 169.875Z" fill="#D1C0BA"/>
<path d="M48.6635 168.686L49.9411 169.039L47.7832 165.562L48.6635 168.686Z" fill="#FAE6DE"/>
<path d="M46.8227 168.849L45.6558 170.719L42.9453 166.466L44.1065 165.875L46.8227 168.849Z" fill="#FAE6DE"/>
<path d="M52.7646 176.391C52.7646 176.391 53.1815 173.616 52.7376 171.929C52.7376 171.929 52.4929 173.29 51.8955 175.41L52.7646 176.391Z" fill="#D1C0BA"/>
<path d="M39.8096 176.021C39.8096 176.021 40.9629 172.206 41.0309 171.997C41.0309 171.997 40.9521 175.503 40.5104 177.238C40.5104 177.238 40.0858 176.498 39.8096 176.021Z" fill="#D1C0BA"/>
<path d="M82.7631 156.905L64.6152 179.769L65.248 180.258L82.7631 156.905Z" fill="#54281A"/>
<path d="M68.9281 175.732C68.9281 175.732 67.5668 175.603 67.5184 175.821C67.4709 176.037 67.5854 176.146 67.5854 176.146L67.0001 176.348C67.0001 176.348 66.6884 176.7 67.162 176.937C67.162 176.937 66.8382 177.235 67.323 177.41C67.323 177.41 67.1964 177.701 67.4067 177.822C67.6179 177.942 68.4973 177.988 68.4973 177.988C68.4973 177.988 68.6871 177.915 68.6452 177.57C68.6452 177.57 68.9253 177.396 68.849 177.075C68.849 177.075 69.0509 176.902 68.9653 176.556C68.9653 176.556 69.385 176.133 69.0677 175.755C69.0677 175.755 68.9858 175.736 68.9281 175.732Z" fill="#DB9C7C"/>
<path d="M66.6935 175.295C66.6935 175.295 67.4844 175.8 67.7961 176.264C67.8659 176.371 67.9153 176.485 67.8445 176.589C67.7729 176.694 67.53 176.725 67.1764 176.525C66.8219 176.323 66.272 176.225 66.272 176.225C66.272 176.225 65.9686 175.913 66.6935 175.295Z" fill="#EEA886"/>
<path d="M46.5078 153.819C46.5078 153.819 49.5785 153.74 50.1424 157.375C50.7082 161.01 49.4026 164.204 48.8909 164.716C48.3781 165.227 45.3084 164.839 44.5854 162.951C43.8609 161.063 42.8025 159.687 42.9613 158.063C43.1205 156.44 42.7323 153.758 46.5078 153.819Z" fill="#EEA886"/>
<path d="M50.274 158.751C50.274 158.751 51.0965 154.217 47.0199 153.405C42.9446 152.594 41.515 155.382 41.1272 157.04C40.7378 158.699 41.1977 163.375 41.1977 163.375C41.1977 163.375 43.9151 165.757 45.5376 166.375C45.5376 166.375 44.1791 161.399 44.6909 157.834C44.6909 157.834 48.0035 158.354 50.2023 157.811C50.2023 157.811 50.2684 158.556 50.274 158.751Z" fill="#16202E"/>
<path d="M47.8442 164.914C47.8442 164.914 46.7779 164.906 45.3281 163.964C45.3281 163.964 46.348 165.246 47.7707 165.715C47.7707 165.715 47.8545 165.077 47.8442 164.914Z" fill="#A77860"/>
<path d="M43.2145 197.095L31.3562 199.031L29.9248 190.261L41.7828 188.325L43.2145 197.095Z" fill="#366E9C"/>
<path d="M35.0338 198.879C35.0338 198.879 34.8474 198.576 34.8314 198.404C34.8314 198.404 34.8237 198.09 34.8056 197.866C34.7995 197.795 34.7928 197.733 34.7842 197.694C34.7486 197.53 34.6214 197.179 34.6456 196.76C34.6715 196.341 35.2428 194.562 35.2428 194.562L36.2927 194.598L37.2802 194.491C37.2802 194.491 38.4731 196.769 38.4953 197.161C38.4968 197.199 38.4979 197.238 38.4953 197.275C38.4815 197.609 38.3307 197.852 38.3034 198.027C38.2936 198.091 38.1471 198.721 37.9745 198.808C37.7346 198.928 37.519 198.913 37.3601 198.822C37.3601 198.822 36.8792 199.037 36.5376 198.944C36.5376 198.944 36.1018 199.156 35.7088 198.919C35.7088 198.919 35.2422 199.085 35.0338 198.879Z" fill="#EEA886"/>
<path d="M41.2979 167.06C41.2979 167.06 39.1959 166.458 37.991 168.775C36.7867 171.091 36.7933 172.079 36.6315 173.21C36.4795 174.279 35.0111 180.623 34.9413 180.924C34.8722 181.226 34.3888 185.19 34.3543 186.634C34.3288 187.732 34.5862 194.926 34.5397 195.205C34.4935 195.483 37.8667 194.718 37.8667 194.718C37.8667 194.718 37.493 188.083 37.5631 187.387C37.6318 186.692 37.7801 183.228 38.1199 182.209C38.5187 181.014 40.0937 174.988 40.3718 174.397C40.6498 173.807 43.0699 167.813 41.2979 167.06Z" fill="#EDDAD3"/>
<path d="M149.94 229.428L150.159 227.392C150.159 227.392 147.287 227.371 146.951 227.613C146.951 227.613 147.195 229.323 147.225 229.579C147.256 229.837 149.94 229.428 149.94 229.428Z" fill="#5C544D"/>
<path d="M145.059 233.686C148.476 233.657 150.124 233.891 150.49 233.336C150.856 232.783 149.96 229.247 149.96 229.247C149.96 229.247 149.151 229.541 147.197 229.363C147.197 229.363 146.346 230.394 145.524 230.843C144.701 231.292 143.408 231.471 142.921 231.935C142.571 232.271 141.642 233.716 145.059 233.686Z" fill="#3C4145"/>
<path d="M130.706 229.428L130.922 227.392C130.922 227.392 128.051 227.371 127.716 227.613C127.716 227.613 127.959 229.323 127.99 229.579C128.02 229.837 130.706 229.428 130.706 229.428Z" fill="#5C544D"/>
<path d="M125.823 233.683C129.239 233.594 130.888 233.888 131.253 233.333C131.62 232.78 130.724 229.244 130.724 229.244C130.724 229.244 129.962 229.558 127.961 229.36C127.961 229.36 127.11 230.391 126.287 230.84C125.466 231.289 122.438 231.658 121.951 232.124C121.599 232.459 121.016 233.81 125.823 233.683Z" fill="#3C4145"/>
<path d="M145.997 183.455C145.997 183.455 147.426 187.699 147.238 191.357C147.05 195.014 147.977 199.017 148.355 202.837C148.778 207.096 150.508 217.18 150.57 219.458C150.633 221.738 150.301 229.013 150.301 229.013L146.84 229.094C146.84 229.094 143.933 211.464 143.182 209.665C142.429 207.866 138.695 195.041 138.57 193.603C138.444 192.163 145.997 183.455 145.997 183.455Z" fill="#DBD8E3"/>
<path d="M131.448 184.21C131.448 184.21 129.547 194.235 129.297 196.473C129.046 198.711 128.879 207.307 128.754 208.705C128.628 210.105 127.916 227.015 127.248 229.094H131.673C131.673 229.094 135.068 216.8 135.068 210.984C135.068 205.168 137.692 198.34 139.387 194.503C141.08 190.665 144.957 190.574 145.998 183.455C145.998 183.455 132.859 181.952 131.448 184.21Z" fill="#DBD8E3"/>
<path d="M140.439 149.952C140.439 149.952 136.952 148.649 135.345 151.304C133.736 153.958 133.891 159.274 135.649 159.927C137.408 160.581 140.049 160.239 140.947 158.578C141.848 156.917 142.66 154.515 142.621 152.91C142.582 151.305 141.356 150.415 140.439 149.952Z" fill="#EEA886"/>
<path d="M136.234 159.763C136.234 159.763 136.376 160.678 136.142 161.127C135.91 161.578 140.53 161.59 140.53 161.59C140.53 161.59 140.904 159.141 141.616 157.071C142.327 155.001 136.234 159.763 136.234 159.763Z" fill="#EEA886"/>
<path d="M141.616 157.069C141.616 157.069 141.297 157.594 139.996 157.39C138.694 157.187 137.106 155.455 136.563 155.265C136.019 155.074 136.015 154.756 136.015 154.756L135.674 155.252L135.097 155.289C135.097 155.289 135.624 153.74 134.829 153.108C134.035 152.476 135.653 148.095 139.828 149.554C139.828 149.554 142.819 150.145 143 151.963C143.193 153.898 142.334 156.16 141.616 157.069Z" fill="#FCCCA2"/>
<path d="M135.869 161.074C135.869 161.074 135.884 160.213 136.274 160.131C136.664 160.048 140.578 159.672 141.058 159.86V160.863C141.058 160.863 140.135 161.43 135.869 161.074Z" fill="#E2D2CA"/>
<path d="M136.1 154.096C136.174 153.79 136.95 152.916 137.249 153.853C137.547 154.788 136.799 156.047 136.382 155.939C135.965 155.831 135.916 154.872 136.1 154.096Z" fill="#EEA886"/>
<path d="M135.869 161.071C135.869 161.071 133.723 161.843 131.237 162.9C131.237 162.9 128.377 163.967 128.068 167.125C127.904 168.801 126.119 177.697 125.783 178.451C125.449 179.203 121.491 191.296 121.352 191.547C121.212 191.799 124.582 193.198 124.805 193.086C125.028 192.973 128.638 182.056 129 181.247C129 181.247 131.078 174.701 131.133 173.725C131.133 173.725 131.193 176.506 131.304 177.287C131.415 178.067 129.457 193.226 129.513 193.644C129.568 194.063 138.416 194.594 141.956 194.203C145.498 193.814 148.355 192.999 148.355 192.999C148.355 192.999 145.569 181.036 145.654 179.71C145.84 176.819 146.806 171.377 146.806 171.377L149.694 176.819L145.998 186.328L146.843 189.216C146.843 189.216 153.712 178.839 153.934 177.891C154.158 176.943 153.598 175.735 153.235 174.955C152.873 174.174 150.492 168.234 149.935 167.396C149.377 166.56 148.435 163.211 146.158 162.278C144.253 161.499 141.057 160.86 141.057 160.86L135.869 161.071Z" fill="#63A4FF"/>
<path d="M131.147 197.027L114.968 192.879L117.863 181.593L134.042 185.74L131.147 197.027Z" fill="#F25F54"/>
<path d="M119.943 194.014C119.943 194.014 119.48 194.76 119.311 194.974C119.143 195.187 119.727 195.321 119.976 195.105C120.228 194.89 119.943 194.014 119.943 194.014Z" fill="#C98462"/>
<path d="M123.311 196.568C123.311 196.568 123.585 196.284 123.644 196.101C123.644 196.101 123.725 195.76 123.798 195.522C123.821 195.445 123.844 195.379 123.861 195.339C123.938 195.169 124.16 194.818 124.232 194.357C124.303 193.896 124.504 191.826 124.504 191.826L123.251 191.509L122.245 191.297C122.245 191.297 120.069 193.467 119.953 193.889C119.942 193.93 119.932 193.971 119.927 194.011C119.863 194.378 119.969 194.678 119.958 194.874C119.954 194.947 119.965 195.666 120.132 195.801C120.364 195.988 120.602 196.023 120.797 195.96C120.797 195.96 121.268 196.307 121.662 196.286C121.662 196.286 122.087 196.619 122.568 196.454C122.568 196.454 123.037 196.744 123.311 196.568Z" fill="#DE9D7D"/>
<path d="M128.205 183.476C128.205 183.476 125.333 192.172 124.806 193.086C124.806 193.086 122.7 192.643 121.353 191.547L124.505 182.163L128.205 183.476Z" fill="#63A4FF"/>
<path d="M387.243 197.037C387.243 197.037 397.902 165.778 377.562 156.088C357.221 146.397 339.952 160.406 336.689 167.986C333.427 175.566 334.29 189.348 337.073 198.96C339.855 208.57 339.45 223.202 333.406 228.095C327.361 232.988 319.866 241.115 320.237 257.658C320.468 267.92 360.622 231.405 360.622 231.405L387.243 197.037Z" fill="#252E3B"/>
<path d="M358.664 234.22C358.664 234.22 341.945 237.926 335.309 241.804C328.674 245.682 313.938 263.521 313.938 271.191C313.938 278.861 378.382 286.026 378.382 286.026L390.597 330.621C390.597 330.621 423.171 322.672 427.048 316.08C430.927 309.487 414.677 262.24 411.896 252.678C409.059 242.924 397.384 236.122 383.811 234.22C370.238 232.319 358.664 234.22 358.664 234.22Z" fill="#FFD255"/>
<path d="M382.651 234.068C382.651 234.068 382.276 254.388 366.161 254.991C350.045 255.593 353.4 235.501 353.4 235.501C353.4 235.501 365.187 230.726 382.651 234.068Z" fill="#EEA886"/>
<path d="M389.469 172.751C389.469 172.751 395.169 205.433 378.936 229.041C362.123 253.491 389.469 172.751 389.469 172.751Z" fill="#252E3B"/>
<path d="M379.194 219.702C379.194 219.702 378.072 229.421 379.944 235.466C381.815 241.511 355.303 241.678 355.317 236.708C355.335 231.061 358.03 226.345 355.491 216.666C352.952 206.988 379.194 219.702 379.194 219.702Z" fill="#EEA886"/>
<path d="M358.628 220.938C358.628 220.938 366.999 229.659 377.703 221.848C377.703 221.848 376.819 227.422 369.12 228.141C361.421 228.861 358.628 220.938 358.628 220.938Z" fill="#A77860"/>
<path d="M369.111 161.418C369.111 161.418 390.266 167.678 387.244 197.037C384.221 226.395 370.406 224.883 369.111 225.099C367.815 225.314 351.409 226.395 346.229 190.776C341.048 155.158 369.111 161.418 369.111 161.418Z" fill="#EEA886"/>
<path d="M363.65 174.51C363.65 174.51 375.145 192.795 387.244 197.038C387.244 197.038 393.851 166.355 366.565 159.926C339.28 153.498 343.554 190.917 345.59 200.895C345.59 200.895 351.274 186.215 363.65 174.51Z" fill="#252E3B"/>
<path d="M348.231 171.754C348.231 171.754 354.283 160.036 364.5 159.512C374.718 158.989 380.794 167.852 380.794 167.852C380.794 167.852 376.805 157.872 364.513 157.872C352.221 157.872 348.231 171.754 348.231 171.754Z" fill="#88C0FF"/>
<path d="M389.829 263.916L397.003 330.613H302.579L295.404 263.916H389.829Z" fill="#5FA0FF"/>
<path d="M300.217 327.506H393.813L386.728 261.63H293.131L300.217 327.506ZM394.731 328.328H299.479L292.216 260.807H387.468L394.731 328.328Z" fill="#5FA0FF"/>
<path d="M352.061 296.189C352.909 300.338 350.974 304.239 347.738 304.9C344.503 305.561 341.193 302.734 340.345 298.585C339.496 294.435 341.432 290.535 344.667 289.873C347.904 289.213 351.213 292.04 352.061 296.189Z" fill="#5189DB"/>
<path d="M388.076 323.909H405.696V330.613H388.076V323.909Z" fill="#5FA0FF"/>
<path d="M333.291 102.122C325.735 102.122 319.588 108.269 319.588 115.824C319.588 123.381 325.735 129.528 333.291 129.528C340.848 129.528 346.995 123.381 346.995 115.824C346.995 108.269 340.848 102.122 333.291 102.122ZM333.291 130.352C325.281 130.352 318.765 123.835 318.765 115.824C318.765 107.814 325.281 101.298 333.291 101.298C341.302 101.298 347.818 107.814 347.818 115.824C347.818 123.835 341.302 130.352 333.291 130.352Z" fill="#64A4FF"/>
<path d="M4.4302 205.864L3.24341 205.52C4.49561 201.183 5.62238 198.54 5.66965 198.431L6.80441 198.916C6.79278 198.943 5.65876 201.606 4.4302 205.864ZM1.59975 220.287L0.370816 220.161C0.618333 217.744 0.992309 215.258 1.48232 212.776L2.69338 213.016C2.2111 215.46 1.84326 217.906 1.59975 220.287ZM0.503413 235.094C0.183966 232.699 0.0138647 230.186 0 227.627L1.23517 227.619C1.24857 230.127 1.41504 232.587 1.72769 234.93L0.503413 235.094ZM4.73913 249.431C3.6588 247.229 2.75015 244.873 2.03839 242.432L3.22452 242.087C3.91581 244.461 4.7984 246.749 5.84775 248.888L4.73913 249.431ZM13.6656 261.42C11.8154 259.702 10.1266 257.825 8.64842 255.841L9.63886 255.103C11.0728 257.026 12.7103 258.847 14.5059 260.516L13.6656 261.42ZM164.283 261.851L164.127 260.626C166.718 260.295 169.151 260.109 171.567 260.053L171.594 261.288C169.223 261.342 166.83 261.525 164.283 261.851ZM186.144 262.764C183.757 262.212 181.326 261.808 178.918 261.566L179.041 260.337C181.501 260.586 183.984 260.997 186.422 261.56L186.144 262.764ZM149.847 264.754L149.541 263.558C152.2 262.877 154.568 262.326 156.781 261.869L157.031 263.077C154.837 263.531 152.487 264.08 149.847 264.754ZM199.958 267.657C197.681 266.58 195.401 265.631 193.177 264.836L193.594 263.673C195.854 264.482 198.174 265.446 200.487 266.541L199.958 267.657ZM135.581 268.689L135.246 267.501C136.28 267.211 137.303 266.92 138.315 266.635C139.688 266.247 141.04 265.864 142.377 265.49L142.709 266.68C141.374 267.054 140.022 267.436 138.652 267.823C137.639 268.11 136.615 268.398 135.581 268.689ZM26.0829 269.714C23.7693 268.609 21.5756 267.376 19.5638 266.043L20.2453 265.013C22.21 266.313 24.3527 267.52 26.6154 268.6L26.0829 269.714ZM121.236 272.481L120.947 271.28C123.214 270.737 125.557 270.142 128.111 269.462L128.43 270.656C125.865 271.338 123.512 271.935 121.236 272.481ZM40.1631 274.609C37.6743 274.006 35.2652 273.307 33.0017 272.528L33.4034 271.361C35.6298 272.125 38.0026 272.814 40.4539 273.408L40.1631 274.609ZM106.685 275.466L106.481 274.247C108.861 273.849 111.302 273.392 113.739 272.89L113.988 274.1C111.536 274.605 109.079 275.063 106.685 275.466ZM54.8452 277.035C52.3123 276.785 49.8297 276.463 47.4662 276.078L47.6644 274.859C50.0028 275.239 52.4603 275.558 54.9671 275.807L54.8452 277.035ZM91.9468 277.342L91.8398 276.113C94.2768 275.901 96.7454 275.637 99.1787 275.326L99.3351 276.551C96.886 276.863 94.3996 277.13 91.9468 277.342ZM69.6767 277.968C67.2369 277.899 64.7384 277.785 62.254 277.627L62.3312 276.395C64.8017 276.551 67.2853 276.665 69.712 276.734L69.6767 277.968ZM77.1078 278.043L77.0976 276.808C79.5606 276.788 82.0433 276.72 84.4756 276.605L84.5333 277.839C82.0861 277.954 79.5867 278.022 77.1078 278.043Z" fill="#C2BEBC"/>
<path d="M167.851 1.6416L167.719 0.413296C170.219 0.145309 172.728 0.00573349 175.176 -0.00170898L175.179 1.23309C172.775 1.24053 170.309 1.37826 167.851 1.6416ZM189.734 2.78707C187.338 2.26226 184.904 1.86675 182.499 1.60993L182.63 0.381676C185.08 0.64315 187.559 1.04605 189.999 1.58017L189.734 2.78707ZM153.447 4.52339L153.105 3.33607C155.54 2.63446 157.976 2.03519 160.345 1.55691L160.59 2.76753C158.253 3.23931 155.85 3.83015 153.447 4.52339ZM203.696 7.30658C201.329 6.30627 199.079 5.46045 196.814 4.71976L197.198 3.54634C199.495 4.29727 201.778 5.1552 204.178 6.16947L203.696 7.30658ZM139.608 9.55473L139.116 8.42134C141.442 7.4108 143.767 6.4803 146.025 5.654L146.449 6.81342C144.213 7.63135 141.912 8.55256 139.608 9.55473ZM216.917 13.8416C214.499 12.5156 212.361 11.3906 210.382 10.4024L210.933 9.29697C212.927 10.2926 215.079 11.425 217.511 12.7585L216.917 13.8416ZM126.388 16.1009L125.79 15.0197C128.004 13.7979 130.218 12.6347 132.373 11.5646L132.922 12.6701C130.784 13.7327 128.585 14.8866 126.388 16.1009ZM229.849 21.0615C227.755 19.9235 225.677 18.7538 223.372 17.4529L223.98 16.3773C226.279 17.6753 228.354 18.8432 230.439 19.9765L229.849 21.0615ZM308.748 23.5543L308.692 22.3205C311.149 22.2051 313.648 22.179 316.142 22.2451L316.111 23.4799C313.646 23.4148 311.177 23.4399 308.748 23.5543ZM113.732 23.7163L113.061 22.6797C115.176 21.3081 117.294 19.9821 119.356 18.7389L119.995 19.796C117.944 21.0327 115.836 22.3512 113.732 23.7163ZM330.764 24.8915C328.33 24.4904 325.874 24.1676 323.46 23.934L323.579 22.7048C326.02 22.9411 328.505 23.2678 330.965 23.6735L330.764 24.8915ZM294.149 25.3465L293.907 24.1359C296.329 23.6492 298.805 23.2491 301.264 22.9476L301.415 24.1731C298.985 24.4718 296.541 24.8655 294.149 25.3465ZM243.273 27.4765C241.099 26.6278 238.869 25.6471 236.456 24.4774L236.994 23.3664C239.378 24.5211 241.579 25.4889 243.723 26.3254L243.273 27.4765ZM345.125 28.2004C342.754 27.5016 340.355 26.8707 337.994 26.3245L338.272 25.1214C340.657 25.6732 343.081 26.3105 345.474 27.0159L345.125 28.2004ZM279.927 29.2659L279.579 28.0804C280.371 27.8478 281.18 27.5928 281.982 27.3239C283.526 26.8056 285.099 26.3198 286.661 25.8806L286.996 27.0699C285.454 27.5035 283.899 27.9827 282.375 28.4945C281.559 28.769 280.735 29.0286 279.927 29.2659ZM257.707 31.26C255.293 30.9585 252.822 30.4718 250.363 29.8158L250.681 28.6229C253.087 29.264 255.502 29.7395 257.859 30.0345L257.707 31.26ZM265.18 31.6443L265.153 30.4095C267.547 30.3564 269.998 30.1266 272.438 29.7255L272.638 30.9445C270.141 31.3549 267.633 31.5894 265.18 31.6443ZM359.02 33.1564C356.738 32.2017 354.422 31.3037 352.138 30.4876L352.554 29.3245C354.858 30.148 357.194 31.0543 359.496 32.0165L359.02 33.1564ZM372.336 39.5267C370.166 38.3561 367.952 37.2292 365.756 36.1778L366.289 35.063C368.503 36.1238 370.736 37.2599 372.922 38.4398L372.336 39.5267ZM384.993 47.142C382.962 45.7863 380.863 44.4556 378.753 43.1864L379.39 42.1284C381.517 43.4069 383.632 44.7488 385.679 46.1148L384.993 47.142ZM396.814 55.9922C396.793 55.9736 394.73 54.1423 391.036 51.3964L391.773 50.4054C395.515 53.1867 397.614 55.0514 397.635 55.0701L396.814 55.9922Z" fill="#C2BEBC"/>
<path d="M242.935 281.207L211.894 272.182L221.199 269.375L242.935 281.207Z" fill="#D6D6D6"/>
<path d="M242.935 281.207L231.332 269.553L224.19 271.004L242.935 281.207Z" fill="#E8E8E8"/>
<path d="M219.031 274.256L219.282 277.848L242.934 281.207L219.031 274.256Z" fill="#C2C2C2"/>
<path d="M86.6992 44.25L114.061 28.9476L104.655 28.327L86.6992 44.25Z" fill="#D6D6D6"/>
<path d="M86.6992 44.25L95.1185 30.7072L102.184 30.5193L86.6992 44.25Z" fill="#E8E8E8"/>
<path d="M107.768 32.4669L108.316 35.9144L86.6992 44.25L107.768 32.4669Z" fill="#C2C2C2"/>
<defs>
<linearGradient id="paint0_linear_728_11174" x1="360.097" y1="209.589" x2="503.762" y2="209.589" gradientUnits="userSpaceOnUse">
<stop stop-color="#96CBFF"/>
<stop offset="1" stop-color="#5599FF"/>
</linearGradient>
<linearGradient id="paint1_linear_728_11174" x1="77.9833" y1="121.302" x2="184.699" y2="110.339" gradientUnits="userSpaceOnUse">
<stop stop-color="#96CBFF"/>
<stop offset="1" stop-color="#5599FF"/>
</linearGradient>
</defs>
</svg>