<svg width="504" height="336" viewBox="0 0 504 336" fill="none" xmlns="http://www.w3.org/2000/svg">
<mask id="mask0_5355_18475" style="mask-type:luminance" maskUnits="userSpaceOnUse" x="360" y="137" width="144" height="145">
<path d="M408.955 232.141C396.501 219.453 396.691 199.07 409.38 186.616C422.069 174.161 442.451 174.352 454.905 187.041C467.36 199.729 467.17 220.112 454.481 232.565C441.792 245.019 421.41 244.829 408.955 232.141ZM484.942 241.455C487.944 236.47 490.177 231.147 491.649 225.663L503.518 223.388L503.641 210.26L503.763 197.13L491.938 194.635C490.569 189.124 488.436 183.761 485.528 178.72L492.307 168.727L483.109 159.357L473.913 149.986L463.795 156.579C458.809 153.577 453.487 151.344 448.003 149.873L445.728 138.003L432.599 137.88L419.47 137.758L416.975 149.583C411.463 150.952 406.102 153.086 401.06 155.994L391.066 149.214L381.696 158.411L372.327 167.608L378.919 177.727C375.916 182.713 373.683 188.033 372.213 193.519L360.342 195.794L360.22 208.923L360.098 222.051L371.924 224.546C373.291 230.057 375.426 235.42 378.334 240.462L371.554 250.454L380.75 259.825L389.948 269.196L400.066 262.603C405.053 265.604 410.374 267.838 415.859 269.309L418.133 281.179L431.263 281.301L444.391 281.424L446.886 269.597C452.398 268.23 457.76 266.096 462.801 263.188L472.794 269.968L482.165 260.771L491.535 251.574L484.942 241.455Z" fill="white"/>
</mask>
<g mask="url(#mask0_5355_18475)">
<path d="M408.955 232.141C396.501 219.453 396.691 199.07 409.38 186.616C422.069 174.161 442.451 174.352 454.905 187.041C467.36 199.729 467.17 220.112 454.481 232.565C441.792 245.019 421.41 244.829 408.955 232.141ZM484.942 241.455C487.944 236.47 490.177 231.147 491.649 225.663L503.518 223.388L503.641 210.26L503.763 197.13L491.938 194.635C490.569 189.124 488.436 183.761 485.528 178.72L492.307 168.727L483.109 159.357L473.913 149.986L463.795 156.579C458.809 153.577 453.487 151.344 448.003 149.873L445.728 138.003L432.599 137.88L419.47 137.758L416.975 149.583C411.463 150.952 406.102 153.086 401.06 155.994L391.066 149.214L381.696 158.411L372.327 167.608L378.919 177.727C375.916 182.713 373.683 188.033 372.213 193.519L360.342 195.794L360.22 208.923L360.098 222.051L371.924 224.546C373.291 230.057 375.426 235.42 378.334 240.462L371.554 250.454L380.75 259.825L389.948 269.196L400.066 262.603C405.053 265.604 410.374 267.838 415.859 269.309L418.133 281.179L431.263 281.301L444.391 281.424L446.886 269.597C452.398 268.23 457.76 266.096 462.801 263.188L472.794 269.968L482.165 260.771L491.535 251.574L484.942 241.455Z" fill="url(#paint0_linear_5355_18475)"/>
</g>
<mask id="mask1_5355_18475" style="mask-type:luminance" maskUnits="userSpaceOnUse" x="77" y="61" width="109" height="110">
<path d="M115.997 134.327C105.777 125.853 104.363 110.698 112.838 100.479C121.313 90.259 136.467 88.8446 146.686 97.3197C156.907 105.794 158.32 120.949 149.846 131.168C141.371 141.387 126.217 142.802 115.997 134.327ZM173.152 135.447C175.001 131.514 176.253 127.39 176.927 123.204L185.571 120.609L184.66 110.848L183.749 101.086L174.775 100.135C173.337 96.1445 171.343 92.3248 168.798 88.8018L173.072 80.8617L165.525 74.603L157.978 68.3444L150.966 74.014C147.032 72.1641 142.909 70.9117 138.723 70.238L136.128 61.5944L126.366 62.5054L116.604 63.4164L115.653 72.3912C111.663 73.8279 107.843 75.822 104.321 78.367L96.3806 74.094L90.121 81.6405L83.8633 89.187L89.532 96.1994C87.683 100.133 86.4306 104.256 85.7569 108.443L77.1133 111.038L78.0233 120.8L78.9352 130.562L87.9091 131.513C89.3468 135.502 91.3409 139.322 93.8859 142.844L89.612 150.785L97.1594 157.044L104.706 163.302L111.718 157.633C115.652 159.482 119.775 160.735 123.961 161.409L126.557 170.053L136.318 169.142L146.08 168.231L147.031 159.256C151.021 157.819 154.84 155.825 158.363 153.279L166.303 157.553L172.562 150.007L178.821 142.459L173.152 135.447Z" fill="white"/>
</mask>
<g mask="url(#mask1_5355_18475)">
<path d="M115.997 134.327C105.777 125.853 104.363 110.698 112.838 100.479C121.313 90.259 136.467 88.8446 146.686 97.3197C156.907 105.794 158.32 120.949 149.846 131.168C141.371 141.387 126.217 142.802 115.997 134.327ZM173.152 135.447C175.001 131.514 176.253 127.39 176.927 123.204L185.571 120.609L184.66 110.848L183.749 101.086L174.775 100.135C173.337 96.1445 171.343 92.3248 168.798 88.8018L173.072 80.8617L165.525 74.603L157.978 68.3444L150.966 74.014C147.032 72.1641 142.909 70.9117 138.723 70.238L136.128 61.5944L126.366 62.5054L116.604 63.4164L115.653 72.3912C111.663 73.8279 107.843 75.822 104.321 78.367L96.3806 74.094L90.121 81.6405L83.8633 89.187L89.532 96.1994C87.683 100.133 86.4306 104.256 85.7569 108.443L77.1133 111.038L78.0233 120.8L78.9352 130.562L87.9091 131.513C89.3468 135.502 91.3409 139.322 93.8859 142.844L89.612 150.785L97.1594 157.044L104.706 163.302L111.718 157.633C115.652 159.482 119.775 160.735 123.961 161.409L126.557 170.053L136.318 169.142L146.08 168.231L147.031 159.256C151.021 157.819 154.84 155.825 158.363 153.279L166.303 157.553L172.562 150.007L178.821 142.459L173.152 135.447Z" fill="url(#paint1_linear_5355_18475)"/>
</g>
<path d="M462.831 332.887H462.009V274.389C462.009 261.372 451.42 250.783 438.403 250.783H378.217C364.746 250.783 353.788 239.825 353.788 226.355V117.01C353.788 103.994 343.199 93.4059 330.183 93.4059H176.717V92.5824H330.183C343.653 92.5824 354.611 103.541 354.611 117.01V226.355C354.611 239.371 365.2 249.961 378.217 249.961H438.403C451.874 249.961 462.831 260.919 462.831 274.389V332.887Z" fill="#64A4FF"/>
<path d="M216.054 55.531C216.054 55.531 225.342 92.5172 203.041 102.628C180.74 112.738 185.012 94.2257 185.012 94.2257C185.012 94.2257 175.865 91.6844 200.759 77.5713C212.491 70.9199 216.054 55.531 216.054 55.531Z" fill="#BBD070"/>
<path d="M274.457 58.7594C274.457 58.7594 279.029 90.9991 236.824 104.935C194.618 118.871 188.608 136.549 188.608 136.549C188.608 136.549 187.346 65.0925 274.457 58.7594Z" fill="#97A43C"/>
<path d="M188.419 123.419C175.905 118.643 205.651 93.0301 228.512 93.7215C251.373 94.4138 266.865 102.874 282.178 99.299C282.178 99.299 250.045 146.941 188.419 123.419Z" fill="#48753A"/>
<path d="M128.941 185.905C129.073 176.808 141.187 159.885 141.187 159.885C141.187 159.885 141.748 159.647 141.756 159.671C141.763 159.68 142.38 159.585 142.38 159.593C142.393 159.593 144.263 157.81 144.275 157.81C144.72 159.428 148.733 182.283 149.717 195.587C138.339 193.352 128.875 190.244 128.941 185.905ZM230.466 144.819C231.186 135.096 231.688 126.002 231.972 117.523C229.626 116.279 226.806 114.827 224.55 113.756C217.564 110.43 207.833 105.952 201.588 103.087C197.933 101.407 194.352 100.18 194.352 100.18C194.352 100.18 169.394 97.7882 167.368 97.9156C166.729 97.9529 163.61 99.0397 159.518 100.6C150.668 103.958 133.605 110.797 130.888 112.748C126.904 115.6 112.647 185.482 112.269 190.228C111.899 194.837 131.658 201.145 149.956 205.978C149.943 213.062 149.799 222.987 149.638 232.047C149.614 233.595 149.585 235.114 149.556 236.588H229.621C229.514 235.032 229.42 233.496 229.342 232.047C229.333 231.853 229.321 231.665 229.313 231.475C229.008 225.338 227.815 214.347 228.119 203.643C228.119 203.643 227.926 192.359 229.045 187.503C229.169 166.056 230.466 144.819 230.466 144.819Z" fill="#DBD8E3"/>
<path d="M231.947 232.047C231.421 228.256 230.923 224.468 230.473 220.76C230.473 220.739 230.466 220.727 230.466 220.706C230.321 219.471 230.173 218.253 230.033 217.039C230.025 216.98 230.021 216.915 230.013 216.845C229.427 211.737 228.943 206.837 228.593 202.351C228.329 198.913 228.568 195.555 229.04 192.27C230.432 169.328 231.125 145.14 231.125 145.14C231.857 135.241 232.277 125.987 232.557 117.363C232.557 117.363 201.218 102.551 198.377 101.703C198.377 101.703 204.322 115.662 208.78 146.861C210.492 158.844 213.666 179.015 215.971 199.602V199.605C217.218 210.716 219.556 222.032 221.335 232.047C221.606 233.595 221.866 235.11 222.104 236.588H232.594C232.371 235.078 232.158 233.563 231.947 232.047Z" fill="#323657"/>
<path d="M142.067 177.641C141.792 167.202 141.84 159.918 141.84 159.918C142.874 163.495 144.302 173.715 145.561 183.875C141.327 181.743 142.121 179.75 142.067 177.641ZM179.77 195.194C181.005 183.595 182.117 172.019 181.581 165.677C177.259 114.681 165.029 101.183 163.254 99.207C161.884 99.7299 156.664 101.69 155.136 102.294C146.772 105.592 129.722 111.635 127.425 113.286C123.44 116.139 107.731 189.4 107.258 194.137C106.94 197.34 127.441 204.033 148.357 210.006C148.163 215.74 148.706 223.829 146.8 232.276C146.467 233.774 145.974 234.72 145.896 236.701L175.052 236.587C175.229 235.08 175.414 233.569 175.6 232.046C176.155 227.489 176.736 222.822 177.312 217.861C186.056 220.124 192 221.582 192 221.582C192 221.582 200.213 207.697 202.596 202.075C203.003 201.115 192.432 198.575 179.77 195.194Z" fill="#323657"/>
<path d="M166.059 98.7158C166.059 98.7158 169.233 92.7177 168.355 75.6883C168.113 70.9706 193.137 86.8768 193.137 86.8768C193.137 86.8768 193.05 88.5024 192.996 90.6966C192.968 91.6104 192.951 92.6107 192.951 93.6398C192.951 93.9236 192.955 94.2074 192.955 94.4922C192.96 94.9574 192.964 95.4181 192.972 95.8796C192.984 96.4519 193.005 97.0111 193.033 97.5508C193.062 98.164 193.103 98.7437 193.162 99.275C193.264 100.304 193.869 102.12 194.088 102.618C195.236 105.265 175.427 105.417 166.059 98.7158Z" fill="#EEA987"/>
<path d="M187.038 109.548L191.649 115.744C191.649 115.744 188.947 119.362 184.148 116.69L187.038 109.548Z" fill="#E8734D"/>
<path d="M190.416 115.993C190.416 115.993 207.312 157.261 203.707 209.68L198.378 219.352L192.369 211.115C192.369 211.115 191.399 141.497 186.604 115.828L190.416 115.993Z" fill="#E8734D"/>
<path d="M191.976 103.769L187.039 109.547C187.039 109.547 179.113 108.012 176.787 103.872C174.46 99.7318 191.976 103.769 191.976 103.769Z" fill="#EEA987"/>
<path d="M193.109 98.7133C193.109 98.7133 192.536 103.117 187.039 109.546L193.039 117.607L196.287 100.884L193.109 98.7133Z" fill="#C4C1CC"/>
<path d="M167.567 93.4173C167.567 93.4173 179.025 106.378 187.039 109.547L183.312 118.764L165.023 98.59L167.567 93.4173Z" fill="#C4C1CC"/>
<path d="M285.366 210.678C285.366 210.678 270.156 195.926 260.18 193.473C255.568 192.338 249.494 185.972 243.722 178.487C241.82 176.023 239.953 173.437 238.178 170.877C238.173 170.872 238.173 170.866 238.173 170.866C231.091 160.641 225.542 150.841 225.542 150.841C225.542 150.841 204.609 126.311 221.407 115.375C221.407 115.375 228.606 115.22 232.555 117.364C236.614 119.569 245.275 137.643 246.743 140.844C248.212 144.041 264.119 173.77 265.183 174.438C266.25 175.105 268.024 177.549 274.389 180.977C282.181 185.172 294.422 197.451 294.422 197.451L285.366 210.678Z" fill="#323657"/>
<path d="M212.355 227.748C212.355 227.748 210.23 227.662 209.32 227.171C209.32 227.171 207.73 226.152 206.557 225.496C206.184 225.288 205.854 225.116 205.629 225.027C204.691 224.655 202.521 224.119 200.521 222.593C198.52 221.069 192 214.968 192 214.968L196.214 208.49L198.16 202.075C198.16 202.075 213.362 203.587 215.389 204.792C215.587 204.91 215.778 205.035 215.948 205.165C217.566 206.352 218.271 207.916 219.05 208.635C219.334 208.901 221.981 211.736 221.833 212.885C221.63 214.481 220.841 215.504 219.851 215.989C219.851 215.989 219.315 219.095 217.709 220.484C217.709 220.484 217.306 223.367 214.817 224.525C214.817 224.525 214.081 227.403 212.355 227.748Z" fill="#EFAA88"/>
<path d="M188.15 31.75C188.15 31.75 215.627 25.1266 209.84 59.914C204.051 94.7024 197.461 97.5255 180.723 90.5904C163.985 83.6543 165.148 61.4029 164.151 50.5149C163.154 39.6278 179.361 32.2581 188.15 31.75Z" fill="#EEA886"/>
<path d="M173.713 55.8416C173.306 52.7857 167.239 51.7529 166.819 56.3487C166.399 60.9454 169.754 68.9526 172.038 68.1263C174.323 67.3 174.277 60.0549 173.713 55.8416Z" fill="#EEA886"/>
<path d="M165.757 68.3008C165.757 68.3008 166.307 57.3588 170.294 56.9587C174.283 56.5586 174.961 60.9525 174.961 60.9525L179.005 61.655C179.005 61.655 177.589 52.0921 181.551 50.3595C185.514 48.6268 207.46 55.2549 210.619 52.3954C213.778 49.5369 211.987 30.1235 206.16 27.5487C200.334 24.974 184.262 19.2486 172.667 27.3478C172.667 27.3478 163.523 26.4405 162.277 33.8279C161.031 41.2143 163.194 62.8591 165.757 68.3008Z" fill="#16202E"/>
<path d="M203.346 202.077L192.001 221.582C192.001 221.582 161.946 213.837 154.934 211.859L170.964 192.78C170.964 192.78 194.599 198.18 203.346 202.077Z" fill="#323657"/>
<path d="M193.034 97.5488H193.03C178.293 96.046 172.58 84.7012 172.58 84.7012C181.849 93.8891 192.952 93.6379 192.952 93.6379C192.952 93.9217 192.956 94.2055 192.956 94.4902C192.96 94.9555 192.964 95.4161 192.972 95.8776C192.984 96.4499 193.006 97.0091 193.034 97.5488Z" fill="#A77860"/>
<path d="M394.116 276.3L394.114 276.301C393.811 276.411 393.487 276.478 393.15 276.497C393.075 276.501 393 276.502 392.924 276.502C392.606 276.497 392.299 276.447 392.008 276.359C391.605 276.239 391.234 276.048 390.91 275.797C390.792 275.707 390.681 275.605 390.576 275.5C389.967 274.882 389.594 274.032 389.607 273.097C389.61 272.853 389.64 272.617 389.694 272.388C389.719 272.277 389.747 272.168 389.783 272.062C390.238 270.718 391.516 269.759 393.011 269.779C394.085 269.792 395.036 270.309 395.64 271.1C396.082 271.679 396.339 272.401 396.33 273.183C396.311 274.621 395.393 275.836 394.116 276.3ZM396.551 270.442C395.744 269.373 394.469 268.674 393.026 268.657C391.033 268.63 389.326 269.91 388.72 271.702C388.573 272.136 388.491 272.599 388.485 273.082C388.477 273.645 388.576 274.184 388.758 274.682C389.05 275.481 389.562 276.173 390.222 276.685C390.879 277.194 391.68 277.525 392.557 277.604C392.673 277.614 392.791 277.622 392.91 277.623C392.985 277.624 393.059 277.621 393.133 277.618C393.158 277.617 393.185 277.618 393.211 277.617C393.66 277.593 394.093 277.502 394.5 277.355C396.202 276.737 397.426 275.116 397.452 273.197C397.465 272.164 397.127 271.209 396.551 270.442Z" fill="#4DA8F2"/>
<path d="M224.672 186.057C241.753 203.64 264.321 225.783 264.321 225.783L273.143 209.036C273.143 209.036 253.098 185.536 239.509 169.856C235.344 171.899 227.697 176.771 224.672 186.057Z" fill="#EEA886"/>
<path d="M214.123 209.699C214.123 209.699 218.721 211.921 219.922 212.911C221.123 213.902 225.988 217.544 227.168 218.401C228.346 219.258 225.388 221.695 216.69 217.927C207.99 214.158 214.123 209.699 214.123 209.699Z" fill="#EEA886"/>
<path d="M214.523 159.371L206.508 233.891H312.005L320.021 159.371H214.523Z" fill="#FFC955"/>
<path d="M212.62 229.629H317.289L325.216 155.933H220.546L212.62 229.629ZM318.028 230.453H211.703L219.806 155.11H326.132L318.028 230.453Z" fill="#FFC955"/>
<path d="M198.113 227.186H215.734V233.891H198.113V227.186Z" fill="#FFC955"/>
<mask id="mask2_5355_18475" style="mask-type:luminance" maskUnits="userSpaceOnUse" x="28" y="233" width="288" height="6">
<path d="M28.6035 233.743V238.283H315.316V233.743H28.6035Z" fill="white"/>
</mask>
<g mask="url(#mask2_5355_18475)">
<path d="M33.0144 233.743V238.283H28.6035V233.743H33.0144Z" fill="#96CBFF"/>
<path d="M37.4245 233.743V238.283H33.0137V233.743H37.4245Z" fill="#95CAFF"/>
<path d="M41.8367 233.743V238.283H37.4258V233.743H41.8367Z" fill="#94C9FF"/>
<path d="M46.2469 233.743V238.283H41.8359V233.743H46.2469Z" fill="#93C9FF"/>
<path d="M50.6567 233.743V238.283H46.2461V233.743H50.6567Z" fill="#92C8FF"/>
<path d="M55.0689 233.743V238.283H50.6582V233.743H55.0689Z" fill="#91C7FF"/>
<path d="M59.4799 233.743V238.283H55.0684V233.743H59.4799Z" fill="#90C6FF"/>
<path d="M63.8911 233.743V238.283H59.4805V233.743H63.8911Z" fill="#8FC6FF"/>
<path d="M68.3022 233.743V238.283H63.8906V233.743H68.3022Z" fill="#8EC5FF"/>
<path d="M72.7134 233.743V238.283H68.3027V233.743H72.7134Z" fill="#8DC4FF"/>
<path d="M77.1245 233.743V238.283H72.7129V233.743H77.1245Z" fill="#8CC3FF"/>
<path d="M81.5357 233.743V238.283H77.125V233.743H81.5357Z" fill="#8BC2FF"/>
<path d="M85.9458 233.743V238.283H81.5352V233.743H85.9458Z" fill="#8AC2FF"/>
<path d="M90.356 233.743V238.283H85.9453V233.743H90.356Z" fill="#89C1FF"/>
<path d="M94.7661 233.743V238.283H90.3555V233.743H94.7661Z" fill="#88C0FF"/>
<path d="M99.1792 233.743V238.283H94.7676V233.743H99.1792Z" fill="#87BFFF"/>
<path d="M103.588 233.743V238.283H99.1777V233.743H103.588Z" fill="#86BFFF"/>
<path d="M108 233.743V238.283H103.59V233.743H108Z" fill="#85BEFF"/>
<path d="M112.411 233.743V238.283H108V233.743H112.411Z" fill="#84BDFF"/>
<path d="M116.823 233.743V238.283H112.41V233.743H116.823Z" fill="#83BCFF"/>
<path d="M121.233 233.743V238.283H116.822V233.743H121.233Z" fill="#82BBFF"/>
<path d="M125.645 233.743V238.283H121.234V233.743H125.645Z" fill="#81BBFF"/>
<path d="M130.055 233.743V238.283H125.645V233.743H130.055Z" fill="#80BAFF"/>
<path d="M134.466 233.743V238.283H130.055V233.743H134.466Z" fill="#7FB9FF"/>
<path d="M138.877 233.743V238.283H134.467V233.743H138.877Z" fill="#7EB8FF"/>
<path d="M143.288 233.743V238.283H138.877V233.743H143.288Z" fill="#7DB7FF"/>
<path d="M147.698 233.743V238.283H143.287V233.743H147.698Z" fill="#7CB7FF"/>
<path d="M152.11 233.743V238.283H147.699V233.743H152.11Z" fill="#7BB6FF"/>
<path d="M156.521 233.743V238.283H152.109V233.743H156.521Z" fill="#7AB5FF"/>
<path d="M160.932 233.743V238.283H156.521V233.743H160.932Z" fill="#79B4FF"/>
<path d="M165.343 233.743V238.283H160.932V233.743H165.343Z" fill="#78B4FF"/>
<path d="M169.754 233.743V238.283H165.344V233.743H169.754Z" fill="#77B3FF"/>
<path d="M174.165 233.743V238.283H169.754V233.743H174.165Z" fill="#76B2FF"/>
<path d="M178.577 233.743V238.283H174.166V233.743H178.577Z" fill="#74B1FF"/>
<path d="M182.987 233.743V238.283H178.576V233.743H182.987Z" fill="#73B0FF"/>
<path d="M187.397 233.743V238.283H182.986V233.743H187.397Z" fill="#72B0FF"/>
<path d="M191.808 233.743V238.283H187.396V233.743H191.808Z" fill="#71AFFF"/>
<path d="M196.219 233.743V238.283H191.809V233.743H196.219Z" fill="#70AEFF"/>
<path d="M200.629 233.743V238.283H196.219V233.743H200.629Z" fill="#6FADFF"/>
<path d="M205.042 233.743V238.283H200.631V233.743H205.042Z" fill="#6EADFF"/>
<path d="M209.453 233.743V238.283H205.041V233.743H209.453Z" fill="#6DACFF"/>
<path d="M213.865 233.743V238.283H209.453V233.743H213.865Z" fill="#6CABFF"/>
<path d="M218.274 233.743V238.283H213.863V233.743H218.274Z" fill="#6BAAFF"/>
<path d="M222.686 233.743V238.283H218.275V233.743H222.686Z" fill="#6AA9FF"/>
<path d="M227.096 233.743V238.283H222.686V233.743H227.096Z" fill="#69A9FF"/>
<path d="M231.507 233.743V238.283H227.096V233.743H231.507Z" fill="#68A8FF"/>
<path d="M235.918 233.743V238.283H231.508V233.743H235.918Z" fill="#67A7FF"/>
<path d="M240.329 233.743V238.283H235.918V233.743H240.329Z" fill="#66A6FF"/>
<path d="M244.739 233.743V238.283H240.328V233.743H244.739Z" fill="#65A6FF"/>
<path d="M249.152 233.743V238.283H244.74V233.743H249.152Z" fill="#64A5FF"/>
<path d="M253.561 233.743V238.283H249.15V233.743H253.561Z" fill="#63A4FF"/>
<path d="M257.974 233.743V238.283H253.562V233.743H257.974Z" fill="#62A3FF"/>
<path d="M262.383 233.743V238.283H257.973V233.743H262.383Z" fill="#61A2FF"/>
<path d="M266.796 233.743V238.283H262.385V233.743H266.796Z" fill="#60A2FF"/>
<path d="M271.206 233.743V238.283H266.795V233.743H271.206Z" fill="#5FA1FF"/>
<path d="M275.618 233.743V238.283H271.207V233.743H275.618Z" fill="#5EA0FF"/>
<path d="M280.028 233.743V238.283H275.617V233.743H280.028Z" fill="#5D9FFF"/>
<path d="M284.438 233.743V238.283H280.027V233.743H284.438Z" fill="#5C9EFF"/>
<path d="M288.849 233.743V238.283H284.438V233.743H288.849Z" fill="#5B9EFF"/>
<path d="M293.26 233.743V238.283H288.85V233.743H293.26Z" fill="#5A9DFF"/>
<path d="M297.67 233.743V238.283H293.26V233.743H297.67Z" fill="#599CFF"/>
<path d="M302.083 233.743V238.283H297.672V233.743H302.083Z" fill="#589BFF"/>
<path d="M306.495 233.743V238.283H302.082V233.743H306.495Z" fill="#579BFF"/>
<path d="M310.905 233.743V238.283H306.494V233.743H310.905Z" fill="#569AFF"/>
<path d="M315.315 233.743V238.283H310.904V233.743H315.315Z" fill="#5599FF"/>
</g>
<path d="M490.523 335.158H242.111V330.617H490.523V335.158Z" fill="#FFC955"/>
<path d="M257.406 195.434C256.559 199.582 258.494 203.482 261.729 204.142C264.965 204.804 268.275 201.976 269.122 197.827C269.971 193.678 268.036 189.778 264.8 189.117C261.564 188.456 258.255 191.283 257.406 195.434Z" fill="#CFA345"/>
<path d="M458.611 165.898C458.611 165.898 461.044 170.024 462.073 170.698C463.466 171.613 462.593 172.538 461.931 172.538C461.269 172.539 457.885 172.78 457.14 171.935C456.394 171.09 456.025 168.554 455.332 167.892C454.639 167.228 453.922 164.593 455.67 163.952C457.213 163.386 458.611 165.898 458.611 165.898Z" fill="#6069A8"/>
<path d="M457.556 164.083C457.556 164.083 460.343 168.915 460.824 169.629C461.304 170.342 459.919 170.341 459.061 170.002C458.203 169.664 456.045 166.199 455.734 165.567C455.364 164.814 455.669 163.951 455.669 163.951L457.556 164.083Z" fill="#202338"/>
<path d="M454.732 166.682L455.376 171.636L455.717 171.65L455.611 168.087L454.732 166.682Z" fill="#6069A8"/>
<path d="M434.478 165.898C434.478 165.898 436.911 170.024 437.938 170.698C439.333 171.613 438.46 172.538 437.797 172.538C437.135 172.539 433.752 172.78 433.008 171.935C432.261 171.09 431.892 168.554 431.199 167.892C430.506 167.228 429.766 164.524 431.536 163.952C433.089 163.45 434.478 165.898 434.478 165.898Z" fill="#6069A8"/>
<path d="M433.572 164.094C433.572 164.094 436.213 168.915 436.693 169.629C437.173 170.342 435.788 170.341 434.93 170.002C434.072 169.664 431.914 166.199 431.604 165.567C431.234 164.814 431.537 163.951 431.537 163.951L433.572 164.094Z" fill="#202338"/>
<path d="M430.602 166.682L431.245 171.636L431.585 171.65L431.479 168.087L430.602 166.682Z" fill="#6069A8"/>
<path d="M423.682 128.353L445.703 138.388C445.703 138.388 448.162 139.187 448.437 141.916C449.296 150.435 455.669 163.95 455.669 163.95C457.713 164.95 457.556 164.082 457.556 164.082C456.268 159.946 454.699 142.9 454.139 136.046C454.022 134.594 453.948 133.599 453.933 133.282C453.922 133.066 453.684 132.782 453.277 132.452C450.255 130.002 437.821 124.929 437.821 124.929C428.485 124.692 423.682 128.353 423.682 128.353Z" fill="#202338"/>
<path d="M419.532 132.663C420.214 138.616 428.71 137.934 428.71 137.934H439.009C439.009 137.934 436.304 143.953 435.259 149.03C434.151 154.418 431.537 163.951 431.537 163.951C431.537 163.951 431.71 164.275 433.572 164.093C433.572 164.093 441.657 147.982 444.751 143.932C445.416 143.06 447.324 138.329 447.652 135.507C447.763 134.557 447.695 133.823 447.34 133.527C446.983 133.227 446.161 132.663 445.067 131.973C441.841 129.939 436.239 126.807 433.118 126.106C428.938 125.166 422.326 123.405 422.326 123.405C422.326 123.405 418.851 126.711 419.532 132.663Z" fill="#202338"/>
<path d="M426.54 86.8148C426.54 86.8148 424.998 83.8884 425.75 80.7721C426.501 77.6557 429.393 74.5506 433.626 75.9762C437.86 77.4026 441.283 80.692 438.745 84.4941C436.207 88.2971 441.041 90.0149 439.81 91.8247C438.577 93.6346 439.045 95.5236 439.566 95.9451C440.088 96.3657 441.77 97.8666 441.585 99.643C441.4 101.42 433.371 94.4655 433.371 94.4655C433.371 94.4655 428.998 85.6787 426.54 86.8148Z" fill="#464240"/>
<path d="M439.446 124.217C439.446 124.217 438.807 127.314 422.359 123.403C422.359 123.403 427.874 121.572 439.446 124.217Z" fill="#EB4747"/>
<path d="M422.173 124.272C421.918 124.759 421.664 125.245 421.409 125.732C427.422 125.907 433.434 126.082 439.446 126.258C438.495 123.073 438.803 118.761 438.969 115.487C439.173 111.49 441.381 108.709 441.146 104.666C442.335 104.858 442.541 104.895 443.732 105.077C441.911 99.886 441.286 97.315 435.627 95.3172C433.785 94.6667 432.574 94.5374 430.58 94.7021C424.025 95.2427 422.049 95.3199 418.83 101.259C423.869 102.061 423.04 103.87 424.568 108.883C425.313 111.328 426.091 114.056 425.691 116.634C425.298 119.173 422.173 121.957 422.173 124.272Z" fill="#5F8CC9"/>
<path d="M432.631 96.5754C429.948 96.0683 430.52 94.5767 430.52 94.5767C430.52 94.5767 430.643 93.7346 430.692 92.671C430.705 92.3983 430.712 92.1108 430.711 91.8195C430.71 91.3775 430.688 90.9253 430.637 90.5001C430.417 88.7004 435.506 89.7733 435.506 89.7733C435.506 89.7733 435.213 93.4173 435.915 94.5087C436.616 95.6012 435.314 97.0816 432.631 96.5754Z" fill="#EEA886"/>
<path d="M427.516 94.5663C427.516 94.5663 432.927 100.814 434.926 102.262C434.926 102.262 437.225 100.185 435.807 94.7013C435.807 94.7013 433.196 93.393 427.516 94.5663Z" fill="#EEA886"/>
<path d="M427.661 79.5298C427.661 79.5298 424.852 84.9435 427.639 90.0716C430.426 95.1997 435.901 87.8384 436.256 86.9748C436.61 86.1113 438.487 81.2261 434.753 79.7419C431.018 78.2568 428.457 78.0605 427.661 79.5298Z" fill="#EEA886"/>
<path d="M428.596 81.4527C428.596 81.4527 426.662 83.993 426.433 85.8708C426.433 85.8708 425.663 82.3218 427.84 78.9115C430.017 75.5011 435.553 78.7495 436.295 80.1118C437.036 81.4741 439.209 82.6745 435.559 88.5293C435.559 88.5293 428.993 83.9679 428.596 81.4527Z" fill="#464240"/>
<path d="M433.088 90.6125C433.088 90.6125 432.6 91.678 430.693 92.6699C430.706 92.3973 430.714 92.1097 430.713 91.8185C430.713 91.8185 432.003 91.6622 433.088 90.6125Z" fill="#A77860"/>
<path d="M404.688 119.401C404.688 119.401 403.352 119.994 402.719 119.725C402.086 119.455 401.106 119.403 400.797 119.402C400.384 119.401 399.09 118.941 399.114 119.445C399.135 119.95 401.213 120.303 401.638 120.461C402.063 120.619 400.366 121.553 400.208 121.968C400.051 122.383 401.966 125.106 403.046 124.33C404.126 123.554 404.712 122.005 404.932 121.907C405.152 121.809 405.743 121.373 405.743 121.373L404.688 119.401Z" fill="#EEA886"/>
<path d="M400.412 121.726C400.412 121.726 397.28 124.323 397.231 124.674C397.183 125.025 397.346 125.188 397.651 124.958C397.955 124.728 400.757 122.537 400.757 122.537C400.757 122.537 397.618 126.244 397.513 126.52C397.452 126.68 397.752 127.015 397.927 126.907C398.103 126.799 401.441 123.309 401.441 123.309C401.441 123.309 398.517 126.776 398.501 127.035C398.487 127.262 398.839 127.507 399.075 127.265C399.312 127.023 402.221 123.965 402.221 123.965C402.221 123.965 400.265 126.626 400.385 126.86C400.459 127.005 400.707 127.304 401.188 126.601C401.67 125.898 402.994 124.364 402.994 124.364L400.412 121.726Z" fill="#EEA886"/>
<path d="M437.934 137.935H428.71C428.71 137.935 420.213 138.616 419.532 132.664C418.85 126.711 422.325 123.406 422.325 123.406C422.325 123.406 426.814 124.602 430.733 125.548C432.696 125.131 435.061 124.86 437.821 124.93C437.821 124.93 454.434 130.42 453.934 133.31C453.934 133.31 446.985 129.594 437.934 137.935Z" fill="#FFC955"/>
<path d="M431.93 127.627L449.516 127.37L440.637 131.877L431.93 127.627Z" fill="#5E5853"/>
<path d="M437.392 125.379C437.392 125.379 433.436 126.911 428.587 125.526L428.359 123.715L438.344 124.271L437.392 125.379Z" fill="#5F8CC9"/>
<path d="M440.637 131.877L431.93 128.505V127.627L441.325 131.017L440.637 131.877Z" fill="#91887F"/>
<path d="M437.332 126.217C437.284 126.867 437.941 127.335 438.54 127.08L439.562 126.644C439.869 126.513 440.047 126.19 439.994 125.86C439.569 123.2 438.657 112.846 439.989 111.069C440.483 110.412 440.79 109.837 440.964 109.334C441.844 111.603 442.938 114.526 443.374 116.098L451.682 127.151L454.467 127.857C450.992 119.482 448.199 115.044 448.199 115.044C447.656 113.584 446.096 109.164 444.716 105.228C443.844 102.743 443.043 100.451 442.612 99.2189C442.395 98.5954 441.965 98.0678 441.397 97.7291C440.11 96.9596 437.966 95.7481 436.022 94.8036C436.013 94.7999 436.006 94.7971 435.997 94.7924C435.936 94.7626 435.875 94.7319 435.811 94.7031C435.809 94.7021 435.809 94.7021 435.809 94.7021C435.808 94.7012 435.807 94.7012 435.807 94.7012C439.505 100.295 438.062 116.093 437.333 126.195C437.333 126.202 437.332 126.21 437.332 126.217Z" fill="#EDDAD3"/>
<path d="M423.606 95.1793C422.422 95.3626 419.485 98.2128 417.926 101.091C416.145 104.375 414.334 108.114 412.976 109.345C410.479 111.607 403.491 119.602 403.158 119.408C403.031 119.334 405.075 121.796 405.334 121.911C405.465 121.968 416.822 112.127 417.913 110.628C418.947 109.206 421.713 103.24 422.541 103.372C422.541 103.372 422.541 103.373 422.543 103.375C422.543 103.376 422.543 103.377 422.543 103.377C422.607 103.513 423.613 105.695 424.566 108.883C424.582 108.936 424.598 108.989 424.614 109.042C425.271 111.266 425.21 113.681 424.855 116.393C424.586 118.442 423.057 121.789 422.135 123.42C422.024 123.615 422.052 123.987 422.172 124.271C422.172 124.271 422.172 124.271 422.172 124.272C422.244 124.441 422.348 124.579 422.475 124.625L425.81 125.86L426.593 126.151C427.157 126.36 427.749 126.25 428.191 125.929C428.553 125.667 428.816 125.261 428.879 124.771C429.621 119.068 430.559 113.241 431.306 111.046C434.587 101.415 430.024 94.1771 430.024 94.1771C430.024 94.1771 424.645 94.7913 423.606 95.1793Z" fill="#EDDAD3"/>
<path d="M440.637 131.877L445.867 117.596L462.73 117.872L457.745 131.032L440.637 131.877Z" fill="#6E6760"/>
<path d="M451.263 123.914C450.748 124.943 450.903 126.063 451.61 126.416C452.316 126.77 453.305 126.222 453.82 125.193C454.334 124.165 454.179 123.045 453.473 122.691C452.767 122.337 451.776 122.886 451.263 123.914Z" fill="#807066"/>
<path d="M433.487 84.9217C433.487 84.9217 434.567 86.6022 433.568 88.0529C432.57 89.5036 433.821 90.9282 434.036 92.4617C434.253 93.9952 429.871 98.0745 434.745 100.127C439.618 102.18 441.169 98.7873 439.926 96.9198C438.683 95.0532 437.8 93.5383 437.695 90.8751C437.589 88.2139 436.714 84.0638 433.487 84.9217Z" fill="#464240"/>
<path d="M409.668 77.9434H419.835V86.8652L418.283 85.3122H409.668V77.9434Z" fill="#FFCB55"/>
<path d="M352.597 191.028C352.597 191.028 330.438 212.114 341.217 228.533C351.997 244.952 357.041 230.57 357.041 230.57C357.041 230.57 364.332 232.771 353.511 212.528C348.41 202.986 352.597 191.028 352.597 191.028Z" fill="#BBD070"/>
<path d="M311.623 168.167C311.623 168.167 294.696 188.059 317.327 215.607C339.959 243.155 336.451 257.717 336.451 257.717C336.451 257.717 367.954 209.822 311.623 168.167Z" fill="#97A43C"/>
<path d="M341.555 249.4C352.086 251.529 343.565 220.907 327.772 211.571C311.979 202.234 297.85 201.324 289.004 192.333C289.004 192.333 289.693 238.912 341.555 249.4Z" fill="#48753A"/>
<path d="M272.727 262.832C272.727 262.832 273.21 261.637 273.289 261.455C273.368 261.276 273.833 260.982 274.395 260.69C274.959 260.4 275.85 260.258 275.945 260.312C276.041 260.364 276.162 260.373 276.286 260.626C276.409 260.877 276.373 261.158 276.373 261.158C276.373 261.158 276.672 261.398 276.604 261.741C276.604 261.741 276.874 261.979 276.732 262.355C276.732 262.355 276.989 262.595 276.863 262.859C276.863 262.859 276.397 263.154 276.256 263.314C276.116 263.473 275.106 264.022 274.056 264.398C274.056 264.398 272.944 264.42 272.727 262.832Z" fill="#EEA886"/>
<path d="M274.439 262.182C274.439 262.182 274.451 262.829 274.361 263.012C274.274 263.196 275.675 263.604 275.675 263.604C275.675 263.604 275.227 262.187 274.439 262.182Z" fill="#CF8C6C"/>
<path d="M248.275 325.496L248.888 323.589L251.478 324.008L251.091 325.729L248.275 325.496Z" fill="#3B3F66"/>
<path d="M269.51 325.272L269.655 326.32L272.49 325.847L272.339 324.282L269.51 325.272Z" fill="#555C94"/>
<path d="M263.367 295.897C263.367 295.897 262.95 298.173 262.465 300.699C262.38 301.139 262.295 301.587 262.208 302.032C261.734 304.466 261.255 306.807 261.078 307.292C260.676 308.394 251.992 324.305 251.992 324.305C251.992 324.305 248.442 324.034 248.309 323.578C248.309 323.578 255.589 306.301 255.547 305.671C255.507 305.042 256.437 287.33 256.437 287.33C256.437 287.33 263.175 294.874 263.367 295.897Z" fill="#354C70"/>
<path d="M267.335 286.32C267.335 286.32 270.733 303.719 271.023 305.051C271.314 306.382 272.601 324.205 272.601 324.205C272.601 324.205 271.837 325.78 269.017 325.187C269.017 325.187 265.171 306.038 264.847 305.396C263.589 302.906 257.416 290.842 256.818 289.12C256.219 287.398 256.395 285.389 256.395 285.389C256.395 285.389 260.982 282.811 267.335 286.32Z" fill="#354C70"/>
<path d="M265.906 263.785C265.906 263.785 267.397 267.499 267.771 267.39C268.146 267.28 272.428 262.251 272.428 262.251C272.428 262.251 274.388 264.697 274.125 264.977C273.76 265.368 268.702 273.777 268.005 273.625C267.309 273.473 264.2 268.333 264.2 268.333C264.2 268.333 264.024 264.457 265.906 263.785Z" fill="#DEB135"/>
<path d="M259.534 256.692C259.534 256.692 263.398 259.647 264.465 260.818C265.531 261.99 268.475 266.848 268.263 268.31C267.449 273.913 267.062 278.688 267.037 282.51C267.016 285.841 268.077 286.69 267.416 286.739C266.658 286.797 256.934 290.321 255.494 290.75C255.494 290.75 256.438 279.023 256.915 277.67C257.393 276.317 255.386 262.137 259.534 256.692Z" fill="#F2C344"/>
<path d="M284.423 251.088L285.289 255.455L286.157 259.824C286.157 259.824 281.195 258.271 275.565 259.39L275.182 257.463L274.797 255.524C280.428 254.406 284.423 251.088 284.423 251.088Z" fill="#D9D0C4"/>
<path d="M269.656 326.318C269.656 326.318 271.796 325.904 271.871 325.84C271.946 325.774 272.405 324.929 272.736 325.076C273.067 325.224 273.072 326.252 273.394 326.426C273.718 326.601 276.273 328.326 276.587 328.641C276.901 328.955 278.836 328.77 279.058 329.316C279.28 329.862 279.298 331.153 276.411 330.849C273.525 330.545 270.229 331.014 269.607 330.674C268.986 330.333 269.457 327.149 269.656 326.318Z" fill="#84BDFF"/>
<path d="M248.241 325.451C248.241 325.451 250.421 325.384 250.505 325.331C250.589 325.28 251.178 324.518 251.481 324.718C251.784 324.916 251.624 325.932 251.915 326.156C252.207 326.379 254.453 328.492 254.712 328.853C254.971 329.214 256.911 329.34 257.043 329.915C257.175 330.489 256.986 331.766 254.186 331.004C251.385 330.243 248.057 330.179 247.497 329.743C246.939 329.306 247.912 326.239 248.241 325.451Z" fill="#84BDFF"/>
<path d="M265.167 287.126C265.167 287.126 265.427 288.186 265.845 288.415C266.263 288.645 263.895 290.91 263.895 290.91C263.895 290.91 262.933 288.811 262.96 288.599C262.986 288.388 265.167 287.126 265.167 287.126Z" fill="#EEA987"/>
<path d="M257.818 261.271C257.818 261.271 255.045 274.464 254.817 275.815C254.602 277.093 262.948 289.299 262.948 289.299L265.723 287.653C265.723 287.653 258.989 275.406 258.999 274.848C259.008 274.289 262.231 263.654 262.231 263.654C262.231 263.654 263.578 261.338 261.189 260.213C258.799 259.089 257.818 261.271 257.818 261.271Z" fill="#FFD255"/>
<path d="M266.794 288.037C266.794 288.037 267.695 292.523 267.64 293.898C267.584 295.271 262.462 291.735 262.723 290.368L266.794 288.037Z" fill="#3C5780"/>
<path d="M259.533 256.689C259.533 256.689 266.572 264.378 266.138 263.526C264.592 260.487 263.514 259.974 263.536 259.407C263.553 258.973 263.722 257.709 263.751 257.286C263.806 256.48 263.866 255.825 263.866 255.825C263.866 255.825 260.371 250.916 260.525 252.589C260.679 254.262 259.533 256.689 259.533 256.689Z" fill="#EEA886"/>
<path d="M266.237 247.642C266.237 247.642 267.205 249.913 267.219 250.445C267.232 250.977 267.098 251.385 267.181 251.997C267.266 252.631 267.798 253.963 267.732 254.331C267.653 254.776 266.717 254.545 266.587 255.278C266.458 256.01 265.777 257.387 265.438 257.415C264.566 257.487 261.229 256.126 261.017 255.429C260.805 254.73 259.595 250.837 259.219 250.097C258.843 249.356 265.097 245.3 265.668 246.471C266.237 247.642 266.237 247.642 266.237 247.642Z" fill="#EEA886"/>
<path d="M257.732 249.326C257.291 247.399 259.506 247.161 259.506 247.161C259.506 247.161 260.949 245.481 264.401 245.681C267.853 245.88 267.326 250.386 267.326 250.386C267.326 250.386 264.938 250.028 263.899 250.292C263.899 250.292 263.772 252.216 263.885 252.692L262.583 252.576C262.583 252.576 262.728 250.868 262.103 250.788C261.478 250.707 261.268 254.403 260.104 255.217C260.104 255.217 260.092 254.956 259.947 254.7C259.714 254.294 259.353 253.613 259.042 252.815C258.534 251.699 257.958 250.313 257.732 249.326Z" fill="#16202E"/>
<path d="M262.97 251.2C262.97 251.2 262.486 249.896 261.341 250.742C260.508 251.358 261.365 253.558 262.175 253.547C262.986 253.537 263.314 252.339 262.97 251.2Z" fill="#EEA886"/>
<path d="M260.828 254.815C260.828 254.815 260.999 255.509 261.185 255.669C261.371 255.831 262.248 256.542 263.77 257.021L263.634 258.385C263.634 258.385 260.676 257.244 260.828 254.815Z" fill="#C48A6F"/>
<mask id="mask3_5355_18475" style="mask-type:luminance" maskUnits="userSpaceOnUse" x="273" y="259" width="4" height="6">
<path d="M276.351 264.17L276.848 263.933L274.596 259.157L273.334 259.751L275.242 263.802C275.455 264.252 275.9 264.383 276.351 264.17Z" fill="white"/>
</mask>
<g mask="url(#mask3_5355_18475)">
<path d="M273.387 259.159V264.385H273.334V259.159H273.387Z" fill="#96CBFF"/>
<path d="M273.442 259.159V264.385H273.387V259.159H273.442Z" fill="#95CAFF"/>
<path d="M273.495 259.159V264.385H273.441V259.159H273.495Z" fill="#94C9FF"/>
<path d="M273.55 259.159V264.385H273.496V259.159H273.55Z" fill="#93C9FF"/>
<path d="M273.603 259.159V264.385H273.549V259.159H273.603Z" fill="#92C8FF"/>
<path d="M273.658 259.159V264.385H273.604V259.159H273.658Z" fill="#91C7FF"/>
<path d="M273.711 259.159V264.385H273.658V259.159H273.711Z" fill="#90C6FF"/>
<path d="M273.766 259.159V264.385H273.711V259.159H273.766Z" fill="#8FC6FF"/>
<path d="M273.821 259.159V264.385H273.768V259.159H273.821Z" fill="#8EC5FF"/>
<path d="M273.875 259.159V264.385H273.82V259.159H273.875Z" fill="#8DC4FF"/>
<path d="M273.929 259.159V264.385H273.875V259.159H273.929Z" fill="#8CC3FF"/>
<path d="M273.982 259.159V264.385H273.928V259.159H273.982Z" fill="#8BC2FF"/>
<path d="M274.036 259.159V264.385H273.982V259.159H274.036Z" fill="#8AC2FF"/>
<path d="M274.091 259.159V264.385H274.037V259.159H274.091Z" fill="#89C1FF"/>
<path d="M274.144 259.159V264.385H274.09V259.159H274.144Z" fill="#88C0FF"/>
<path d="M274.199 259.159V264.385H274.145V259.159H274.199Z" fill="#87BFFF"/>
<path d="M274.252 259.159V264.385H274.199V259.159H274.252Z" fill="#86BFFF"/>
<path d="M274.306 259.159V264.385H274.252V259.159H274.306Z" fill="#85BEFF"/>
<path d="M274.361 259.159V264.385H274.307V259.159H274.361Z" fill="#84BDFF"/>
<path d="M274.416 259.159V264.385H274.361V259.159H274.416Z" fill="#83BCFF"/>
<path d="M274.47 259.159V264.385H274.416V259.159H274.47Z" fill="#82BBFF"/>
<path d="M274.522 259.159V264.385H274.469V259.159H274.522Z" fill="#81BBFF"/>
<path d="M274.576 259.159V264.385H274.521V259.159H274.576Z" fill="#80BAFF"/>
<path d="M274.63 259.159V264.385H274.576V259.159H274.63Z" fill="#7FB9FF"/>
<path d="M274.685 259.159V264.385H274.631V259.159H274.685Z" fill="#7EB8FF"/>
<path d="M274.74 259.159V264.385H274.686V259.159H274.74Z" fill="#7DB7FF"/>
<path d="M274.792 259.159V264.385H274.738V259.159H274.792Z" fill="#7CB7FF"/>
<path d="M274.848 259.159V264.385H274.793V259.159H274.848Z" fill="#7BB6FF"/>
<path d="M274.901 259.159V264.385H274.848V259.159H274.901Z" fill="#7AB5FF"/>
<path d="M274.954 259.159V264.385H274.9V259.159H274.954Z" fill="#79B4FF"/>
<path d="M275.01 259.159V264.385H274.955V259.159H275.01Z" fill="#78B4FF"/>
<path d="M275.063 259.159V264.385H275.01V259.159H275.063Z" fill="#77B3FF"/>
<path d="M275.117 259.159V264.385H275.062V259.159H275.117Z" fill="#76B2FF"/>
<path d="M275.17 259.159V264.385H275.117V259.159H275.17Z" fill="#74B1FF"/>
<path d="M275.225 259.159V264.385H275.17V259.159H275.225Z" fill="#73B0FF"/>
<path d="M275.279 259.159V264.385H275.225V259.159H275.279Z" fill="#72B0FF"/>
<path d="M275.333 259.159V264.385H275.279V259.159H275.333Z" fill="#71AFFF"/>
<path d="M275.388 259.159V264.385H275.334V259.159H275.388Z" fill="#70AEFF"/>
<path d="M275.444 259.159V264.385H275.389V259.159H275.444Z" fill="#6FADFF"/>
<path d="M275.496 259.159V264.385H275.443V259.159H275.496Z" fill="#6EADFF"/>
<path d="M275.551 259.159V264.385H275.496V259.159H275.551Z" fill="#6DACFF"/>
<path d="M275.604 259.159V264.385H275.551V259.159H275.604Z" fill="#6CABFF"/>
<path d="M275.658 259.159V264.385H275.604V259.159H275.658Z" fill="#6BAAFF"/>
<path d="M275.712 259.159V264.385H275.658V259.159H275.712Z" fill="#6AA9FF"/>
<path d="M275.767 259.159V264.385H275.713V259.159H275.767Z" fill="#69A9FF"/>
<path d="M275.82 259.159V264.385H275.766V259.159H275.82Z" fill="#68A8FF"/>
<path d="M275.874 259.159V264.385H275.82V259.159H275.874Z" fill="#67A7FF"/>
<path d="M275.929 259.159V264.385H275.875V259.159H275.929Z" fill="#66A6FF"/>
<path d="M275.983 259.159V264.385H275.928V259.159H275.983Z" fill="#65A6FF"/>
<path d="M276.035 259.159V264.385H275.982V259.159H276.035Z" fill="#64A5FF"/>
<path d="M276.092 259.159V264.385H276.037V259.159H276.092Z" fill="#63A4FF"/>
<path d="M276.145 259.159V264.385H276.092V259.159H276.145Z" fill="#62A3FF"/>
<path d="M276.199 259.159V264.385H276.145V259.159H276.199Z" fill="#61A2FF"/>
<path d="M276.253 259.159V264.385H276.199V259.159H276.253Z" fill="#60A2FF"/>
<path d="M276.308 259.159V264.385H276.254V259.159H276.308Z" fill="#5FA1FF"/>
<path d="M276.361 259.159V264.385H276.307V259.159H276.361Z" fill="#5EA0FF"/>
<path d="M276.415 259.159V264.385H276.361V259.159H276.415Z" fill="#5D9FFF"/>
<path d="M276.468 259.159V264.385H276.414V259.159H276.468Z" fill="#5C9EFF"/>
<path d="M276.524 259.159V264.385H276.469V259.159H276.524Z" fill="#5B9EFF"/>
<path d="M276.576 259.159V264.385H276.523V259.159H276.576Z" fill="#5A9DFF"/>
<path d="M276.631 259.159V264.385H276.576V259.159H276.631Z" fill="#599CFF"/>
<path d="M276.684 259.159V264.385H276.631V259.159H276.684Z" fill="#589BFF"/>
<path d="M276.74 259.159V264.385H276.686V259.159H276.74Z" fill="#579BFF"/>
<path d="M276.794 259.159V264.385H276.74V259.159H276.794Z" fill="#569AFF"/>
<path d="M276.847 259.159V264.385H276.793V259.159H276.847Z" fill="#5599FF"/>
</g>
<path d="M275.794 260.382C275.794 260.382 274.385 261.155 274.482 261.398C274.579 261.64 274.76 261.67 274.76 261.67L274.325 262.251C274.325 262.251 274.254 262.799 274.871 262.716C274.871 262.716 274.752 263.222 275.338 263.071C275.338 263.071 275.408 263.438 275.692 263.417C275.976 263.395 276.862 262.86 276.862 262.86C276.862 262.86 276.998 262.662 276.731 262.355C276.731 262.355 276.888 262.003 276.604 261.741C276.604 261.741 276.684 261.44 276.373 261.159C276.373 261.159 276.503 260.471 275.945 260.312C275.945 260.312 275.854 260.349 275.794 260.382Z" fill="#DB9C7C"/>
<mask id="mask4_5355_18475" style="mask-type:luminance" maskUnits="userSpaceOnUse" x="270" y="255" width="7" height="6">
<path d="M271.672 260.189L276.639 259.263L275.829 255.19L270.902 256.313L271.672 260.189Z" fill="white"/>
</mask>
<g mask="url(#mask4_5355_18475)">
<path d="M270.99 255.19V260.189H270.902V255.19H270.99Z" fill="#96CBFF"/>
<path d="M271.079 255.19V260.189H270.99V255.19H271.079Z" fill="#95CAFF"/>
<path d="M271.167 255.19V260.189H271.078V255.19H271.167Z" fill="#94C9FF"/>
<path d="M271.255 255.19V260.189H271.168V255.19H271.255Z" fill="#93C9FF"/>
<path d="M271.344 255.19V260.189H271.256V255.19H271.344Z" fill="#92C8FF"/>
<path d="M271.432 255.19V260.189H271.344V255.19H271.432Z" fill="#91C7FF"/>
<path d="M271.52 255.19V260.189H271.432V255.19H271.52Z" fill="#90C6FF"/>
<path d="M271.607 255.19V260.189H271.52V255.19H271.607Z" fill="#8FC6FF"/>
<path d="M271.696 255.19V260.189H271.607V255.19H271.696Z" fill="#8EC5FF"/>
<path d="M271.784 255.19V260.189H271.695V255.19H271.784Z" fill="#8DC4FF"/>
<path d="M271.874 255.19V260.189H271.785V255.19H271.874Z" fill="#8CC3FF"/>
<path d="M271.961 255.19V260.189H271.873V255.19H271.961Z" fill="#8BC2FF"/>
<path d="M272.049 255.19V260.189H271.961V255.19H272.049Z" fill="#8AC2FF"/>
<path d="M272.137 255.19V260.189H272.049V255.19H272.137Z" fill="#89C1FF"/>
<path d="M272.226 255.19V260.189H272.139V255.19H272.226Z" fill="#88C0FF"/>
<path d="M272.313 255.19V260.189H272.225V255.19H272.313Z" fill="#87BFFF"/>
<path d="M272.403 255.19V260.189H272.314V255.19H272.403Z" fill="#86BFFF"/>
<path d="M272.491 255.19V260.189H272.402V255.19H272.491Z" fill="#85BEFF"/>
<path d="M272.579 255.19V260.189H272.49V255.19H272.579Z" fill="#84BDFF"/>
<path d="M272.668 255.19V260.189H272.58V255.19H272.668Z" fill="#83BCFF"/>
<path d="M272.756 255.19V260.189H272.668V255.19H272.756Z" fill="#82BBFF"/>
<path d="M272.844 255.19V260.189H272.756V255.19H272.844Z" fill="#81BBFF"/>
<path d="M272.931 255.19V260.189H272.844V255.19H272.931Z" fill="#80BAFF"/>
<path d="M273.02 255.19V260.189H272.932V255.19H273.02Z" fill="#7FB9FF"/>
<path d="M273.108 255.19V260.189H273.02V255.19H273.108Z" fill="#7EB8FF"/>
<path d="M273.197 255.19V260.189H273.109V255.19H273.197Z" fill="#7DB7FF"/>
<path d="M273.284 255.19V260.189H273.195V255.19H273.284Z" fill="#7CB7FF"/>
<path d="M273.374 255.19V260.189H273.285V255.19H273.374Z" fill="#7BB6FF"/>
<path d="M273.461 255.19V260.189H273.373V255.19H273.461Z" fill="#7AB5FF"/>
<path d="M273.549 255.19V260.189H273.461V255.19H273.549Z" fill="#79B4FF"/>
<path d="M273.637 255.19V260.189H273.549V255.19H273.637Z" fill="#78B4FF"/>
<path d="M273.727 255.19V260.189H273.639V255.19H273.727Z" fill="#77B3FF"/>
<path d="M273.814 255.19V260.189H273.727V255.19H273.814Z" fill="#76B2FF"/>
<path d="M273.903 255.19V260.189H273.814V255.19H273.903Z" fill="#74B1FF"/>
<path d="M273.991 255.19V260.189H273.902V255.19H273.991Z" fill="#73B0FF"/>
<path d="M274.079 255.19V260.189H273.99V255.19H274.079Z" fill="#72B0FF"/>
<path d="M274.166 255.19V260.189H274.078V255.19H274.166Z" fill="#71AFFF"/>
<path d="M274.255 255.19V260.189H274.166V255.19H274.255Z" fill="#70AEFF"/>
<path d="M274.344 255.19V260.189H274.256V255.19H274.344Z" fill="#6FADFF"/>
<path d="M274.432 255.19V260.189H274.344V255.19H274.432Z" fill="#6EADFF"/>
<path d="M274.521 255.19V260.189H274.434V255.19H274.521Z" fill="#6DACFF"/>
<path d="M274.608 255.19V260.189H274.52V255.19H274.608Z" fill="#6CABFF"/>
<path d="M274.698 255.19V260.189H274.609V255.19H274.698Z" fill="#6BAAFF"/>
<path d="M274.785 255.19V260.189H274.697V255.19H274.785Z" fill="#6AA9FF"/>
<path d="M274.874 255.19V260.189H274.785V255.19H274.874Z" fill="#69A9FF"/>
<path d="M274.961 255.19V260.189H274.873V255.19H274.961Z" fill="#68A8FF"/>
<path d="M275.05 255.19V260.189H274.961V255.19H275.05Z" fill="#67A7FF"/>
<path d="M275.138 255.19V260.189H275.051V255.19H275.138Z" fill="#66A6FF"/>
<path d="M275.227 255.19V260.189H275.139V255.19H275.227Z" fill="#65A6FF"/>
<path d="M275.315 255.19V260.189H275.227V255.19H275.315Z" fill="#64A5FF"/>
<path d="M275.403 255.19V260.189H275.314V255.19H275.403Z" fill="#63A4FF"/>
<path d="M275.49 255.19V260.189H275.402V255.19H275.49Z" fill="#62A3FF"/>
<path d="M275.579 255.19V260.189H275.49V255.19H275.579Z" fill="#61A2FF"/>
<path d="M275.667 255.19V260.189H275.578V255.19H275.667Z" fill="#60A2FF"/>
<path d="M275.756 255.19V260.189H275.668V255.19H275.756Z" fill="#5FA1FF"/>
<path d="M275.844 255.19V260.189H275.756V255.19H275.844Z" fill="#5EA0FF"/>
<path d="M275.932 255.19V260.189H275.844V255.19H275.932Z" fill="#5D9FFF"/>
<path d="M276.022 255.19V260.189H275.934V255.19H276.022Z" fill="#5C9EFF"/>
<path d="M276.109 255.19V260.189H276.021V255.19H276.109Z" fill="#5B9EFF"/>
<path d="M276.198 255.19V260.189H276.109V255.19H276.198Z" fill="#5A9DFF"/>
<path d="M276.286 255.19V260.189H276.197V255.19H276.286Z" fill="#599CFF"/>
<path d="M276.373 255.19V260.189H276.285V255.19H276.373Z" fill="#589BFF"/>
<path d="M276.461 255.19V260.189H276.373V255.19H276.461Z" fill="#579BFF"/>
<path d="M276.55 255.19V260.189H276.461V255.19H276.55Z" fill="#569AFF"/>
<path d="M276.639 255.19V260.189H276.551V255.19H276.639Z" fill="#5599FF"/>
</g>
<path d="M273.33 261.426C273.33 261.426 274.433 261.395 275.042 261.641C275.179 261.697 275.303 261.776 275.303 261.926C275.303 262.074 275.087 262.264 274.611 262.302C274.133 262.34 273.535 262.607 273.535 262.607C273.535 262.607 273.033 262.502 273.33 261.426Z" fill="#EEA886"/>
<path d="M262.466 300.701C262.381 301.141 262.297 301.588 262.209 302.033L259.389 294.568C259.761 295.321 262.466 300.701 262.466 300.701Z" fill="#293B57"/>
<path d="M107.263 211.758H62.762C59.4745 211.758 56.8086 209.094 56.8086 205.806V135.507C56.8086 132.22 59.4745 129.554 62.762 129.554H107.263C110.551 129.554 113.217 132.22 113.217 135.507V205.806C113.217 209.094 110.551 211.758 107.263 211.758Z" fill="#FFC955"/>
<path d="M107.224 182.641H104.301V204.883H107.224V182.641Z" fill="#E3F2FF"/>
<path d="M101.449 185.134H98.5273V204.883H101.449V185.134Z" fill="#E3F2FF"/>
<path d="M95.1747 188.375H92.252V204.883H95.1747V188.375Z" fill="#E3F2FF"/>
<path d="M88.7333 192.464H85.8105V204.883H88.7333V192.464Z" fill="#E3F2FF"/>
<path d="M68.371 189.828L67.7383 189.602L73.2488 174.141L85.2004 170.98L89.4956 154.01L98.7199 149.94L100.785 136.744L101.449 136.848L99.3266 150.406L90.0679 154.494L85.7559 171.529L73.7634 174.702L68.371 189.828Z" fill="#E3F2FF"/>
<path d="M86.866 170.12C87.4932 170.887 87.3796 172.016 86.6129 172.644C85.8462 173.271 84.7156 173.157 84.0884 172.39C83.4612 171.624 83.5757 170.493 84.3424 169.867C85.1092 169.241 86.2388 169.353 86.866 170.12Z" fill="#FFC955"/>
<path d="M84.5565 170.128C83.934 170.637 83.8409 171.555 84.3499 172.178C84.8589 172.8 85.7783 172.893 86.3999 172.384C87.0224 171.876 87.1154 170.955 86.6064 170.334C86.0984 169.712 85.1781 169.619 84.5565 170.128ZM86.826 172.905C85.9169 173.648 84.5723 173.513 83.8298 172.603C83.0863 171.694 83.2212 170.349 84.1303 169.606C85.0395 168.863 86.3841 168.998 87.1275 169.907C87.8701 170.817 87.7361 172.161 86.826 172.905Z" fill="#E3F2FF"/>
<path d="M91.219 153.222C91.8461 153.989 91.7326 155.119 90.9659 155.745C90.1982 156.372 89.0676 156.259 88.4423 155.492C87.8151 154.725 87.9286 153.595 88.6954 152.969C89.4621 152.341 90.5918 152.455 91.219 153.222Z" fill="#FFC955"/>
<path d="M88.9083 153.227C88.2857 153.735 88.1927 154.656 88.7017 155.277C89.2107 155.9 90.13 155.992 90.7525 155.484C91.3741 154.975 91.4672 154.056 90.9582 153.433C90.4501 152.811 89.5298 152.718 88.9083 153.227ZM91.1778 156.005C90.2687 156.748 88.9241 156.613 88.1806 155.703C87.438 154.793 87.573 153.449 88.4821 152.706C89.3912 151.963 90.7349 152.098 91.4783 153.007C92.2218 153.917 92.0878 155.261 91.1778 156.005Z" fill="#E3F2FF"/>
<path d="M100.299 149.034C100.926 149.801 100.813 150.931 100.045 151.558C99.2784 152.185 98.1488 152.071 97.5216 151.305C96.8954 150.538 97.0089 149.407 97.7756 148.78C98.5424 148.154 99.672 148.267 100.299 149.034Z" fill="#FFC955"/>
<path d="M97.9893 149.041C97.3678 149.55 97.2756 150.47 97.7846 151.092C98.2927 151.715 99.2121 151.807 99.8346 151.298C100.457 150.79 100.548 149.87 100.04 149.248C99.5321 148.626 98.6119 148.533 97.9893 149.041ZM100.26 151.819C99.3507 152.563 98.0061 152.427 97.2626 151.518C96.5201 150.608 96.655 149.264 97.5641 148.521C98.4741 147.778 99.8178 147.913 100.561 148.822C101.305 149.731 101.169 151.076 100.26 151.819Z" fill="#E3F2FF"/>
<path d="M74.9621 173.438C75.5892 174.206 75.4757 175.335 74.709 175.962C73.9413 176.589 72.8117 176.476 72.1845 175.709C71.5573 174.942 71.6708 173.812 72.4376 173.185C73.2053 172.558 74.3349 172.672 74.9621 173.438Z" fill="#FFC955"/>
<path d="M72.6522 173.446C72.0297 173.954 71.9367 174.874 72.4456 175.496C72.9537 176.118 73.874 176.211 74.4956 175.703C75.1181 175.194 75.2111 174.274 74.7021 173.652C74.1941 173.029 73.2738 172.937 72.6522 173.446ZM74.9218 176.224C74.0126 176.966 72.668 176.831 71.9255 175.921C71.182 175.013 71.3169 173.668 72.226 172.925C73.1352 172.183 74.4798 172.317 75.2232 173.226C75.9658 174.136 75.8309 175.48 74.9218 176.224Z" fill="#E3F2FF"/>
<path d="M79.4711 156.607H64.0896C63.3787 156.607 62.8027 156.03 62.8027 155.32V154.174C62.8027 153.463 63.3787 152.887 64.0896 152.887H79.4711C80.182 152.887 80.7589 153.463 80.7589 154.174V155.32C80.7589 156.03 80.182 156.607 79.4711 156.607Z" fill="#EBEBEB"/>
<path d="M79.4711 150.104H64.0896C63.3787 150.104 62.8027 149.528 62.8027 148.816V147.671C62.8027 146.96 63.3787 146.383 64.0896 146.383H79.4711C80.182 146.383 80.7589 146.96 80.7589 147.671V148.816C80.7589 149.528 80.182 150.104 79.4711 150.104Z" fill="#EBEBEB"/>
<path d="M49.9125 159.599C49.9125 159.599 49.3923 164.734 50.3405 166.021C50.3405 166.021 47.8291 165.474 47.2475 164.61C46.6659 163.745 49.9125 159.599 49.9125 159.599Z" fill="#16202E"/>
<path d="M65.5964 175.997C65.5964 175.997 66.5074 175.385 66.6498 175.296C66.7912 175.207 67.2593 175.221 67.7952 175.285C68.3312 175.348 69.0263 175.675 69.0682 175.759C69.1101 175.84 69.1919 175.906 69.1584 176.142C69.124 176.378 68.9658 176.56 68.9658 176.56C68.9658 176.56 69.0607 176.871 68.8495 177.079C68.8495 177.079 68.9258 177.376 68.6457 177.574C68.6457 177.574 68.7127 177.865 68.4978 177.992C68.4978 177.992 68.0288 177.977 67.8539 178.023C67.678 178.067 66.7047 177.971 65.7853 177.736C65.7853 177.736 64.759 177.515 65.5964 175.997Z" fill="#EEA886"/>
<path d="M67.1473 176.421C67.1473 176.421 66.8728 176.9 66.7277 176.996C66.5825 177.091 67.4293 178.002 67.4293 178.002C67.4293 178.002 67.7196 176.771 67.1473 176.421Z" fill="#CF8C6C"/>
<path d="M65.0563 176.085C65.0563 176.085 65.6295 176.022 65.984 175.858C66.3376 175.694 65.918 177.643 65.918 177.643C65.918 177.643 65.0591 177.05 64.4989 177.034C63.9388 177.015 65.0563 176.085 65.0563 176.085Z" fill="#EEA886"/>
<path d="M41.3043 227.976C41.3043 227.976 43.0963 230.595 43.7211 231.152C43.7211 231.152 44.9719 231.801 45.01 232.319C45.0836 233.299 45.1357 233.877 43.4907 233.922C41.8455 233.969 40.818 233.917 40.5163 232.922C40.2157 231.925 39.6959 231.144 39.6959 231.144L39.5705 233.736H39.1998C39.1998 233.736 39.034 231.138 39.0103 230.767C38.9878 230.396 38.7443 228.972 39.5265 228.34C40.3084 227.71 41.3043 227.976 41.3043 227.976Z" fill="#162D40"/>
<path d="M43.9602 231.287C43.9602 231.287 43.0711 231.538 42.0138 231.272C40.9561 231.006 39.9409 228.474 39.6318 228.263L39.3574 227.241H41.4191C41.4191 227.241 41.4366 227.997 41.7691 228.644C42.1025 229.291 43.9602 231.287 43.9602 231.287Z" fill="#162D40"/>
<path d="M52.9369 226.998C52.9369 226.998 53.2058 227.633 53.7129 228.295C54.0861 228.78 55.2427 230.774 55.7526 230.912C56.2616 231.051 57.837 231.329 57.9756 232.209C58.1152 233.09 58.1841 233.715 56.6319 233.785C55.0798 233.854 54.0609 233.947 53.3193 232.858C52.5786 231.769 51.3969 230.981 51.3969 230.981V233.822H50.7948C50.7948 233.822 50.5175 230.866 50.3547 230.658C50.1928 230.449 49.7759 228.179 51.2117 226.998C52.6484 225.816 52.9369 226.998 52.9369 226.998Z" fill="#162D40"/>
<path d="M55.7523 230.912C55.7523 230.912 54.3621 231.259 53.8289 230.912C53.2967 230.565 51.4849 227.504 50.8848 227.32C50.8848 227.32 51.4663 226.14 52.9366 226.997C52.9366 226.997 55.3578 230.402 55.7523 230.912Z" fill="#162D40"/>
<path d="M40.5163 184.459C40.5163 184.459 38.5565 187.007 38.0251 190.031C37.4933 193.053 38.3395 203.199 38.3158 204.693C38.2929 206.188 36.9982 210.836 37.2751 213.65C37.5533 216.465 39.009 228.213 39.009 228.213L42.4046 228.151C42.4046 228.151 41.7242 215.475 41.898 214.294C42.0713 213.112 42.6249 208.087 42.694 207.599C42.7638 207.113 46.5624 194.25 46.5624 192.071C46.5624 189.891 45.242 180.904 40.5163 184.459Z" fill="#1D3B54"/>
<path d="M50.3603 185.455C50.3603 185.455 53.5799 197.744 53.9614 199.447C54.3438 201.149 55.1078 203.373 55.0733 203.685C55.0389 203.997 54.6686 209.244 54.6686 209.244L53.7529 227.104H50.3603C50.3603 227.104 49.2716 215.741 49.0966 213.448C48.9236 211.155 50.3482 207.611 50.0002 206.638C49.6531 205.665 44.4059 194.443 44.4059 194.443C44.4059 194.443 40.4342 181.889 50.3603 185.455Z" fill="#1D3B54"/>
<path d="M49.3642 167.062C49.3642 167.062 50.6511 167.184 51.6244 168.226C52.5977 169.268 53.5106 170.931 53.7655 171.486C54.0196 172.042 57.5918 177.195 57.7779 177.311C57.9631 177.426 59.5227 177.016 60.7742 176.911C62.8158 176.741 65.8688 175.702 65.8688 175.702L66.3219 178.008C66.3219 178.008 58.8127 180.431 57.08 180.004C54.9603 179.482 50.0826 173.224 50.0826 173.224C50.0826 173.224 46.4461 168.962 49.3642 167.062Z" fill="#EDDAD3"/>
<path d="M47.1165 166.159C47.1165 166.159 48.784 166.946 49.3637 167.061C49.9434 167.178 52.1897 170.097 52.5833 171.162C52.9769 172.228 52.5833 173.825 51.7728 175.701C50.9614 177.578 51.7272 178.203 51.3559 180.08C50.9856 181.956 50.9856 187.071 51.0554 188.113C51.1242 189.156 40.3318 191.122 38.1777 189.223C38.1777 189.223 39.6353 184.415 41.363 182.609C41.7356 182.219 41.6967 179.616 41.4418 178.968C41.1867 178.32 38.3144 173.478 38.3144 173.478C38.3144 173.478 38.1032 168.568 39.3565 167.595C40.4451 166.749 43.413 166.447 43.9455 166.262C44.4785 166.077 46.0287 165.996 47.1165 166.159Z" fill="#EDDAD3"/>
<path d="M47.6501 169.877L48.6634 168.691L47.7832 165.566C47.7832 165.566 47.4882 167.306 47.6501 169.877Z" fill="#D1C0BA"/>
<path d="M41.2978 167.062C41.2978 167.062 39.1957 166.46 37.9908 168.777C36.7865 171.093 37.0875 172.344 36.8094 173.386C36.5325 174.429 35.4202 181.401 35.3508 181.702C35.281 182.004 34.216 185.548 34.3542 186.636C34.4934 187.724 35.49 195.971 35.4439 196.249C35.3974 196.527 37.3656 195.983 37.3656 195.983C37.3656 195.983 37.2849 187.563 37.3547 186.867C37.4237 186.173 37.4928 182.525 38.0144 181.586C38.536 180.648 39.8209 174.915 40.099 174.325C40.377 173.734 43.0698 167.815 41.2978 167.062Z" fill="#EEA886"/>
<path d="M47.9128 164.233C47.9128 164.233 47.5806 167.293 47.6494 168.29C47.6494 168.29 45.9159 170.026 43.9453 166.262C43.9453 166.262 44.7751 164.711 44.1507 162.598C43.5266 160.484 47.9128 164.233 47.9128 164.233Z" fill="#EEA886"/>
<path d="M47.65 168.29V169.877L45.7871 168.226L47.65 168.29Z" fill="#EEA886"/>
<path d="M47.6509 169.877L46.8228 168.852L44.0329 166.072L42.9883 166.536L47.6509 169.877Z" fill="#D1C0BA"/>
<path d="M48.6635 168.688L49.9411 169.041L47.7832 165.564L48.6635 168.688Z" fill="#FAE6DE"/>
<path d="M46.8227 168.851L45.6558 170.721L42.9453 166.468L44.1065 165.877L46.8227 168.851Z" fill="#FAE6DE"/>
<path d="M52.7656 176.395C52.7656 176.395 53.1825 173.62 52.7386 171.933C52.7386 171.933 52.4939 173.294 51.8965 175.414L52.7656 176.395Z" fill="#D1C0BA"/>
<path d="M39.8105 176.025C39.8105 176.025 40.9639 172.21 41.0319 172.001C41.0319 172.001 40.953 175.507 40.5114 177.242C40.5114 177.242 40.0868 176.501 39.8105 176.025Z" fill="#D1C0BA"/>
<path d="M82.7631 156.907L64.6152 179.771L65.248 180.26L82.7631 156.907Z" fill="#54281A"/>
<path d="M68.9291 175.736C68.9291 175.736 67.5677 175.607 67.5194 175.825C67.4719 176.041 67.5864 176.15 67.5864 176.15L67.0011 176.352C67.0011 176.352 66.6893 176.703 67.163 176.941C67.163 176.941 66.8392 177.238 67.324 177.413C67.324 177.413 67.1974 177.705 67.4077 177.826C67.6189 177.946 68.4983 177.992 68.4983 177.992C68.4983 177.992 68.6881 177.919 68.6462 177.574C68.6462 177.574 68.9263 177.4 68.85 177.079C68.85 177.079 69.0519 176.906 68.9663 176.56C68.9663 176.56 69.386 176.137 69.0687 175.759C69.0687 175.759 68.9868 175.74 68.9291 175.736Z" fill="#DB9C7C"/>
<path d="M66.6935 175.295C66.6935 175.295 67.4844 175.8 67.7961 176.264C67.8659 176.371 67.9153 176.485 67.8445 176.589C67.7729 176.694 67.53 176.725 67.1764 176.525C66.8219 176.323 66.272 176.225 66.272 176.225C66.272 176.225 65.9686 175.913 66.6935 175.295Z" fill="#EEA886"/>
<path d="M46.5078 153.819C46.5078 153.819 49.5785 153.74 50.1424 157.375C50.7082 161.01 49.4026 164.204 48.8909 164.716C48.3781 165.227 45.3084 164.839 44.5854 162.951C43.8609 161.063 42.8025 159.687 42.9613 158.063C43.1205 156.44 42.7323 153.758 46.5078 153.819Z" fill="#EEA886"/>
<path d="M50.274 158.751C50.274 158.751 51.0965 154.217 47.0199 153.405C42.9446 152.594 41.515 155.382 41.1272 157.04C40.7378 158.699 41.1977 163.375 41.1977 163.375C41.1977 163.375 43.9151 165.757 45.5376 166.375C45.5376 166.375 44.1791 161.399 44.6909 157.834C44.6909 157.834 48.0035 158.354 50.2023 157.811C50.2023 157.811 50.2684 158.556 50.274 158.751Z" fill="#16202E"/>
<path d="M47.8442 164.918C47.8442 164.918 46.7779 164.91 45.3281 163.968C45.3281 163.968 46.348 165.25 47.7707 165.719C47.7707 165.719 47.8545 165.08 47.8442 164.918Z" fill="#A77860"/>
<path d="M43.2154 197.099L31.3572 199.035L29.9258 190.265L41.7837 188.329L43.2154 197.099Z" fill="#366E9C"/>
<path d="M35.0338 198.883C35.0338 198.883 34.8474 198.58 34.8314 198.408C34.8314 198.408 34.8237 198.094 34.8056 197.869C34.7995 197.799 34.7928 197.737 34.7842 197.698C34.7486 197.534 34.6214 197.183 34.6456 196.764C34.6715 196.345 35.2428 194.566 35.2428 194.566L36.2927 194.602L37.2802 194.495C37.2802 194.495 38.4731 196.773 38.4953 197.165C38.4968 197.203 38.4979 197.242 38.4953 197.279C38.4815 197.613 38.3307 197.855 38.3034 198.03C38.2936 198.095 38.1471 198.725 37.9745 198.812C37.7346 198.932 37.519 198.917 37.3601 198.826C37.3601 198.826 36.8792 199.041 36.5376 198.948C36.5376 198.948 36.1018 199.16 35.7088 198.923C35.7088 198.923 35.2422 199.089 35.0338 198.883Z" fill="#EEA886"/>
<path d="M41.297 167.062C41.297 167.062 39.1949 166.46 37.99 168.777C36.7857 171.093 36.7923 172.081 36.6305 173.212C36.4786 174.281 35.0101 180.625 34.9403 180.926C34.8713 181.227 34.3879 185.192 34.3533 186.636C34.3278 187.734 34.5852 194.928 34.5387 195.207C34.4925 195.485 37.8657 194.72 37.8657 194.72C37.8657 194.72 37.492 188.084 37.5621 187.389C37.6308 186.694 37.7791 183.23 38.119 182.211C38.5177 181.016 40.0927 174.99 40.3708 174.399C40.6489 173.808 43.0689 167.815 41.297 167.062Z" fill="#EDDAD3"/>
<path d="M149.94 229.43L150.159 227.394C150.159 227.394 147.287 227.373 146.951 227.615C146.951 227.615 147.195 229.325 147.225 229.581C147.256 229.838 149.94 229.43 149.94 229.43Z" fill="#5C544D"/>
<path d="M145.06 233.686C148.477 233.657 150.125 233.891 150.491 233.336C150.857 232.783 149.961 229.247 149.961 229.247C149.961 229.247 149.152 229.541 147.198 229.363C147.198 229.363 146.347 230.394 145.525 230.843C144.702 231.292 143.409 231.471 142.922 231.935C142.572 232.271 141.643 233.716 145.06 233.686Z" fill="#3C4145"/>
<path d="M130.707 229.43L130.923 227.394C130.923 227.394 128.052 227.373 127.717 227.615C127.717 227.615 127.96 229.325 127.991 229.581C128.021 229.838 130.707 229.43 130.707 229.43Z" fill="#5C544D"/>
<path d="M125.824 233.687C129.24 233.598 130.889 233.892 131.254 233.337C131.621 232.783 130.725 229.247 130.725 229.247C130.725 229.247 129.963 229.562 127.962 229.364C127.962 229.364 127.111 230.395 126.288 230.844C125.467 231.293 122.439 231.662 121.952 232.127C121.6 232.462 121.017 233.814 125.824 233.687Z" fill="#3C4145"/>
<path d="M145.997 183.457C145.997 183.457 147.426 187.701 147.238 191.359C147.05 195.015 147.977 199.019 148.355 202.839C148.778 207.098 150.508 217.182 150.57 219.46C150.633 221.74 150.301 229.015 150.301 229.015L146.84 229.096C146.84 229.096 143.933 211.466 143.182 209.667C142.429 207.868 138.695 195.043 138.57 193.605C138.444 192.165 145.997 183.457 145.997 183.457Z" fill="#DBD8E3"/>
<path d="M131.448 184.212C131.448 184.212 129.547 194.237 129.297 196.475C129.046 198.713 128.879 207.309 128.754 208.707C128.628 210.107 127.916 227.017 127.248 229.096H131.673C131.673 229.096 135.068 216.802 135.068 210.986C135.068 205.17 137.692 198.342 139.387 194.505C141.08 190.667 144.957 190.576 145.998 183.457C145.998 183.457 132.859 181.954 131.448 184.212Z" fill="#DBD8E3"/>
<path d="M140.439 149.952C140.439 149.952 136.952 148.649 135.345 151.304C133.736 153.958 133.891 159.274 135.649 159.927C137.408 160.581 140.049 160.239 140.947 158.578C141.848 156.917 142.66 154.515 142.621 152.91C142.582 151.305 141.356 150.415 140.439 149.952Z" fill="#EEA886"/>
<path d="M136.235 159.765C136.235 159.765 136.377 160.68 136.143 161.129C135.911 161.58 140.531 161.592 140.531 161.592C140.531 161.592 140.905 159.143 141.617 157.073C142.327 155.003 136.235 159.765 136.235 159.765Z" fill="#EEA886"/>
<path d="M141.615 157.071C141.615 157.071 141.296 157.596 139.995 157.392C138.693 157.189 137.105 155.457 136.562 155.267C136.018 155.076 136.014 154.758 136.014 154.758L135.673 155.254L135.096 155.291C135.096 155.291 135.623 153.742 134.828 153.11C134.034 152.478 135.653 148.097 139.827 149.556C139.827 149.556 142.818 150.147 142.999 151.965C143.192 153.9 142.333 156.162 141.615 157.071Z" fill="#FCCCA2"/>
<path d="M135.869 161.076C135.869 161.076 135.884 160.215 136.274 160.133C136.664 160.05 140.578 159.674 141.058 159.862V160.865C141.058 160.865 140.135 161.432 135.869 161.076Z" fill="#E2D2CA"/>
<path d="M136.1 154.096C136.174 153.79 136.95 152.916 137.249 153.853C137.547 154.788 136.799 156.047 136.382 155.939C135.965 155.831 135.916 154.872 136.1 154.096Z" fill="#EEA886"/>
<path d="M135.869 161.075C135.869 161.075 133.723 161.847 131.237 162.904C131.237 162.904 128.377 163.971 128.068 167.129C127.904 168.805 126.119 177.701 125.783 178.455C125.449 179.207 121.491 191.3 121.352 191.551C121.212 191.803 124.582 193.201 124.805 193.09C125.028 192.977 128.638 182.059 129 181.251C129 181.251 131.078 174.705 131.133 173.728C131.133 173.728 131.193 176.51 131.304 177.291C131.415 178.071 129.457 193.23 129.513 193.648C129.568 194.067 138.416 194.598 141.956 194.207C145.498 193.817 148.355 193.003 148.355 193.003C148.355 193.003 145.569 181.04 145.654 179.714C145.84 176.822 146.806 171.381 146.806 171.381L149.694 176.822L145.998 186.331L146.843 189.22C146.843 189.22 153.712 178.843 153.934 177.894C154.158 176.947 153.598 175.739 153.235 174.959C152.873 174.178 150.492 168.238 149.935 167.4C149.377 166.564 148.435 163.215 146.158 162.282C144.253 161.502 141.057 160.864 141.057 160.864L135.869 161.075Z" fill="#63A4FF"/>
<path d="M131.148 197.031L114.969 192.883L117.864 181.597L134.042 185.744L131.148 197.031Z" fill="#F25F54"/>
<path d="M119.943 194.018C119.943 194.018 119.48 194.764 119.311 194.978C119.143 195.19 119.727 195.325 119.976 195.109C120.228 194.894 119.943 194.018 119.943 194.018Z" fill="#C98462"/>
<path d="M123.311 196.57C123.311 196.57 123.585 196.286 123.644 196.103C123.644 196.103 123.725 195.762 123.798 195.524C123.821 195.447 123.844 195.381 123.861 195.341C123.938 195.171 124.16 194.82 124.232 194.359C124.303 193.898 124.504 191.828 124.504 191.828L123.251 191.511L122.245 191.299C122.245 191.299 120.069 193.469 119.953 193.891C119.942 193.932 119.932 193.973 119.927 194.013C119.863 194.38 119.969 194.68 119.958 194.876C119.954 194.948 119.965 195.668 120.132 195.803C120.364 195.99 120.602 196.025 120.797 195.962C120.797 195.962 121.268 196.309 121.662 196.287C121.662 196.287 122.087 196.621 122.568 196.456C122.568 196.456 123.037 196.746 123.311 196.57Z" fill="#DE9D7D"/>
<path d="M128.204 183.479C128.204 183.479 125.332 192.176 124.805 193.09C124.805 193.09 122.699 192.647 121.352 191.551L124.504 182.166L128.204 183.479Z" fill="#63A4FF"/>
<path d="M387.244 197.039C387.244 197.039 397.903 165.78 377.563 156.09C357.222 146.399 339.953 160.408 336.69 167.988C333.428 175.568 334.291 189.35 337.074 198.962C339.856 208.572 339.451 223.204 333.406 228.097C327.362 232.99 319.867 241.117 320.238 257.66C320.469 267.922 360.623 231.407 360.623 231.407L387.244 197.039Z" fill="#252E3B"/>
<path d="M358.664 234.22C358.664 234.22 341.945 237.926 335.309 241.804C328.674 245.682 313.938 263.521 313.938 271.191C313.938 278.861 378.382 286.026 378.382 286.026L390.597 330.621C390.597 330.621 423.171 322.672 427.048 316.08C430.927 309.487 414.677 262.24 411.896 252.678C409.059 242.924 397.384 236.122 383.811 234.22C370.238 232.319 358.664 234.22 358.664 234.22Z" fill="#FFD255"/>
<path d="M382.652 234.068C382.652 234.068 382.277 254.388 366.162 254.991C350.046 255.593 353.401 235.501 353.401 235.501C353.401 235.501 365.188 230.726 382.652 234.068Z" fill="#EEA886"/>
<path d="M389.469 172.753C389.469 172.753 395.169 205.435 378.936 229.043C362.123 253.493 389.469 172.753 389.469 172.753Z" fill="#252E3B"/>
<path d="M379.195 219.702C379.195 219.702 378.073 229.421 379.945 235.466C381.816 241.511 355.304 241.678 355.318 236.708C355.336 231.061 358.031 226.345 355.492 216.666C352.953 206.988 379.195 219.702 379.195 219.702Z" fill="#EEA886"/>
<path d="M358.629 220.942C358.629 220.942 367 229.663 377.704 221.852C377.704 221.852 376.82 227.426 369.12 228.145C361.422 228.865 358.629 220.942 358.629 220.942Z" fill="#A77860"/>
<path d="M369.112 161.42C369.112 161.42 390.267 167.68 387.245 197.039C384.222 226.397 370.407 224.885 369.112 225.101C367.816 225.316 351.41 226.397 346.23 190.778C341.049 155.16 369.112 161.42 369.112 161.42Z" fill="#EEA886"/>
<path d="M363.649 174.512C363.649 174.512 375.144 192.797 387.243 197.039C387.243 197.039 393.85 166.357 366.564 159.928C339.279 153.5 343.553 190.919 345.589 200.896C345.589 200.896 351.273 186.217 363.649 174.512Z" fill="#252E3B"/>
<path d="M348.232 171.758C348.232 171.758 354.284 160.04 364.501 159.516C374.719 158.993 380.795 167.856 380.795 167.856C380.795 167.856 376.806 157.876 364.514 157.876C352.222 157.876 348.232 171.758 348.232 171.758Z" fill="#88C0FF"/>
<path d="M389.829 263.92L397.003 330.617H302.579L295.404 263.92H389.829Z" fill="#5FA0FF"/>
<path d="M300.216 327.508H393.812L386.728 261.632H293.13L300.216 327.508ZM394.73 328.33H299.478L292.215 260.809H387.467L394.73 328.33Z" fill="#5FA0FF"/>
<path d="M352.062 296.189C352.91 300.338 350.974 304.239 347.739 304.9C344.504 305.561 341.194 302.734 340.346 298.585C339.497 294.435 341.433 290.535 344.668 289.873C347.905 289.213 351.214 292.04 352.062 296.189Z" fill="#5189DB"/>
<path d="M388.076 323.913H405.696V330.617H388.076V323.913Z" fill="#5FA0FF"/>
<path d="M333.29 102.125C325.734 102.125 319.587 108.272 319.587 115.828C319.587 123.385 325.734 129.532 333.29 129.532C340.847 129.532 346.994 123.385 346.994 115.828C346.994 108.272 340.847 102.125 333.29 102.125ZM333.29 130.355C325.28 130.355 318.764 123.839 318.764 115.828C318.764 107.818 325.28 101.302 333.29 101.302C341.301 101.302 347.817 107.818 347.817 115.828C347.817 123.839 341.301 130.355 333.29 130.355Z" fill="#64A4FF"/>
<path d="M4.4302 205.864L3.24341 205.52C4.49561 201.183 5.62238 198.54 5.66965 198.431L6.80441 198.916C6.79278 198.943 5.65876 201.606 4.4302 205.864ZM1.59975 220.287L0.370816 220.161C0.618333 217.744 0.992309 215.258 1.48232 212.776L2.69338 213.016C2.2111 215.46 1.84326 217.906 1.59975 220.287ZM0.503413 235.094C0.183966 232.699 0.0138647 230.186 0 227.627L1.23517 227.619C1.24857 230.127 1.41504 232.587 1.72769 234.93L0.503413 235.094ZM4.73913 249.431C3.6588 247.229 2.75015 244.873 2.03839 242.432L3.22452 242.087C3.91581 244.461 4.7984 246.749 5.84775 248.888L4.73913 249.431ZM13.6656 261.42C11.8154 259.702 10.1266 257.825 8.64842 255.841L9.63886 255.103C11.0728 257.026 12.7103 258.847 14.5059 260.516L13.6656 261.42ZM164.283 261.851L164.127 260.626C166.718 260.295 169.151 260.109 171.567 260.053L171.594 261.288C169.223 261.342 166.83 261.525 164.283 261.851ZM186.144 262.764C183.757 262.212 181.326 261.808 178.918 261.566L179.041 260.337C181.501 260.586 183.984 260.997 186.422 261.56L186.144 262.764ZM149.847 264.754L149.541 263.558C152.2 262.877 154.568 262.326 156.781 261.869L157.031 263.077C154.837 263.531 152.487 264.08 149.847 264.754ZM199.958 267.657C197.681 266.58 195.401 265.631 193.177 264.836L193.594 263.673C195.854 264.482 198.174 265.446 200.487 266.541L199.958 267.657ZM135.581 268.689L135.246 267.501C136.28 267.211 137.303 266.92 138.315 266.635C139.688 266.247 141.04 265.864 142.377 265.49L142.709 266.68C141.374 267.054 140.022 267.436 138.652 267.823C137.639 268.11 136.615 268.398 135.581 268.689ZM26.0829 269.714C23.7693 268.609 21.5756 267.376 19.5638 266.043L20.2453 265.013C22.21 266.313 24.3527 267.52 26.6154 268.6L26.0829 269.714ZM121.236 272.481L120.947 271.28C123.214 270.737 125.557 270.142 128.111 269.462L128.43 270.656C125.865 271.338 123.512 271.935 121.236 272.481ZM40.1631 274.609C37.6743 274.006 35.2652 273.307 33.0017 272.528L33.4034 271.361C35.6298 272.125 38.0026 272.814 40.4539 273.408L40.1631 274.609ZM106.685 275.466L106.481 274.247C108.861 273.849 111.302 273.392 113.739 272.89L113.988 274.1C111.536 274.605 109.079 275.063 106.685 275.466ZM54.8452 277.035C52.3123 276.785 49.8297 276.463 47.4662 276.078L47.6644 274.859C50.0028 275.239 52.4603 275.558 54.9671 275.807L54.8452 277.035ZM91.9468 277.342L91.8398 276.113C94.2768 275.901 96.7454 275.637 99.1787 275.326L99.3351 276.551C96.886 276.863 94.3996 277.13 91.9468 277.342ZM69.6767 277.968C67.2369 277.899 64.7384 277.785 62.254 277.627L62.3312 276.395C64.8017 276.551 67.2853 276.665 69.712 276.734L69.6767 277.968ZM77.1078 278.043L77.0976 276.808C79.5606 276.788 82.0433 276.72 84.4756 276.605L84.5333 277.839C82.0861 277.954 79.5867 278.022 77.1078 278.043Z" fill="#C2BEBC"/>
<path d="M167.851 1.64355L167.719 0.415249C170.219 0.147263 172.728 0.00768661 175.176 0.000244141L175.179 1.23504C172.775 1.24249 170.309 1.38021 167.851 1.64355ZM189.734 2.78902C187.338 2.26421 184.904 1.86871 182.499 1.61189L182.63 0.383629C185.08 0.645103 187.559 1.04801 189.999 1.58212L189.734 2.78902ZM153.447 4.52534L153.105 3.33802C155.54 2.63641 157.976 2.03715 160.345 1.55886L160.59 2.76949C158.253 3.24126 155.85 3.8321 153.447 4.52534ZM203.696 7.30853C201.329 6.30823 199.079 5.4624 196.814 4.72171L197.198 3.54829C199.495 4.29922 201.778 5.15715 204.178 6.17142L203.696 7.30853ZM139.608 9.55668L139.116 8.42329C141.442 7.41275 143.767 6.48225 146.025 5.65596L146.449 6.81538C144.213 7.6333 141.912 8.55451 139.608 9.55668ZM216.917 13.8436C214.499 12.5176 212.361 11.3926 210.382 10.4044L210.933 9.29892C212.927 10.2946 215.079 11.427 217.511 12.7604L216.917 13.8436ZM126.388 16.1028L125.79 15.0216C128.004 13.7998 130.218 12.6367 132.373 11.5666L132.922 12.672C130.784 13.7347 128.585 14.8885 126.388 16.1028ZM229.849 21.0634C227.755 19.9254 225.677 18.7558 223.372 17.4549L223.98 16.3792C226.279 17.6773 228.354 18.8451 230.439 19.9785L229.849 21.0634ZM308.748 23.5563L308.692 22.3224C311.149 22.2071 313.648 22.181 316.142 22.2471L316.111 23.4819C313.646 23.4167 311.177 23.4418 308.748 23.5563ZM113.732 23.7182L113.061 22.6816C115.176 21.31 117.294 19.984 119.356 18.7409L119.995 19.798C117.944 21.0346 115.836 22.3531 113.732 23.7182ZM330.764 24.8935C328.33 24.4924 325.874 24.1695 323.46 23.9359L323.579 22.7067C326.02 22.9431 328.505 23.2697 330.965 23.6754L330.764 24.8935ZM294.149 25.3485L293.907 24.1379C296.329 23.6512 298.805 23.2511 301.264 22.9496L301.415 24.1751C298.985 24.4738 296.541 24.8674 294.149 25.3485ZM243.273 27.4784C241.099 26.6298 238.869 25.649 236.456 24.4794L236.994 23.3683C239.378 24.5231 241.579 25.4909 243.723 26.3274L243.273 27.4784ZM345.125 28.2024C342.754 27.5036 340.355 26.8727 337.994 26.3264L338.272 25.1233C340.657 25.6751 343.081 26.3125 345.474 27.0178L345.125 28.2024ZM279.927 29.2678L279.579 28.0823C280.371 27.8497 281.18 27.5948 281.982 27.3258C283.526 26.8075 285.099 26.3218 286.661 25.8826L286.996 27.0718C285.454 27.5054 283.899 27.9846 282.375 28.4964C281.559 28.7709 280.735 29.0305 279.927 29.2678ZM257.707 31.2619C255.293 30.9604 252.822 30.4738 250.363 29.8177L250.681 28.6248C253.087 29.266 255.502 29.7415 257.859 30.0364L257.707 31.2619ZM265.18 31.6462L265.153 30.4114C267.547 30.3584 269.998 30.1285 272.438 29.7275L272.638 30.9465C270.141 31.3568 267.633 31.5913 265.18 31.6462ZM359.02 33.1583C356.738 32.2036 354.422 31.3057 352.138 30.4896L352.554 29.3265C354.858 30.15 357.194 31.0563 359.496 32.0184L359.02 33.1583ZM372.336 39.5286C370.166 38.358 367.952 37.2312 365.756 36.1797L366.289 35.0649C368.503 36.1257 370.736 37.2619 372.922 38.4418L372.336 39.5286ZM384.993 47.144C382.962 45.7882 380.863 44.4576 378.753 43.1884L379.39 42.1304C381.517 43.4089 383.632 44.7507 385.679 46.1167L384.993 47.144ZM396.814 55.9941C396.793 55.9755 394.73 54.1443 391.036 51.3983L391.773 50.4073C395.515 53.1886 397.614 55.0534 397.635 55.072L396.814 55.9941Z" fill="#C2BEBC"/>
<path d="M242.934 281.209L211.893 272.184L221.198 269.377L242.934 281.209Z" fill="#D6D6D6"/>
<path d="M242.934 281.209L231.331 269.555L224.189 271.006L242.934 281.209Z" fill="#E8E8E8"/>
<path d="M219.031 274.258L219.282 277.85L242.934 281.209L219.031 274.258Z" fill="#C2C2C2"/>
<path d="M86.6992 44.25L114.061 28.9476L104.655 28.327L86.6992 44.25Z" fill="#D6D6D6"/>
<path d="M86.6992 44.25L95.1185 30.7072L102.184 30.5193L86.6992 44.25Z" fill="#E8E8E8"/>
<path d="M107.768 32.4669L108.316 35.9144L86.6992 44.25L107.768 32.4669Z" fill="#C2C2C2"/>
<defs>
<linearGradient id="paint0_linear_5355_18475" x1="360.098" y1="209.591" x2="503.763" y2="209.591" gradientUnits="userSpaceOnUse">
<stop stop-color="#96CBFF"/>
<stop offset="1" stop-color="#5599FF"/>
</linearGradient>
<linearGradient id="paint1_linear_5355_18475" x1="77.9833" y1="121.304" x2="184.699" y2="110.341" gradientUnits="userSpaceOnUse">
<stop stop-color="#96CBFF"/>
<stop offset="1" stop-color="#5599FF"/>
</linearGradient>
</defs>
</svg>
